font.ufo
<glyph name="exclam" format="1">
  <advance width="600"/>
  <unicode hex="0021"/>
  <outline>
    <contour>
      <point x="270" y="214" type="line"/>
      <point x="294" y="214" type="line"/>
      <point x="376" y="608" type="line"/>
      <point x="388" y="672" type="line"/>
      <point x="356" y="672" type="line"/>
      <point x="344" y="608" type="line"/>
    </contour>
    <contour>
      <point x="238" y="-12" type="curve" smooth="yes"/>
      <point x="270" y="-12"/>
      <point x="300" y="22"/>
      <point x="300" y="56" type="curve" smooth="yes"/>
      <point x="300" y="84"/>
      <point x="284" y="102"/>
      <point x="258" y="102" type="curve" smooth="yes"/>
      <point x="226" y="102"/>
      <point x="196" y="68"/>
      <point x="196" y="34" type="curve" smooth="yes"/>
      <point x="196" y="6"/>
      <point x="212" y="-12"/>
    </contour>
  </outline>
</glyph>
<glyph name="numbersign" format="1">
  <advance width="600"/>
  <unicode hex="0023"/>
  <outline>
    <contour>
      <point x="94" y="0" type="line"/>
      <point x="121" y="0" type="line"/>
      <point x="318" y="650" type="line"/>
      <point x="291" y="650" type="line"/>
    </contour>
    <contour>
      <point x="294" y="0" type="line"/>
      <point x="321" y="0" type="line"/>
      <point x="505" y="650" type="line"/>
      <point x="478" y="650" type="line"/>
    </contour>
    <contour>
      <point x="141" y="427" type="line"/>
      <point x="526" y="427" type="line"/>
      <point x="531" y="451" type="line"/>
      <point x="146" y="451" type="line"/>
    </contour>
    <contour>
      <point x="80" y="222" type="line"/>
      <point x="465" y="222" type="line"/>
      <point x="470" y="245" type="line"/>
      <point x="85" y="245" type="line"/>
    </contour>
  </outline>
</glyph>
<glyph name="dollar" format="1">
  <advance width="600"/>
  <unicode hex="0024"/>
  <outline>
    <contour>
      <point x="265" y="34" type="curve" smooth="yes"/>
      <point x="372" y="34"/>
      <point x="471" y="75"/>
      <point x="471" y="186" type="curve" smooth="yes"/>
      <point x="471" y="270"/>
      <point x="398" y="307"/>
      <point x="312" y="350" type="curve" smooth="yes"/>
      <point x="223" y="394"/>
      <point x="187" y="430"/>
      <point x="187" y="488" type="curve" smooth="yes"/>
      <point x="187" y="558"/>
      <point x="252" y="592"/>
      <point x="329" y="592" type="curve" smooth="yes"/>
      <point x="404" y="592"/>
      <point x="459" y="550"/>
      <point x="491" y="506" type="curve"/>
      <point x="513" y="523" type="line"/>
      <point x="485" y="562"/>
      <point x="417" y="618"/>
      <point x="334" y="618" type="curve" smooth="yes"/>
      <point x="243" y="618"/>
      <point x="157" y="579"/>
      <point x="157" y="488" type="curve" smooth="yes"/>
      <point x="157" y="409"/>
      <point x="208" y="370"/>
      <point x="297" y="324" type="curve" smooth="yes"/>
      <point x="381" y="281"/>
      <point x="441" y="252"/>
      <point x="441" y="181" type="curve" smooth="yes"/>
      <point x="441" y="102"/>
      <point x="369" y="61"/>
      <point x="267" y="61" type="curve" smooth="yes"/>
      <point x="177" y="61"/>
      <point x="119" y="114"/>
      <point x="88" y="151" type="curve"/>
      <point x="66" y="132" type="line"/>
      <point x="103" y="89"/>
      <point x="171" y="34"/>
    </contour>
    <contour>
      <point x="336" y="601" type="line"/>
      <point x="364" y="601" type="line"/>
      <point x="395" y="750" type="line"/>
      <point x="367" y="750" type="line"/>
    </contour>
    <contour>
      <point x="202" y="-110" type="line"/>
      <point x="230" y="-110" type="line"/>
      <point x="259" y="37" type="line"/>
      <point x="231" y="37" type="line"/>
    </contour>
  </outline>
</glyph>
<glyph name="ampersand" format="1">
  <advance width="600"/>
  <unicode hex="0026"/>
  <outline>
    <contour>
      <point x="179" y="-12" type="curve" smooth="yes"/>
      <point x="254" y="-12"/>
      <point x="330" y="26"/>
      <point x="388" y="84" type="curve" smooth="yes"/>
      <point x="456" y="152"/>
      <point x="517" y="242"/>
      <point x="563" y="341" type="curve"/>
      <point x="533" y="341" type="line"/>
      <point x="491" y="248"/>
      <point x="437" y="167"/>
      <point x="370" y="102" type="curve" smooth="yes"/>
      <point x="318" y="52"/>
      <point x="246" y="15"/>
      <point x="184" y="15" type="curve" smooth="yes"/>
      <point x="112" y="15"/>
      <point x="59" y="58"/>
      <point x="59" y="136" type="curve" smooth="yes"/>
      <point x="59" y="336"/>
      <point x="435" y="380"/>
      <point x="435" y="584" type="curve" smooth="yes"/>
      <point x="435" y="630"/>
      <point x="407" y="672"/>
      <point x="347" y="672" type="curve" smooth="yes"/>
      <point x="269" y="672"/>
      <point x="193" y="597"/>
      <point x="193" y="482" type="curve" smooth="yes"/>
      <point x="193" y="348"/>
      <point x="278" y="183"/>
      <point x="367" y="83" type="curve" smooth="yes"/>
      <point x="409" y="35"/>
      <point x="459" y="4"/>
      <point x="493" y="-12" type="curve"/>
      <point x="507" y="12" type="line"/>
      <point x="473" y="28"/>
      <point x="426" y="58"/>
      <point x="387" y="102" type="curve" smooth="yes"/>
      <point x="293" y="206"/>
      <point x="221" y="358"/>
      <point x="221" y="486" type="curve" smooth="yes"/>
      <point x="221" y="577"/>
      <point x="276" y="646"/>
      <point x="347" y="646" type="curve" smooth="yes"/>
      <point x="390" y="646"/>
      <point x="407" y="612"/>
      <point x="407" y="577" type="curve" smooth="yes"/>
      <point x="407" y="394"/>
      <point x="30" y="356"/>
      <point x="30" y="130" type="curve" smooth="yes"/>
      <point x="30" y="40"/>
      <point x="95" y="-12"/>
    </contour>
  </outline>
</glyph>
<glyph name="parenleft" format="1">
  <advance width="600"/>
  <unicode hex="0028"/>
  <outline>
    <contour>
      <point x="373" y="-174" type="curve"/>
      <point x="393" y="-150" type="line"/>
      <point x="293" y="-65"/>
      <point x="247" y="49"/>
      <point x="247" y="184" type="curve" smooth="yes"/>
      <point x="247" y="392"/>
      <point x="347" y="573"/>
      <point x="566" y="705" type="curve"/>
      <point x="553" y="728" type="line"/>
      <point x="344" y="609"/>
      <point x="215" y="418"/>
      <point x="215" y="181" type="curve" smooth="yes"/>
      <point x="215" y="34"/>
      <point x="273" y="-93"/>
    </contour>
  </outline>
</glyph>
<glyph name="parenright" format="1">
  <advance width="600"/>
  <unicode hex="0029"/>
  <outline>
    <contour>
      <point x="49" y="-183" type="line"/>
      <point x="258" y="-64"/>
      <point x="383" y="127"/>
      <point x="383" y="364" type="curve" smooth="yes"/>
      <point x="383" y="511"/>
      <point x="324" y="638"/>
      <point x="224" y="719" type="curve"/>
      <point x="206" y="697" type="line"/>
      <point x="308" y="609"/>
      <point x="351" y="500"/>
      <point x="351" y="361" type="curve" smooth="yes"/>
      <point x="351" y="153"/>
      <point x="258" y="-26"/>
      <point x="36" y="-160" type="curve"/>
    </contour>
  </outline>
</glyph>
<glyph name="asterisk" format="1">
  <advance width="600"/>
  <unicode hex="002A"/>
  <outline>
    <contour>
      <point x="144" y="135" type="line"/>
      <point x="298" y="294" type="line"/>
      <point x="394" y="128" type="line"/>
      <point x="418" y="141" type="line"/>
      <point x="334" y="315" type="line"/>
      <point x="514" y="391" type="line"/>
      <point x="507" y="413" type="line"/>
      <point x="327" y="351" type="line"/>
      <point x="357" y="546" type="line"/>
      <point x="332" y="546" type="line"/>
      <point x="287" y="354" type="line"/>
      <point x="130" y="413" type="line"/>
      <point x="118" y="391" type="line"/>
      <point x="266" y="320" type="line"/>
      <point x="124" y="151" type="line"/>
    </contour>
  </outline>
</glyph>
<glyph name="comma" format="1">
  <advance width="600"/>
  <unicode hex="002C"/>
  <outline>
    <contour>
      <point x="105" y="-201" type="line"/>
      <point x="226" y="-168"/>
      <point x="315" y="-77"/>
      <point x="315" y="39" type="curve" smooth="yes"/>
      <point x="315" y="82"/>
      <point x="298" y="106"/>
      <point x="267" y="106" type="curve" smooth="yes"/>
      <point x="233" y="106"/>
      <point x="205" y="77"/>
      <point x="205" y="41" type="curve" smooth="yes"/>
      <point x="205" y="13"/>
      <point x="222" y="-5"/>
      <point x="249" y="-5" type="curve" smooth="yes"/>
      <point x="262" y="-5"/>
      <point x="283" y="-1"/>
      <point x="292" y="13" type="curve"/>
      <point x="271" y="21" type="line"/>
      <point x="267" y="2" type="line"/>
      <point x="258" y="-78"/>
      <point x="196" y="-148"/>
      <point x="98" y="-176" type="curve"/>
    </contour>
  </outline>
</glyph>
<glyph name="period" format="1">
  <advance width="600"/>
  <unicode hex="002E"/>
  <outline>
    <contour>
      <point x="238" y="-12" type="curve" smooth="yes"/>
      <point x="270" y="-12"/>
      <point x="300" y="22"/>
      <point x="300" y="56" type="curve" smooth="yes"/>
      <point x="300" y="84"/>
      <point x="284" y="102"/>
      <point x="258" y="102" type="curve" smooth="yes"/>
      <point x="226" y="102"/>
      <point x="196" y="68"/>
      <point x="196" y="34" type="curve" smooth="yes"/>
      <point x="196" y="6"/>
      <point x="212" y="-12"/>
    </contour>
  </outline>
</glyph>
<glyph name="zero" format="1">
  <advance width="600"/>
  <unicode hex="0030"/>
  <outline>
    <contour>
      <point x="252" y="-12" type="curve" smooth="yes"/>
      <point x="435" y="-12"/>
      <point x="528" y="226"/>
      <point x="528" y="408" type="curve" smooth="yes"/>
      <point x="528" y="552"/>
      <point x="468" y="652"/>
      <point x="350" y="652" type="curve" smooth="yes"/>
      <point x="167" y="652"/>
      <point x="74" y="412"/>
      <point x="74" y="230" type="curve" smooth="yes"/>
      <point x="74" y="86"/>
      <point x="134" y="-12"/>
    </contour>
    <contour>
      <point x="254" y="14" type="curve" smooth="yes"/>
      <point x="150" y="14"/>
      <point x="102" y="102"/>
      <point x="102" y="236" type="curve" smooth="yes"/>
      <point x="102" y="392"/>
      <point x="188" y="626"/>
      <point x="348" y="626" type="curve" smooth="yes"/>
      <point x="452" y="626"/>
      <point x="500" y="536"/>
      <point x="500" y="402" type="curve" smooth="yes"/>
      <point x="500" y="246"/>
      <point x="414" y="14"/>
    </contour>
    <contour>
      <point x="298" y="268" type="curve" smooth="yes"/>
      <point x="326" y="268"/>
      <point x="354" y="300"/>
      <point x="354" y="338" type="curve" smooth="yes"/>
      <point x="354" y="370"/>
      <point x="336" y="390"/>
      <point x="308" y="390" type="curve" smooth="yes"/>
      <point x="280" y="390"/>
      <point x="252" y="358"/>
      <point x="252" y="320" type="curve" smooth="yes"/>
      <point x="252" y="288"/>
      <point x="270" y="268"/>
    </contour>
  </outline>
</glyph>
<glyph name="one" format="1">
  <advance width="600"/>
  <unicode hex="0031"/>
  <outline>
    <contour>
      <point x="54" y="0" type="line"/>
      <point x="464" y="0" type="line"/>
      <point x="468" y="26" type="line"/>
      <point x="280" y="26" type="line"/>
      <point x="404" y="640" type="line"/>
      <point x="380" y="640" type="line"/>
      <point x="346" y="622"/>
      <point x="288" y="608"/>
      <point x="230" y="602" type="curve"/>
      <point x="226" y="582" type="line"/>
      <point x="364" y="582" type="line"/>
      <point x="252" y="26" type="line"/>
      <point x="60" y="26" type="line"/>
    </contour>
  </outline>
</glyph>
<glyph name="two" format="1">
  <advance width="600"/>
  <unicode hex="0032"/>
  <outline>
    <contour>
      <point x="52" y="0" type="line"/>
      <point x="482" y="0" type="line"/>
      <point x="486" y="26" type="line"/>
      <point x="214" y="26" type="line"/>
      <point x="172" y="26"/>
      <point x="142" y="26"/>
      <point x="100" y="26" type="curve"/>
      <point x="358" y="244"/>
      <point x="492" y="358"/>
      <point x="492" y="504" type="curve" smooth="yes"/>
      <point x="492" y="594"/>
      <point x="438" y="652"/>
      <point x="342" y="652" type="curve" smooth="yes"/>
      <point x="252" y="652"/>
      <point x="180" y="606"/>
      <point x="126" y="549" type="curve"/>
      <point x="146" y="530" type="line"/>
      <point x="195" y="583"/>
      <point x="261" y="626"/>
      <point x="334" y="626" type="curve" smooth="yes"/>
      <point x="426" y="626"/>
      <point x="464" y="578"/>
      <point x="464" y="502" type="curve" smooth="yes"/>
      <point x="464" y="372"/>
      <point x="344" y="266"/>
      <point x="54" y="20" type="curve"/>
    </contour>
  </outline>
</glyph>
<glyph name="three" format="1">
  <advance width="600"/>
  <unicode hex="0033"/>
  <outline>
    <contour>
      <point x="250" y="-12" type="curve" smooth="yes"/>
      <point x="378" y="-12"/>
      <point x="476" y="56"/>
      <point x="476" y="182" type="curve" smooth="yes"/>
      <point x="476" y="264"/>
      <point x="423" y="316"/>
      <point x="325" y="332" type="curve"/>
      <point x="325" y="335" type="line"/>
      <point x="447" y="356"/>
      <point x="506" y="425"/>
      <point x="506" y="518" type="curve" smooth="yes"/>
      <point x="506" y="606"/>
      <point x="438" y="652"/>
      <point x="346" y="652" type="curve" smooth="yes"/>
      <point x="260" y="652"/>
      <point x="188" y="612"/>
      <point x="142" y="570" type="curve"/>
      <point x="160" y="550" type="line"/>
      <point x="206" y="592"/>
      <point x="266" y="626"/>
      <point x="344" y="626" type="curve" smooth="yes"/>
      <point x="422" y="626"/>
      <point x="478" y="586"/>
      <point x="478" y="512" type="curve" smooth="yes"/>
      <point x="478" y="421"/>
      <point x="400" y="348"/>
      <point x="224" y="348" type="curve"/>
      <point x="220" y="322" type="line"/>
      <point x="382" y="318"/>
      <point x="448" y="262"/>
      <point x="448" y="176" type="curve" smooth="yes"/>
      <point x="448" y="72"/>
      <point x="358" y="14"/>
      <point x="252" y="14" type="curve" smooth="yes"/>
      <point x="150" y="14"/>
      <point x="93" y="66"/>
      <point x="62" y="108" type="curve"/>
      <point x="40" y="92" type="line"/>
      <point x="76" y="46"/>
      <point x="136" y="-12"/>
    </contour>
  </outline>
</glyph>
<glyph name="four" format="1">
  <advance width="600"/>
  <unicode hex="0034"/>
  <outline>
    <contour>
      <point x="339" y="0" type="line"/>
      <point x="367" y="0" type="line"/>
      <point x="495" y="640" type="line"/>
      <point x="480" y="640" type="line"/>
      <point x="34" y="212" type="line"/>
      <point x="31" y="197" type="line"/>
      <point x="521" y="197" type="line"/>
      <point x="528" y="223" type="line"/>
      <point x="85" y="223" type="line"/>
      <point x="381" y="509" type="line" smooth="yes"/>
      <point x="408" y="535"/>
      <point x="432" y="561"/>
      <point x="457" y="588" type="curve"/>
      <point x="460" y="588" type="line"/>
      <point x="452" y="558"/>
      <point x="444" y="529"/>
      <point x="438" y="499" type="curve" smooth="yes"/>
    </contour>
  </outline>
</glyph>
<glyph name="five" format="1">
  <advance width="600"/>
  <unicode hex="0035"/>
  <outline>
    <contour>
      <point x="251" y="-12" type="curve" smooth="yes"/>
      <point x="382" y="-12"/>
      <point x="494" y="74"/>
      <point x="494" y="228" type="curve" smooth="yes"/>
      <point x="494" y="350"/>
      <point x="422" y="398"/>
      <point x="322" y="398" type="curve" smooth="yes"/>
      <point x="254" y="398"/>
      <point x="208" y="377"/>
      <point x="161" y="355" type="curve"/>
      <point x="224" y="614" type="line"/>
      <point x="530" y="614" type="line"/>
      <point x="534" y="640" type="line"/>
      <point x="202" y="640" type="line"/>
      <point x="128" y="338" type="line"/>
      <point x="150" y="322" type="line"/>
      <point x="202" y="348"/>
      <point x="250" y="372"/>
      <point x="320" y="372" type="curve" smooth="yes"/>
      <point x="412" y="372"/>
      <point x="466" y="322"/>
      <point x="466" y="222" type="curve" smooth="yes"/>
      <point x="466" y="86"/>
      <point x="360" y="14"/>
      <point x="252" y="14" type="curve" smooth="yes"/>
      <point x="154" y="14"/>
      <point x="92" y="64"/>
      <point x="58" y="110" type="curve"/>
      <point x="36" y="92" type="line"/>
      <point x="72" y="46"/>
      <point x="140" y="-12"/>
    </contour>
  </outline>
</glyph>
<glyph name="six" format="1">
  <advance width="600"/>
  <unicode hex="0036"/>
  <outline>
    <contour>
      <point x="272" y="-12" type="curve" smooth="yes"/>
      <point x="400" y="-12"/>
      <point x="498" y="88"/>
      <point x="498" y="224" type="curve" smooth="yes"/>
      <point x="498" y="345"/>
      <point x="417" y="394"/>
      <point x="332" y="394" type="curve" smooth="yes"/>
      <point x="228" y="394"/>
      <point x="144" y="334"/>
      <point x="94" y="264" type="curve"/>
      <point x="97" y="234" type="line"/>
      <point x="162" y="318"/>
      <point x="240" y="368"/>
      <point x="330" y="368" type="curve" smooth="yes"/>
      <point x="399" y="368"/>
      <point x="470" y="325"/>
      <point x="470" y="218" type="curve" smooth="yes"/>
      <point x="470" y="108"/>
      <point x="386" y="14"/>
      <point x="274" y="14" type="curve" smooth="yes"/>
      <point x="176" y="14"/>
      <point x="102" y="90"/>
      <point x="102" y="226" type="curve" smooth="yes"/>
      <point x="102" y="502"/>
      <point x="254" y="626"/>
      <point x="384" y="626" type="curve" smooth="yes"/>
      <point x="438" y="626"/>
      <point x="484" y="608"/>
      <point x="522" y="554" type="curve"/>
      <point x="544" y="570" type="line"/>
      <point x="510" y="624"/>
      <point x="452" y="652"/>
      <point x="386" y="652" type="curve" smooth="yes"/>
      <point x="236" y="652"/>
      <point x="74" y="518"/>
      <point x="74" y="220" type="curve" smooth="yes"/>
      <point x="74" y="76"/>
      <point x="158" y="-12"/>
    </contour>
  </outline>
</glyph>
<glyph name="eight" format="1">
  <advance width="600"/>
  <unicode hex="0038"/>
  <outline>
    <contour>
      <point x="272" y="-12" type="curve" smooth="yes"/>
      <point x="394" y="-12"/>
      <point x="488" y="52"/>
      <point x="488" y="166" type="curve" smooth="yes"/>
      <point x="488" y="242"/>
      <point x="422" y="286"/>
      <point x="390" y="308" type="curve"/>
      <point x="390" y="312" type="line"/>
      <point x="474" y="356"/>
      <point x="526" y="416"/>
      <point x="526" y="506" type="curve" smooth="yes"/>
      <point x="526" y="602"/>
      <point x="452" y="652"/>
      <point x="364" y="652" type="curve" smooth="yes"/>
      <point x="264" y="652"/>
      <point x="178" y="596"/>
      <point x="178" y="492" type="curve" smooth="yes"/>
      <point x="178" y="438"/>
      <point x="202" y="402"/>
      <point x="246" y="360" type="curve"/>
      <point x="246" y="356" type="line"/>
      <point x="156" y="318"/>
      <point x="78" y="258"/>
      <point x="78" y="154" type="curve" smooth="yes"/>
      <point x="78" y="44"/>
      <point x="170" y="-12"/>
    </contour>
    <contour>
      <point x="366" y="324" type="curve"/>
      <point x="284" y="362"/>
      <point x="206" y="412"/>
      <point x="206" y="494" type="curve" smooth="yes"/>
      <point x="206" y="580"/>
      <point x="280" y="626"/>
      <point x="362" y="626" type="curve" smooth="yes"/>
      <point x="434" y="626"/>
      <point x="498" y="584"/>
      <point x="498" y="504" type="curve" smooth="yes"/>
      <point x="498" y="424"/>
      <point x="440" y="360"/>
    </contour>
    <contour>
      <point x="272" y="14" type="curve" smooth="yes"/>
      <point x="186" y="14"/>
      <point x="106" y="62"/>
      <point x="106" y="156" type="curve" smooth="yes"/>
      <point x="106" y="246"/>
      <point x="170" y="298"/>
      <point x="268" y="344" type="curve"/>
      <point x="354" y="298"/>
      <point x="460" y="252"/>
      <point x="460" y="160" type="curve" smooth="yes"/>
      <point x="460" y="64"/>
      <point x="372" y="14"/>
    </contour>
  </outline>
</glyph>
<glyph name="nine" format="1">
  <advance width="600"/>
  <unicode hex="0039"/>
  <outline>
    <contour>
      <point x="216" y="-12" type="curve" smooth="yes"/>
      <point x="366" y="-12"/>
      <point x="528" y="122"/>
      <point x="528" y="420" type="curve" smooth="yes"/>
      <point x="528" y="564"/>
      <point x="444" y="652"/>
      <point x="330" y="652" type="curve" smooth="yes"/>
      <point x="202" y="652"/>
      <point x="104" y="552"/>
      <point x="104" y="416" type="curve" smooth="yes"/>
      <point x="104" y="295"/>
      <point x="185" y="246"/>
      <point x="270" y="246" type="curve" smooth="yes"/>
      <point x="374" y="246"/>
      <point x="458" y="306"/>
      <point x="508" y="376" type="curve"/>
      <point x="505" y="406" type="line"/>
      <point x="440" y="322"/>
      <point x="362" y="272"/>
      <point x="272" y="272" type="curve" smooth="yes"/>
      <point x="203" y="272"/>
      <point x="132" y="315"/>
      <point x="132" y="422" type="curve" smooth="yes"/>
      <point x="132" y="532"/>
      <point x="216" y="626"/>
      <point x="328" y="626" type="curve" smooth="yes"/>
      <point x="426" y="626"/>
      <point x="500" y="550"/>
      <point x="500" y="414" type="curve" smooth="yes"/>
      <point x="500" y="138"/>
      <point x="348" y="14"/>
      <point x="218" y="14" type="curve" smooth="yes"/>
      <point x="164" y="14"/>
      <point x="118" y="32"/>
      <point x="80" y="86" type="curve"/>
      <point x="58" y="70" type="line"/>
      <point x="92" y="16"/>
      <point x="150" y="-12"/>
    </contour>
  </outline>
</glyph>
<glyph name="less" format="1">
  <advance width="600"/>
  <unicode hex="003C"/>
  <outline>
    <contour>
      <point x="486" y="62" type="line"/>
      <point x="486" y="97" type="line"/>
      <point x="154" y="330" type="line"/>
      <point x="154" y="334" type="line"/>
      <point x="486" y="567" type="line"/>
      <point x="486" y="602" type="line"/>
      <point x="124" y="347" type="line"/>
      <point x="124" y="317" type="line"/>
    </contour>
  </outline>
</glyph>
<glyph name="question" format="1">
	<unicode hex="003F"/>
	<advance width="600"/>
	<outline>
		<contour>
			<point x="236" y="214" type="curve"/>
			<point x="262" y="214" type="line"/>
			<point x="262" y="290"/>
			<point x="312" y="324"/>
			<point x="378" y="380" type="curve" smooth="yes"/>
			<point x="434" y="428"/>
			<point x="504" y="474"/>
			<point x="504" y="560" type="curve" smooth="yes"/>
			<point x="504" y="626"/>
			<point x="458" y="682"/>
			<point x="362" y="682" type="curve" smooth="yes"/>
			<point x="288" y="682"/>
			<point x="226" y="644"/>
			<point x="182" y="592" type="curve"/>
			<point x="202" y="576" type="line"/>
			<point x="244" y="626"/>
			<point x="292" y="656"/>
			<point x="360" y="656" type="curve" smooth="yes"/>
			<point x="442" y="656"/>
			<point x="476" y="609"/>
			<point x="476" y="554" type="curve" smooth="yes"/>
			<point x="476" y="484"/>
			<point x="418" y="446"/>
			<point x="360" y="398" type="curve" smooth="yes"/>
			<point x="298" y="346"/>
			<point x="236" y="298"/>
		</contour>
		<contour>
			<point x="216" y="-12" type="curve" smooth="yes"/>
			<point x="248" y="-12"/>
			<point x="278" y="22"/>
			<point x="278" y="56" type="curve" smooth="yes"/>
			<point x="278" y="84"/>
			<point x="262" y="102"/>
			<point x="236" y="102" type="curve" smooth="yes"/>
			<point x="204" y="102"/>
			<point x="174" y="68"/>
			<point x="174" y="34" type="curve" smooth="yes"/>
			<point x="174" y="6"/>
			<point x="190" y="-12"/>
		</contour>
	</outline>
</glyph>
<glyph name="at" format="1">
  <advance width="600"/>
  <unicode hex="0040"/>
  <outline>
    <contour>
      <point x="268" y="-142" type="curve" smooth="yes"/>
      <point x="332" y="-142"/>
      <point x="388" y="-116"/>
      <point x="430" y="-84" type="curve"/>
      <point x="416" y="-62" type="line"/>
      <point x="374" y="-94"/>
      <point x="325" y="-116"/>
      <point x="270" y="-116" type="curve" smooth="yes"/>
      <point x="138" y="-116"/>
      <point x="64" y="-14"/>
      <point x="64" y="154" type="curve" smooth="yes"/>
      <point x="64" y="418"/>
      <point x="228" y="602"/>
      <point x="394" y="602" type="curve" smooth="yes"/>
      <point x="498" y="602"/>
      <point x="538" y="552"/>
      <point x="538" y="474" type="curve" smooth="yes"/>
      <point x="538" y="450"/>
      <point x="534" y="424"/>
      <point x="524" y="380" type="curve"/>
      <point x="313" y="357"/>
      <point x="212" y="299"/>
      <point x="212" y="188" type="curve" smooth="yes"/>
      <point x="212" y="120"/>
      <point x="264" y="88"/>
      <point x="326" y="88" type="curve" smooth="yes"/>
      <point x="384" y="88"/>
      <point x="438" y="124"/>
      <point x="478" y="166" type="curve"/>
      <point x="482" y="166" type="line"/>
      <point x="474" y="100" type="line"/>
      <point x="497" y="100" type="line"/>
      <point x="556" y="400" type="line" smooth="yes"/>
      <point x="562" y="428"/>
      <point x="564" y="452"/>
      <point x="564" y="480" type="curve" smooth="yes"/>
      <point x="564" y="574"/>
      <point x="512" y="628"/>
      <point x="396" y="628" type="curve" smooth="yes"/>
      <point x="206" y="628"/>
      <point x="36" y="430"/>
      <point x="36" y="148" type="curve" smooth="yes"/>
      <point x="36" y="-34"/>
      <point x="116" y="-142"/>
    </contour>
    <contour>
      <point x="328" y="114" type="curve" smooth="yes"/>
      <point x="280" y="114"/>
      <point x="240" y="138"/>
      <point x="240" y="192" type="curve" smooth="yes"/>
      <point x="240" y="278"/>
      <point x="327" y="330"/>
      <point x="520" y="356" type="curve"/>
      <point x="490" y="206" type="line"/>
      <point x="428" y="144"/>
      <point x="378" y="114"/>
    </contour>
  </outline>
</glyph>
<glyph name="A" format="1">
  <advance width="600"/>
  <unicode hex="0041"/>
  <outline>
    <contour>
      <point x="-8" y="0" type="line"/>
      <point x="24" y="0" type="line"/>
      <point x="248" y="400" type="line" smooth="yes"/>
      <point x="290" y="478"/>
      <point x="328" y="548"/>
      <point x="372" y="627" type="curve"/>
      <point x="377" y="627" type="line"/>
      <point x="387" y="553"/>
      <point x="396" y="471"/>
      <point x="406" y="396" type="curve" smooth="yes"/>
      <point x="458" y="0" type="line"/>
      <point x="488" y="0" type="line"/>
      <point x="396" y="660" type="line"/>
      <point x="366" y="660" type="line"/>
    </contour>
    <contour>
      <point x="150" y="238" type="line"/>
      <point x="437" y="238" type="line"/>
      <point x="438" y="264" type="line"/>
      <point x="158" y="264" type="line"/>
    </contour>
    <contour>
      <point x="374" y="680" type="move" name="aboveUC"/>
    </contour>
    <contour>
      <point x="458" y="-10" type="move" name="ogonekUC"/>
    </contour>
    <contour>
      <point x="474" y="0" type="move" name="baseLC"/>
    </contour>
    <contour>
      <point x="250" y="-20" type="move" name="belowLC"/>
    </contour>
  </outline>
</glyph>
<glyph name="B" format="1">
  <advance width="600"/>
  <unicode hex="0042"/>
  <outline>
    <contour>
      <point x="54" y="0" type="line"/>
      <point x="244" y="0" type="line" smooth="yes"/>
      <point x="402" y="0"/>
      <point x="508" y="66"/>
      <point x="508" y="206" type="curve" smooth="yes"/>
      <point x="508" y="290"/>
      <point x="446" y="334"/>
      <point x="382" y="348" type="curve"/>
      <point x="382" y="352" type="line"/>
      <point x="444" y="362"/>
      <point x="532" y="418"/>
      <point x="532" y="518" type="curve" smooth="yes"/>
      <point x="532" y="606"/>
      <point x="472" y="660"/>
      <point x="342" y="660" type="curve" smooth="yes"/>
      <point x="186" y="660" type="line"/>
    </contour>
    <contour>
      <point x="156" y="364" type="line"/>
      <point x="210" y="634" type="line"/>
      <point x="326" y="634" type="line" smooth="yes"/>
      <point x="456" y="634"/>
      <point x="502" y="590"/>
      <point x="502" y="516" type="curve" smooth="yes"/>
      <point x="502" y="428"/>
      <point x="426" y="364"/>
      <point x="274" y="364" type="curve" smooth="yes"/>
    </contour>
    <contour>
      <point x="88" y="26" type="line"/>
      <point x="152" y="338" type="line"/>
      <point x="292" y="338" type="line" smooth="yes"/>
      <point x="410" y="338"/>
      <point x="478" y="280"/>
      <point x="478" y="203" type="curve" smooth="yes"/>
      <point x="478" y="74"/>
      <point x="376" y="26"/>
      <point x="226" y="26" type="curve" smooth="yes"/>
    </contour>
    <contour>
      <point x="374" y="680" type="move" name="aboveUC"/>
    </contour>
    <contour>
      <point x="250" y="-20" type="move" name="belowLC"/>
    </contour>
  </outline>
</glyph>
<glyph name="C" format="1">
  <advance width="600"/>
  <unicode hex="0043"/>
  <outline>
    <contour>
      <point x="304" y="-12" type="curve" smooth="yes"/>
      <point x="376" y="-12"/>
      <point x="430" y="14"/>
      <point x="486" y="60" type="curve"/>
      <point x="468" y="80" type="line"/>
      <point x="418" y="38"/>
      <point x="368" y="14"/>
      <point x="306" y="14" type="curve" smooth="yes"/>
      <point x="172" y="14"/>
      <point x="114" y="118"/>
      <point x="114" y="252" type="curve" smooth="yes"/>
      <point x="114" y="422"/>
      <point x="222" y="646"/>
      <point x="414" y="646" type="curve" smooth="yes"/>
      <point x="476" y="646"/>
      <point x="518" y="612"/>
      <point x="544" y="564" type="curve"/>
      <point x="568" y="580" type="line"/>
      <point x="538" y="630"/>
      <point x="490" y="672"/>
      <point x="416" y="672" type="curve" smooth="yes"/>
      <point x="206" y="672"/>
      <point x="84" y="438"/>
      <point x="84" y="246" type="curve" smooth="yes"/>
      <point x="84" y="100"/>
      <point x="156" y="-12"/>
    </contour>
    <contour>
      <point x="400" y="680" type="move" name="aboveUC"/>
    </contour>
    <contour>
      <point x="290" y="0" type="move" name="baseLC"/>
    </contour>
    <contour>
      <point x="290" y="-20" type="move" name="belowLC"/>
    </contour>
  </outline>
</glyph>
<glyph name="D" format="1">
  <advance width="600"/>
  <unicode hex="0044"/>
  <outline>
    <contour>
      <point x="30" y="0" type="line"/>
      <point x="186" y="0" type="line" smooth="yes"/>
      <point x="428" y="0"/>
      <point x="550" y="180"/>
      <point x="550" y="404" type="curve" smooth="yes"/>
      <point x="550" y="559"/>
      <point x="462" y="660"/>
      <point x="280" y="660" type="curve" smooth="yes"/>
      <point x="162" y="660" type="line"/>
    </contour>
    <contour>
      <point x="64" y="26" type="line"/>
      <point x="186" y="634" type="line"/>
      <point x="278" y="634" type="line" smooth="yes"/>
      <point x="442" y="634"/>
      <point x="520" y="541"/>
      <point x="520" y="402" type="curve" smooth="yes"/>
      <point x="520" y="191"/>
      <point x="404" y="26"/>
      <point x="188" y="26" type="curve" smooth="yes"/>
    </contour>
    <contour>
      <point x="360" y="680" type="move" name="aboveUC"/>
    </contour>
    <contour>
      <point x="220" y="-20" type="move" name="belowLC"/>
    </contour>
  </outline>
</glyph>
<glyph name="G" format="1">
  <advance width="600"/>
  <unicode hex="0047"/>
  <outline>
    <contour>
      <point x="304" y="-12" type="curve" smooth="yes"/>
      <point x="374" y="-12"/>
      <point x="430" y="14"/>
      <point x="476" y="54" type="curve"/>
      <point x="530" y="316" type="line"/>
      <point x="342" y="316" type="line"/>
      <point x="336" y="290" type="line"/>
      <point x="494" y="290" type="line"/>
      <point x="450" y="68" type="line"/>
      <point x="418" y="38"/>
      <point x="370" y="14"/>
      <point x="306" y="14" type="curve" smooth="yes"/>
      <point x="160" y="14"/>
      <point x="104" y="122"/>
      <point x="104" y="252" type="curve" smooth="yes"/>
      <point x="104" y="422"/>
      <point x="214" y="646"/>
      <point x="414" y="646" type="curve" smooth="yes"/>
      <point x="476" y="646"/>
      <point x="518" y="610"/>
      <point x="544" y="564" type="curve"/>
      <point x="568" y="580" type="line"/>
      <point x="538" y="628"/>
      <point x="490" y="672"/>
      <point x="416" y="672" type="curve" smooth="yes"/>
      <point x="194" y="672"/>
      <point x="74" y="441"/>
      <point x="74" y="246" type="curve" smooth="yes"/>
      <point x="74" y="96"/>
      <point x="148" y="-12"/>
    </contour>
    <contour>
      <point x="400" y="680" type="move" name="aboveUC"/>
    </contour>
    <contour>
      <point x="300" y="-20" type="move" name="belowLC"/>
    </contour>
  </outline>
</glyph>
<glyph name="H" format="1">
  <advance width="600"/>
  <unicode hex="0048"/>
  <outline>
    <contour>
      <point x="30" y="0" type="line"/>
      <point x="60" y="0" type="line"/>
      <point x="128" y="338" type="line"/>
      <point x="484" y="338" type="line"/>
      <point x="416" y="0" type="line"/>
      <point x="446" y="0" type="line"/>
      <point x="578" y="660" type="line"/>
      <point x="548" y="660" type="line"/>
      <point x="488" y="364" type="line"/>
      <point x="132" y="364" type="line"/>
      <point x="192" y="660" type="line"/>
      <point x="162" y="660" type="line"/>
    </contour>
    <contour>
      <point x="374" y="680" type="move" name="aboveUC"/>
    </contour>
    <contour>
      <point x="46" y="0" type="move" name="baseLC"/>
    </contour>
    <contour>
      <point x="234" y="-20" type="move" name="belowLC"/>
    </contour>
  </outline>
</glyph>
<glyph name="I" format="1">
  <advance width="600"/>
  <unicode hex="0049"/>
  <outline>
    <contour>
      <point x="50" y="0" type="line"/>
      <point x="424" y="0" type="line"/>
      <point x="430" y="26" type="line"/>
      <point x="256" y="26" type="line"/>
      <point x="378" y="634" type="line"/>
      <point x="552" y="634" type="line"/>
      <point x="558" y="660" type="line"/>
      <point x="182" y="660" type="line"/>
      <point x="176" y="634" type="line"/>
      <point x="348" y="634" type="line"/>
      <point x="226" y="26" type="line"/>
      <point x="56" y="26" type="line"/>
    </contour>
    <contour>
      <point x="374" y="680" type="move" name="aboveUC"/>
    </contour>
    <contour>
      <point x="214" y="0" type="move" name="ogonekUC"/>
    </contour>
    <contour>
      <point x="234" y="-20" type="move" name="belowLC"/>
    </contour>
  </outline>
</glyph>
<glyph name="L" format="1">
  <advance width="600"/>
  <unicode hex="004C"/>
  <outline>
    <contour>
      <point x="126" y="0" type="line"/>
      <point x="508" y="0" type="line"/>
      <point x="514" y="26" type="line"/>
      <point x="162" y="26" type="line"/>
      <point x="288" y="660" type="line"/>
      <point x="258" y="660" type="line"/>
    </contour>
    <contour>
      <point x="280" y="680" type="move" name="aboveUC"/>
    </contour>
    <contour>
      <point x="208" y="330" type="move" name="center"/>
    </contour>
    <contour>
      <point x="330" y="0" type="move" name="baseLC"/>
    </contour>
    <contour>
      <point x="320" y="-20" type="move" name="belowLC"/>
    </contour>
  </outline>
</glyph>
<glyph name="N" format="1">
  <advance width="600"/>
  <unicode hex="004E"/>
  <outline>
    <contour>
      <point x="36" y="0" type="line"/>
      <point x="66" y="0" type="line"/>
      <point x="152" y="438" type="line" smooth="yes"/>
      <point x="164" y="500"/>
      <point x="174" y="556"/>
      <point x="184" y="618" type="curve"/>
      <point x="188" y="618" type="line"/>
      <point x="234" y="488" type="line"/>
      <point x="412" y="0" type="line"/>
      <point x="444" y="0" type="line"/>
      <point x="576" y="660" type="line"/>
      <point x="546" y="660" type="line"/>
      <point x="460" y="222" type="line" smooth="yes"/>
      <point x="448" y="162"/>
      <point x="438" y="104"/>
      <point x="428" y="42" type="curve"/>
      <point x="424" y="42" type="line"/>
      <point x="378" y="172" type="line"/>
      <point x="200" y="660" type="line"/>
      <point x="168" y="660" type="line"/>
    </contour>
    <contour>
      <point x="380" y="680" type="move" name="aboveUC"/>
    </contour>
    <contour>
      <point x="430" y="0" type="move" name="baseLC"/>
    </contour>
    <contour>
      <point x="250" y="-20" type="move" name="belowLC"/>
    </contour>
  </outline>
</glyph>
<glyph name="O" format="1">
  <advance width="600"/>
  <unicode hex="004F"/>
  <outline>
    <contour>
      <point x="256" y="-12" type="curve" smooth="yes"/>
      <point x="452" y="-12"/>
      <point x="560" y="222"/>
      <point x="560" y="418" type="curve" smooth="yes"/>
      <point x="560" y="566"/>
      <point x="486" y="672"/>
      <point x="354" y="672" type="curve" smooth="yes"/>
      <point x="158" y="672"/>
      <point x="50" y="438"/>
      <point x="50" y="242" type="curve" smooth="yes"/>
      <point x="50" y="94"/>
      <point x="124" y="-12"/>
    </contour>
    <contour>
      <point x="258" y="14" type="curve" smooth="yes"/>
      <point x="138" y="14"/>
      <point x="80" y="110"/>
      <point x="80" y="246" type="curve" smooth="yes"/>
      <point x="80" y="420"/>
      <point x="176" y="646"/>
      <point x="352" y="646" type="curve" smooth="yes"/>
      <point x="472" y="646"/>
      <point x="530" y="550"/>
      <point x="530" y="414" type="curve" smooth="yes"/>
      <point x="530" y="240"/>
      <point x="434" y="14"/>
    </contour>
    <contour>
      <point x="374" y="680" type="move" name="aboveUC"/>
    </contour>
    <contour>
      <point x="366" y="650" type="move" name="hornLC"/>
    </contour>
    <contour>
      <point x="238" y="0" type="move" name="ogonekUC"/>
    </contour>
    <contour>
      <point x="238" y="0" type="move" name="baseLC"/>
    </contour>
  </outline>
</glyph>
<glyph name="S" format="1">
  <advance width="600"/>
  <unicode hex="0053"/>
  <outline>
    <contour>
      <point x="256" y="-12" type="curve" smooth="yes"/>
      <point x="376" y="-12"/>
      <point x="468" y="64"/>
      <point x="468" y="180" type="curve"/>
      <point x="468" y="252"/>
      <point x="426" y="298"/>
      <point x="364" y="334" type="curve" smooth="yes"/>
      <point x="278" y="384" type="line" smooth="yes"/>
      <point x="232" y="410"/>
      <point x="190" y="446"/>
      <point x="190" y="510" type="curve" smooth="yes"/>
      <point x="190" y="576"/>
      <point x="248" y="646"/>
      <point x="338" y="646" type="curve" smooth="yes"/>
      <point x="410" y="646"/>
      <point x="464" y="610"/>
      <point x="498" y="566" type="curve"/>
      <point x="520" y="584" type="line"/>
      <point x="486" y="632"/>
      <point x="424" y="672"/>
      <point x="344" y="672" type="curve" smooth="yes"/>
      <point x="234" y="672"/>
      <point x="160" y="594"/>
      <point x="160" y="506" type="curve" smooth="yes"/>
      <point x="160" y="436"/>
      <point x="210" y="390"/>
      <point x="264" y="358" type="curve" smooth="yes"/>
      <point x="352" y="306" type="line" smooth="yes"/>
      <point x="404" y="276"/>
      <point x="438" y="236"/>
      <point x="438" y="176" type="curve" smooth="yes"/>
      <point x="438" y="78"/>
      <point x="360" y="14"/>
      <point x="260" y="14" type="curve" smooth="yes"/>
      <point x="174" y="14"/>
      <point x="114" y="50"/>
      <point x="72" y="114" type="curve"/>
      <point x="48" y="98" type="line"/>
      <point x="92" y="28"/>
      <point x="162" y="-12"/>
    </contour>
    <contour>
      <point x="360" y="680" type="move" name="aboveUC"/>
    </contour>
    <contour>
      <point x="260" y="0" type="move" name="baseLC"/>
    </contour>
    <contour>
      <point x="260" y="-20" type="move" name="belowLC"/>
    </contour>
  </outline>
</glyph>
<glyph name="U" format="1">
  <advance width="600"/>
  <unicode hex="0055"/>
  <outline>
    <contour>
      <point x="260" y="-12" type="curve" smooth="yes"/>
      <point x="360" y="-12"/>
      <point x="456" y="50"/>
      <point x="492" y="230" type="curve" smooth="yes"/>
      <point x="578" y="660" type="line"/>
      <point x="548" y="660" type="line"/>
      <point x="464" y="238" type="line" smooth="yes"/>
      <point x="432" y="76"/>
      <point x="350" y="14"/>
      <point x="264" y="14" type="curve" smooth="yes"/>
      <point x="158" y="14"/>
      <point x="104" y="78"/>
      <point x="104" y="188" type="curve" smooth="yes"/>
      <point x="104" y="212"/>
      <point x="106" y="238"/>
      <point x="114" y="270" type="curve" smooth="yes"/>
      <point x="192" y="660" type="line"/>
      <point x="162" y="660" type="line"/>
      <point x="82" y="262" type="line" smooth="yes"/>
      <point x="76" y="230"/>
      <point x="74" y="206"/>
      <point x="74" y="180" type="curve" smooth="yes"/>
      <point x="74" y="58"/>
      <point x="144" y="-12"/>
    </contour>
    <contour>
      <point x="374" y="680" type="move" name="aboveUC"/>
    </contour>
    <contour>
      <point x="454" y="670" type="move" name="hornLC"/>
    </contour>
    <contour>
      <point x="238" y="0" type="move" name="ogonekUC"/>
    </contour>
    <contour>
      <point x="238" y="0" type="move" name="baseLC"/>
    </contour>
    <contour>
      <point x="234" y="-20" type="move" name="belowLC"/>
    </contour>
  </outline>
</glyph>
<glyph name="W" format="1">
  <advance width="600"/>
  <unicode hex="0057"/>
  <outline>
    <contour>
      <point x="77" y="0" type="line"/>
      <point x="123" y="0" type="line"/>
      <point x="271" y="315" type="line" smooth="yes"/>
      <point x="289" y="354"/>
      <point x="311" y="405"/>
      <point x="321" y="433" type="curve"/>
      <point x="326" y="433" type="line"/>
      <point x="329" y="406"/>
      <point x="334" y="354"/>
      <point x="339" y="316" type="curve" smooth="yes"/>
      <point x="378" y="0" type="line"/>
      <point x="423" y="0" type="line"/>
      <point x="629" y="660" type="line"/>
      <point x="601" y="660" type="line"/>
      <point x="440" y="147" type="line" smooth="yes"/>
      <point x="407" y="26" type="line"/>
      <point x="401" y="26" type="line"/>
      <point x="398" y="64"/>
      <point x="387" y="157"/>
      <point x="380" y="210" type="curve" smooth="yes"/>
      <point x="347" y="467" type="line"/>
      <point x="312" y="467" type="line"/>
      <point x="160" y="142" type="line" smooth="yes"/>
      <point x="108" y="20" type="line"/>
      <point x="104" y="20" type="line"/>
      <point x="104" y="20"/>
      <point x="108" y="69"/>
      <point x="111" y="140" type="curve" smooth="yes"/>
      <point x="136" y="660" type="line"/>
      <point x="107" y="660" type="line"/>
    </contour>
    <contour>
      <point x="374" y="680" type="move" name="aboveUC"/>
    </contour>
    <contour>
      <point x="234" y="-20" type="move" name="belowLC"/>
    </contour>
  </outline>
</glyph>
<glyph name="X" format="1">
  <advance width="600"/>
  <unicode hex="0058"/>
  <outline>
    <contour>
      <point x="374" y="682" type="move" name="aboveUC"/>
    </contour>
    <contour>
      <point x="234" y="-22" type="move" name="belowLC"/>
    </contour>
    <contour>
      <point x="221" y="214" type="line"/>
      <point x="244" y="244"/>
      <point x="270" y="279"/>
      <point x="297" y="316" type="curve"/>
      <point x="301" y="316" type="line"/>
      <point x="312" y="289"/>
      <point x="332" y="237"/>
      <point x="342" y="214" type="curve" smooth="yes"/>
      <point x="433" y="0" type="line"/>
      <point x="463" y="0" type="line"/>
      <point x="322" y="339" type="line"/>
      <point x="580" y="660" type="line"/>
      <point x="545" y="660" type="line"/>
      <point x="378" y="453" type="line" smooth="yes"/>
      <point x="364" y="436"/>
      <point x="331" y="392"/>
      <point x="310" y="363" type="curve"/>
      <point x="306" y="363" type="line"/>
      <point x="298" y="386"/>
      <point x="283" y="424"/>
      <point x="271" y="454" type="curve" smooth="yes"/>
      <point x="185" y="660" type="line"/>
      <point x="153" y="660" type="line"/>
      <point x="286" y="345" type="line"/>
      <point x="18" y="0" type="line"/>
      <point x="52" y="0" type="line"/>
    </contour>
  </outline>
</glyph>
<glyph name="bracketleft" format="1">
  <advance width="600"/>
  <unicode hex="005B"/>
  <outline>
    <contour>
      <point x="142" y="-152" type="line"/>
      <point x="400" y="-152" type="line"/>
      <point x="404" y="-130" type="line"/>
      <point x="172" y="-130" type="line"/>
      <point x="334" y="686" type="line"/>
      <point x="566" y="686" type="line"/>
      <point x="570" y="708" type="line"/>
      <point x="314" y="708" type="line"/>
    </contour>
  </outline>
</glyph>
<glyph name="asciicircum" format="1">
  <advance width="600"/>
  <unicode hex="005E"/>
  <outline>
    <contour>
      <point x="74" y="292" type="line"/>
      <point x="104" y="292" type="line"/>
      <point x="187" y="509" type="line"/>
      <point x="239" y="640" type="line"/>
      <point x="243" y="640" type="line"/>
      <point x="295" y="509" type="line"/>
      <point x="378" y="292" type="line"/>
      <point x="408" y="292" type="line"/>
      <point x="258" y="670" type="line"/>
      <point x="224" y="670" type="line"/>
    </contour>
  </outline>
</glyph>
<glyph name="a" format="1">
  <advance width="600"/>
  <unicode hex="0061"/>
  <outline>
    <contour>
      <point x="236" y="-12" type="curve" smooth="yes"/>
      <point x="304" y="-12"/>
      <point x="372" y="26"/>
      <point x="426" y="78" type="curve"/>
      <point x="430" y="78" type="line"/>
      <point x="418" y="0" type="line"/>
      <point x="442" y="0" type="line"/>
      <point x="538" y="478" type="line"/>
      <point x="514" y="478" type="line"/>
      <point x="496" y="410" type="line"/>
      <point x="492" y="410" type="line"/>
      <point x="462" y="458"/>
      <point x="406" y="490"/>
      <point x="334" y="490" type="curve" smooth="yes"/>
      <point x="180" y="490"/>
      <point x="66" y="338"/>
      <point x="66" y="170" type="curve" smooth="yes"/>
      <point x="66" y="50"/>
      <point x="134" y="-12"/>
    </contour>
    <contour>
      <point x="238" y="14" type="curve" smooth="yes"/>
      <point x="150" y="14"/>
      <point x="94" y="66"/>
      <point x="94" y="176" type="curve" smooth="yes"/>
      <point x="94" y="320"/>
      <point x="196" y="464"/>
      <point x="332" y="464" type="curve" smooth="yes"/>
      <point x="392" y="464"/>
      <point x="446" y="438"/>
      <point x="490" y="372" type="curve"/>
      <point x="438" y="122" type="line"/>
      <point x="374" y="54"/>
      <point x="302" y="14"/>
    </contour>
    <contour>
      <point x="410" y="0" type="move" name="ogonekLC"/>
    </contour>
    <contour>
      <point x="358" y="500" type="move" name="aboveLC"/>
    </contour>
    <contour>
      <point x="428" y="0" type="move" name="baseLC"/>
    </contour>
    <contour>
      <point x="248" y="-20" type="move" name="belowLC"/>
    </contour>
  </outline>
</glyph>
<glyph name="c" format="1">
  <advance width="600"/>
  <unicode hex="0063"/>
  <outline>
    <contour>
      <point x="286" y="-12" type="curve" smooth="yes"/>
      <point x="354" y="-12"/>
      <point x="432" y="22"/>
      <point x="484" y="70" type="curve"/>
      <point x="466" y="90" type="line"/>
      <point x="416" y="44"/>
      <point x="350" y="14"/>
      <point x="288" y="14" type="curve" smooth="yes"/>
      <point x="176" y="14"/>
      <point x="100" y="78"/>
      <point x="100" y="206" type="curve" smooth="yes"/>
      <point x="100" y="349"/>
      <point x="228" y="464"/>
      <point x="348" y="464" type="curve" smooth="yes"/>
      <point x="426" y="464"/>
      <point x="474" y="438"/>
      <point x="512" y="388" type="curve"/>
      <point x="534" y="406" type="line"/>
      <point x="500" y="452"/>
      <point x="440" y="490"/>
      <point x="358" y="490" type="curve" smooth="yes"/>
      <point x="212" y="490"/>
      <point x="72" y="372"/>
      <point x="72" y="200" type="curve" smooth="yes"/>
      <point x="72" y="60"/>
      <point x="160" y="-12"/>
    </contour>
    <contour>
      <point x="354" y="500" type="move" name="aboveLC"/>
    </contour>
    <contour>
      <point x="270" y="0" type="move" name="baseLC"/>
    </contour>
    <contour>
      <point x="266" y="-20" type="move" name="belowLC"/>
    </contour>
  </outline>
</glyph>
<glyph name="d" format="1">
  <advance width="600"/>
  <unicode hex="0064"/>
  <outline>
    <contour>
      <point x="236" y="-12" type="curve" smooth="yes"/>
      <point x="304" y="-12"/>
      <point x="372" y="26"/>
      <point x="426" y="78" type="curve"/>
      <point x="430" y="78" type="line"/>
      <point x="418" y="0" type="line"/>
      <point x="442" y="0" type="line"/>
      <point x="588" y="722" type="line"/>
      <point x="560" y="722" type="line"/>
      <point x="516" y="506" type="line"/>
      <point x="496" y="410" type="line"/>
      <point x="492" y="410" type="line"/>
      <point x="462" y="458"/>
      <point x="406" y="490"/>
      <point x="334" y="490" type="curve" smooth="yes"/>
      <point x="180" y="490"/>
      <point x="66" y="338"/>
      <point x="66" y="170" type="curve" smooth="yes"/>
      <point x="66" y="50"/>
      <point x="134" y="-12"/>
    </contour>
    <contour>
      <point x="238" y="14" type="curve" smooth="yes"/>
      <point x="150" y="14"/>
      <point x="94" y="66"/>
      <point x="94" y="176" type="curve" smooth="yes"/>
      <point x="94" y="320"/>
      <point x="196" y="464"/>
      <point x="332" y="464" type="curve" smooth="yes"/>
      <point x="392" y="464"/>
      <point x="446" y="438"/>
      <point x="490" y="372" type="curve"/>
      <point x="438" y="122" type="line"/>
      <point x="374" y="54"/>
      <point x="302" y="14"/>
    </contour>
    <contour>
      <point x="570" y="740" type="move" name="aboveUC"/>
    </contour>
    <contour>
      <point x="248" y="-20" type="move" name="belowLC"/>
    </contour>
  </outline>
</glyph>
<glyph name="f" format="1">
  <advance width="600"/>
  <unicode hex="0066"/>
  <outline>
    <contour>
      <point x="190" y="0" type="line"/>
      <point x="218" y="0" type="line"/>
      <point x="330" y="554" type="line" smooth="yes"/>
      <point x="352" y="664"/>
      <point x="412" y="708"/>
      <point x="494" y="708" type="curve" smooth="yes"/>
      <point x="536" y="708"/>
      <point x="573" y="692"/>
      <point x="604" y="666" type="curve"/>
      <point x="622" y="686" type="line"/>
      <point x="588" y="716"/>
      <point x="542" y="734"/>
      <point x="496" y="734" type="curve" smooth="yes"/>
      <point x="401" y="734"/>
      <point x="328" y="687"/>
      <point x="302" y="558" type="curve" smooth="yes"/>
    </contour>
    <contour>
      <point x="136" y="452" type="line"/>
      <point x="538" y="452" type="line"/>
      <point x="544" y="478" type="line"/>
      <point x="286" y="478" type="line"/>
      <point x="140" y="474" type="line"/>
    </contour>
    <contour>
      <point x="476" y="740" type="move" name="aboveUC"/>
    </contour>
    <contour>
      <point x="200" y="0" type="move" name="baseLC"/>
    </contour>
    <contour>
      <point x="210" y="-20" type="move" name="belowLC"/>
    </contour>
  </outline>
</glyph>
<glyph name="g" format="1">
  <advance width="600"/>
  <unicode hex="0067"/>
  <outline>
    <contour>
      <point x="196" y="-234" type="curve" smooth="yes"/>
      <point x="316" y="-234"/>
      <point x="408" y="-173"/>
      <point x="432" y="-52" type="curve" smooth="yes"/>
      <point x="538" y="478" type="line"/>
      <point x="514" y="478" type="line"/>
      <point x="496" y="410" type="line"/>
      <point x="492" y="410" type="line"/>
      <point x="462" y="458"/>
      <point x="406" y="490"/>
      <point x="334" y="490" type="curve" smooth="yes"/>
      <point x="180" y="490"/>
      <point x="66" y="340"/>
      <point x="66" y="174" type="curve" smooth="yes"/>
      <point x="66" y="56"/>
      <point x="134" y="-6"/>
      <point x="236" y="-6" type="curve" smooth="yes"/>
      <point x="304" y="-6"/>
      <point x="372" y="32"/>
      <point x="426" y="84" type="curve"/>
      <point x="430" y="84" type="line"/>
      <point x="406" y="-42" type="line" smooth="yes"/>
      <point x="386" y="-149"/>
      <point x="308" y="-208"/>
      <point x="200" y="-208" type="curve" smooth="yes"/>
      <point x="144" y="-208"/>
      <point x="84" y="-190"/>
      <point x="44" y="-156" type="curve"/>
      <point x="26" y="-178" type="line"/>
      <point x="66" y="-210"/>
      <point x="124" y="-234"/>
    </contour>
    <contour>
      <point x="238" y="20" type="curve" smooth="yes"/>
      <point x="150" y="20"/>
      <point x="94" y="72"/>
      <point x="94" y="180" type="curve" smooth="yes"/>
      <point x="94" y="322"/>
      <point x="196" y="464"/>
      <point x="332" y="464" type="curve" smooth="yes"/>
      <point x="392" y="464"/>
      <point x="446" y="438"/>
      <point x="490" y="372" type="curve"/>
      <point x="438" y="128" type="line"/>
      <point x="374" y="60"/>
      <point x="302" y="20"/>
    </contour>
    <contour>
      <point x="358" y="500" type="move" name="aboveLC"/>
    </contour>
    <contour>
      <point x="220" y="-230" type="move" name="belowLC"/>
    </contour>
  </outline>
</glyph>
<glyph name="h" format="1">
  <advance width="600"/>
  <unicode hex="0068"/>
  <outline>
    <contour>
      <point x="52" y="0" type="line"/>
      <point x="80" y="0" type="line"/>
      <point x="146" y="324" type="line"/>
      <point x="228" y="410"/>
      <point x="308" y="464"/>
      <point x="392" y="464" type="curve" smooth="yes"/>
      <point x="456" y="464"/>
      <point x="490" y="430"/>
      <point x="490" y="370" type="curve" smooth="yes"/>
      <point x="490" y="342"/>
      <point x="486" y="318"/>
      <point x="480" y="288" type="curve" smooth="yes"/>
      <point x="422" y="0" type="line"/>
      <point x="450" y="0" type="line"/>
      <point x="508" y="290" type="line" smooth="yes"/>
      <point x="514" y="318"/>
      <point x="518" y="342"/>
      <point x="518" y="374" type="curve" smooth="yes"/>
      <point x="518" y="440"/>
      <point x="484" y="490"/>
      <point x="396" y="490" type="curve" smooth="yes"/>
      <point x="296" y="490"/>
      <point x="224" y="432"/>
      <point x="156" y="368" type="curve"/>
      <point x="152" y="368" type="line"/>
      <point x="162" y="414" type="line"/>
      <point x="224" y="722" type="line"/>
      <point x="196" y="722" type="line"/>
    </contour>
    <contour>
      <point x="210" y="740" type="move" name="aboveUC"/>
    </contour>
    <contour>
      <point x="66" y="0" type="move" name="baseLC"/>
    </contour>
    <contour>
      <point x="258" y="-20" type="move" name="belowLC"/>
    </contour>
  </outline>
</glyph>
<glyph name="i" format="1">
  <advance width="600"/>
  <unicode hex="0069"/>
  <outline>
    <contour>
      <point x="380" y="0" type="move" name="ogonekLC"/>
    </contour>
    <contour>
      <point x="290" y="672" type="move" name="aboveLC"/>
    </contour>
    <contour>
      <point x="350" y="-22" type="move" name="belowLC"/>
    </contour>
    <component base="dotaccentcmb" xOffset="-18"/>
    <component base="dotlessi"/>
  </outline>
</glyph>
<glyph name="j" format="1">
  <advance width="600"/>
  <unicode hex="006A"/>
  <outline>
    <contour>
      <point x="290" y="672" type="move" name="aboveLC"/>
    </contour>
    <contour>
      <point x="173" y="-228" type="move" name="belowLC"/>
    </contour>
    <component base="dotlessj"/>
    <component base="dotaccentcmb" xOffset="52"/>
  </outline>
</glyph>
<glyph name="k" format="1">
  <advance width="600"/>
  <unicode hex="006B"/>
  <outline>
    <contour>
      <point x="72" y="0" type="line"/>
      <point x="100" y="0" type="line"/>
      <point x="128" y="136" type="line"/>
      <point x="322" y="284" type="line"/>
      <point x="566" y="478" type="line"/>
      <point x="526" y="478" type="line"/>
      <point x="140" y="176" type="line"/>
      <point x="136" y="176" type="line"/>
      <point x="244" y="722" type="line"/>
      <point x="216" y="722" type="line"/>
    </contour>
    <contour>
      <point x="307" y="280" type="line"/>
      <point x="464" y="0" type="line"/>
      <point x="496" y="0" type="line"/>
      <point x="330" y="296" type="line"/>
    </contour>
    <contour>
      <point x="228" y="740" type="move" name="aboveUC"/>
    </contour>
    <contour>
      <point x="284" y="-20" type="move" name="belowLC"/>
    </contour>
  </outline>
</glyph>
<glyph name="l" format="1">
  <advance width="600"/>
  <unicode hex="006C"/>
  <outline>
    <contour>
      <point x="324" y="-12" type="curve" smooth="yes"/>
      <point x="366" y="-12"/>
      <point x="408" y="0"/>
      <point x="445" y="20" type="curve"/>
      <point x="434" y="44" type="line"/>
      <point x="396" y="24"/>
      <point x="362" y="14"/>
      <point x="328" y="14" type="curve" smooth="yes"/>
      <point x="274" y="14"/>
      <point x="242" y="40"/>
      <point x="242" y="100" type="curve" smooth="yes"/>
      <point x="242" y="114"/>
      <point x="244" y="132"/>
      <point x="248" y="150" type="curve" smooth="yes"/>
      <point x="362" y="722" type="line"/>
      <point x="158" y="722" type="line"/>
      <point x="152" y="696" type="line"/>
      <point x="330" y="696" type="line"/>
      <point x="218" y="142" type="line" smooth="yes"/>
      <point x="214" y="124"/>
      <point x="212" y="110"/>
      <point x="212" y="96" type="curve" smooth="yes"/>
      <point x="212" y="22"/>
      <point x="260" y="-12"/>
    </contour>
    <contour>
      <point x="344" y="740" type="move" name="aboveUC"/>
    </contour>
    <contour>
      <point x="286" y="400" type="move" name="center"/>
    </contour>
    <contour>
      <point x="330" y="0" type="move" name="baseLC"/>
    </contour>
    <contour>
      <point x="330" y="-20" type="move" name="belowLC"/>
    </contour>
  </outline>
</glyph>
<glyph name="m" format="1">
  <advance width="600"/>
  <unicode hex="006D"/>
  <outline>
    <contour>
      <point x="16" y="0" type="line"/>
      <point x="44" y="0" type="line"/>
      <point x="116" y="362" type="line"/>
      <point x="166" y="430"/>
      <point x="207" y="464"/>
      <point x="256" y="464" type="curve" smooth="yes"/>
      <point x="290" y="464"/>
      <point x="308" y="446"/>
      <point x="308" y="402" type="curve" smooth="yes"/>
      <point x="308" y="388"/>
      <point x="306" y="372"/>
      <point x="302" y="352" type="curve" smooth="yes"/>
      <point x="232" y="0" type="line"/>
      <point x="260" y="0" type="line"/>
      <point x="332" y="362" type="line"/>
      <point x="380" y="430"/>
      <point x="424" y="464"/>
      <point x="473" y="464" type="curve" smooth="yes"/>
      <point x="506" y="464"/>
      <point x="524" y="446"/>
      <point x="524" y="402" type="curve" smooth="yes"/>
      <point x="524" y="388"/>
      <point x="522" y="372"/>
      <point x="518" y="352" type="curve" smooth="yes"/>
      <point x="448" y="0" type="line"/>
      <point x="476" y="0" type="line"/>
      <point x="545" y="350" type="line" smooth="yes"/>
      <point x="550" y="376"/>
      <point x="552" y="392"/>
      <point x="552" y="408" type="curve" smooth="yes"/>
      <point x="552" y="466"/>
      <point x="524" y="490"/>
      <point x="478" y="490" type="curve" smooth="yes"/>
      <point x="436" y="490"/>
      <point x="384" y="466"/>
      <point x="324" y="390" type="curve"/>
      <point x="336" y="404" type="line"/>
      <point x="336" y="466"/>
      <point x="308" y="490"/>
      <point x="262" y="490" type="curve" smooth="yes"/>
      <point x="218" y="490"/>
      <point x="174" y="466"/>
      <point x="128" y="410" type="curve"/>
      <point x="126" y="410" type="line"/>
      <point x="136" y="478" type="line"/>
      <point x="112" y="478" type="line"/>
    </contour>
    <contour>
      <point x="350" y="498" type="move" name="aboveLC"/>
    </contour>
    <contour>
      <point x="458" y="0" type="move" name="baseLC"/>
    </contour>
    <contour>
      <point x="240" y="-20" type="move" name="belowLC"/>
    </contour>
  </outline>
</glyph>
<glyph name="q" format="1">
  <advance width="600"/>
  <unicode hex="0071"/>
  <outline>
    <contour>
      <point x="370" y="-222" type="line"/>
      <point x="398" y="-222" type="line"/>
      <point x="538" y="478" type="line"/>
      <point x="514" y="478" type="line"/>
      <point x="496" y="410" type="line"/>
      <point x="492" y="410" type="line"/>
      <point x="462" y="458"/>
      <point x="406" y="490"/>
      <point x="334" y="490" type="curve" smooth="yes"/>
      <point x="180" y="490"/>
      <point x="66" y="338"/>
      <point x="66" y="170" type="curve" smooth="yes"/>
      <point x="66" y="50"/>
      <point x="134" y="-12"/>
      <point x="236" y="-12" type="curve" smooth="yes"/>
      <point x="304" y="-12"/>
      <point x="372" y="26"/>
      <point x="426" y="78" type="curve"/>
      <point x="430" y="78" type="line"/>
      <point x="406" y="-42" type="line" smooth="yes"/>
    </contour>
    <contour>
      <point x="238" y="14" type="curve" smooth="yes"/>
      <point x="150" y="14"/>
      <point x="94" y="66"/>
      <point x="94" y="176" type="curve" smooth="yes"/>
      <point x="94" y="320"/>
      <point x="196" y="464"/>
      <point x="332" y="464" type="curve" smooth="yes"/>
      <point x="392" y="464"/>
      <point x="446" y="438"/>
      <point x="490" y="372" type="curve"/>
      <point x="438" y="122" type="line"/>
      <point x="374" y="54"/>
      <point x="302" y="14"/>
    </contour>
    <contour>
      <point x="358" y="500" type="move" name="aboveLC"/>
    </contour>
    <contour>
      <point x="380" y="-230" type="move" name="belowLC"/>
    </contour>
  </outline>
</glyph>
<glyph name="r" format="1">
  <advance width="600"/>
  <unicode hex="0072"/>
  <outline>
    <contour>
      <point x="116" y="0" type="line"/>
      <point x="144" y="0" type="line"/>
      <point x="200" y="280" type="line"/>
      <point x="274" y="386"/>
      <point x="356" y="462"/>
      <point x="439" y="462" type="curve" smooth="yes"/>
      <point x="474" y="462"/>
      <point x="498" y="456"/>
      <point x="524" y="438" type="curve"/>
      <point x="540" y="462" type="line"/>
      <point x="514" y="480"/>
      <point x="484" y="490"/>
      <point x="442" y="490" type="curve" smooth="yes"/>
      <point x="350" y="490"/>
      <point x="270" y="412"/>
      <point x="214" y="334" type="curve"/>
      <point x="210" y="334" type="line"/>
      <point x="236" y="478" type="line"/>
      <point x="212" y="478" type="line"/>
    </contour>
    <contour>
      <point x="374" y="500" type="move" name="aboveLC"/>
    </contour>
    <contour>
      <point x="130" y="0" type="move" name="baseLC"/>
    </contour>
    <contour>
      <point x="130" y="-20" type="move" name="belowLC"/>
    </contour>
  </outline>
</glyph>
<glyph name="s" format="1">
  <advance width="600"/>
  <unicode hex="0073"/>
  <outline>
    <contour>
      <point x="330" y="500" type="move" name="aboveLC"/>
    </contour>
    <contour>
      <point x="262" y="0" type="move" name="baseLC"/>
    </contour>
    <contour>
      <point x="258" y="-22" type="move" name="belowLC"/>
    </contour>
    <contour>
      <point x="273" y="-12" type="curve" smooth="yes"/>
      <point x="377" y="-12"/>
      <point x="462" y="24"/>
      <point x="462" y="122" type="curve" smooth="yes"/>
      <point x="462" y="200"/>
      <point x="395" y="228"/>
      <point x="303" y="259" type="curve" smooth="yes"/>
      <point x="224" y="286"/>
      <point x="170" y="312"/>
      <point x="170" y="372" type="curve" smooth="yes"/>
      <point x="170" y="428"/>
      <point x="218" y="464"/>
      <point x="300" y="464" type="curve" smooth="yes"/>
      <point x="385" y="464"/>
      <point x="442" y="428"/>
      <point x="482" y="392" type="curve"/>
      <point x="500" y="412" type="line"/>
      <point x="462" y="450"/>
      <point x="392" y="490"/>
      <point x="302" y="490" type="curve" smooth="yes"/>
      <point x="212" y="490"/>
      <point x="142" y="452"/>
      <point x="142" y="370" type="curve" smooth="yes"/>
      <point x="142" y="308"/>
      <point x="180" y="270"/>
      <point x="281" y="235" type="curve" smooth="yes"/>
      <point x="369" y="205"/>
      <point x="434" y="182"/>
      <point x="434" y="120" type="curve" smooth="yes"/>
      <point x="434" y="45"/>
      <point x="366" y="14"/>
      <point x="280" y="14" type="curve" smooth="yes"/>
      <point x="204" y="14"/>
      <point x="132" y="40"/>
      <point x="88" y="94" type="curve"/>
      <point x="68" y="76" type="line"/>
      <point x="110" y="22"/>
      <point x="196" y="-12"/>
    </contour>
  </outline>
</glyph>
<glyph name="w" format="1">
  <advance width="600"/>
  <unicode hex="0077"/>
  <outline>
    <contour>
      <point x="80" y="0" type="line"/>
      <point x="120" y="0" type="line"/>
      <point x="264" y="314" type="line" smooth="yes"/>
      <point x="283" y="356"/>
      <point x="304" y="404"/>
      <point x="325" y="450" type="curve"/>
      <point x="327" y="450" type="line"/>
      <point x="331" y="404"/>
      <point x="332" y="362"/>
      <point x="335" y="316" type="curve" smooth="yes"/>
      <point x="355" y="0" type="line"/>
      <point x="396" y="0" type="line"/>
      <point x="619" y="478" type="line"/>
      <point x="587" y="478" type="line"/>
      <point x="439" y="153" type="line" smooth="yes"/>
      <point x="419" y="109"/>
      <point x="401" y="69"/>
      <point x="382" y="27" type="curve"/>
      <point x="378" y="27" type="line"/>
      <point x="376" y="69"/>
      <point x="374" y="109"/>
      <point x="371" y="153" type="curve" smooth="yes"/>
      <point x="351" y="478" type="line"/>
      <point x="311" y="478" type="line"/>
      <point x="163" y="153" type="line" smooth="yes"/>
      <point x="143" y="109"/>
      <point x="125" y="68"/>
      <point x="106" y="27" type="curve"/>
      <point x="102" y="27" type="line"/>
      <point x="101" y="69"/>
      <point x="99" y="110"/>
      <point x="96" y="154" type="curve" smooth="yes"/>
      <point x="76" y="478" type="line"/>
      <point x="46" y="478" type="line"/>
    </contour>
    <contour>
      <point x="330" y="500" type="move" name="aboveLC"/>
    </contour>
    <contour>
      <point x="240" y="-20" type="move" name="belowLC"/>
    </contour>
  </outline>
</glyph>
<glyph name="x" format="1">
  <advance width="600"/>
  <unicode hex="0078"/>
  <outline>
    <contour>
      <point x="330" y="500" type="move" name="aboveLC"/>
    </contour>
    <contour>
      <point x="240" y="-22" type="move" name="belowLC"/>
    </contour>
    <contour>
      <point x="30" y="0" type="line"/>
      <point x="69" y="0" type="line"/>
      <point x="209" y="147" type="line"/>
      <point x="281" y="227" type="line"/>
      <point x="286" y="227" type="line"/>
      <point x="335" y="139" type="line"/>
      <point x="416" y="0" type="line"/>
      <point x="450" y="0" type="line"/>
      <point x="303" y="245" type="line"/>
      <point x="530" y="478" type="line"/>
      <point x="491" y="478" type="line"/>
      <point x="366" y="348" type="line"/>
      <point x="292" y="265" type="line"/>
      <point x="288" y="265" type="line"/>
      <point x="245" y="348" type="line"/>
      <point x="172" y="478" type="line"/>
      <point x="139" y="478" type="line"/>
      <point x="271" y="250" type="line"/>
    </contour>
  </outline>
</glyph>
<glyph name="y" format="1">
  <advance width="600"/>
  <unicode hex="0079"/>
  <outline>
    <contour>
      <point x="24" y="-222" type="curve" smooth="yes"/>
      <point x="110" y="-222"/>
      <point x="148" y="-176"/>
      <point x="208" y="-82" type="curve" smooth="yes"/>
      <point x="566" y="478" type="line"/>
      <point x="534" y="478" type="line"/>
      <point x="334" y="160" type="line" smooth="yes"/>
      <point x="310" y="122"/>
      <point x="274" y="64"/>
      <point x="248" y="20" type="curve"/>
      <point x="244" y="20" type="line"/>
      <point x="234" y="64"/>
      <point x="220" y="122"/>
      <point x="210" y="160" type="curve" smooth="yes"/>
      <point x="128" y="478" type="line"/>
      <point x="100" y="478" type="line"/>
      <point x="228" y="-6" type="line"/>
      <point x="188" y="-68" type="line" smooth="yes"/>
      <point x="126" y="-164"/>
      <point x="92" y="-196"/>
      <point x="26" y="-196" type="curve" smooth="yes"/>
      <point x="4" y="-196"/>
      <point x="-12" y="-192"/>
      <point x="-28" y="-184" type="curve"/>
      <point x="-40" y="-208" type="line"/>
      <point x="-20" y="-218"/>
      <point x="-2" y="-222"/>
    </contour>
    <contour>
      <point x="170" y="-120" type="move" name="ogonekLC"/>
    </contour>
    <contour>
      <point x="330" y="500" type="move" name="aboveLC"/>
    </contour>
    <contour>
      <point x="186" y="-230" type="move" name="belowLC"/>
    </contour>
  </outline>
</glyph>
<glyph name="bar" format="1">
  <advance width="600"/>
  <unicode hex="007C"/>
  <outline>
    <contour>
      <point x="286" y="-250" type="line"/>
      <point x="314" y="-250" type="line"/>
      <point x="314" y="750" type="line"/>
      <point x="286" y="750" type="line"/>
    </contour>
  </outline>
</glyph>
<glyph name="cent" format="1">
  <advance width="600"/>
  <unicode hex="00A2"/>
  <outline>
    <contour>
      <point x="287" y="85" type="curve" smooth="yes"/>
      <point x="349" y="85"/>
      <point x="408" y="113"/>
      <point x="453" y="150" type="curve"/>
      <point x="438" y="170" type="line"/>
      <point x="397" y="137"/>
      <point x="345" y="111"/>
      <point x="290" y="111" type="curve" smooth="yes"/>
      <point x="197" y="111"/>
      <point x="143" y="173"/>
      <point x="143" y="272" type="curve" smooth="yes"/>
      <point x="143" y="413"/>
      <point x="244" y="514"/>
      <point x="375" y="514" type="curve" smooth="yes"/>
      <point x="427" y="514"/>
      <point x="455" y="494"/>
      <point x="483" y="462" type="curve"/>
      <point x="503" y="480" type="line"/>
      <point x="478" y="508"/>
      <point x="440" y="539"/>
      <point x="380" y="539" type="curve" smooth="yes"/>
      <point x="239" y="539"/>
      <point x="113" y="439"/>
      <point x="113" y="266" type="curve" smooth="yes"/>
      <point x="113" y="153"/>
      <point x="183" y="85"/>
    </contour>
    <contour>
      <point x="234" y="-26" type="line"/>
      <point x="261" y="-26" type="line"/>
      <point x="399" y="652" type="line"/>
      <point x="373" y="652" type="line"/>
    </contour>
  </outline>
</glyph>
<glyph name="sterling" format="1">
  <advance width="600"/>
  <unicode hex="00A3"/>
  <outline>
    <contour>
      <point x="28" y="0" type="line"/>
      <point x="455" y="0" type="line"/>
      <point x="462" y="25" type="line"/>
      <point x="100" y="25" type="line"/>
      <point x="100" y="30" type="line"/>
      <point x="187" y="79"/>
      <point x="233" y="151"/>
      <point x="232" y="254" type="curve" smooth="yes"/>
      <point x="231" y="319"/>
      <point x="217" y="396"/>
      <point x="217" y="455" type="curve" smooth="yes"/>
      <point x="217" y="568"/>
      <point x="284" y="628"/>
      <point x="385" y="628" type="curve" smooth="yes"/>
      <point x="451" y="628"/>
      <point x="491" y="595"/>
      <point x="519" y="548" type="curve"/>
      <point x="541" y="563" type="line"/>
      <point x="511" y="611"/>
      <point x="466" y="652"/>
      <point x="386" y="652" type="curve" smooth="yes"/>
      <point x="270" y="652"/>
      <point x="190" y="584"/>
      <point x="190" y="451" type="curve" smooth="yes"/>
      <point x="190" y="391"/>
      <point x="205" y="310"/>
      <point x="205" y="247" type="curve" smooth="yes"/>
      <point x="205" y="157"/>
      <point x="161" y="74"/>
      <point x="31" y="16" type="curve"/>
    </contour>
    <contour>
      <point x="82" y="300" type="line"/>
      <point x="429" y="300" type="line"/>
      <point x="434" y="323" type="line"/>
      <point x="204" y="323" type="line"/>
      <point x="87" y="320" type="line"/>
    </contour>
  </outline>
</glyph>
<glyph name="currency" format="1">
  <advance width="600"/>
  <unicode hex="00A4"/>
  <outline>
    <contour>
      <point x="57" y="97" type="line"/>
      <point x="157" y="183" type="line"/>
      <point x="184" y="152"/>
      <point x="224" y="138"/>
      <point x="264" y="138" type="curve" smooth="yes"/>
      <point x="314" y="138"/>
      <point x="359" y="155"/>
      <point x="396" y="183" type="curve"/>
      <point x="465" y="91" type="line"/>
      <point x="488" y="112" type="line"/>
      <point x="419" y="204" type="line"/>
      <point x="458" y="244"/>
      <point x="482" y="301"/>
      <point x="482" y="364" type="curve" smooth="yes"/>
      <point x="482" y="399"/>
      <point x="475" y="428"/>
      <point x="463" y="451" type="curve"/>
      <point x="568" y="540" type="line"/>
      <point x="550" y="563" type="line"/>
      <point x="446" y="475" type="line"/>
      <point x="419" y="506"/>
      <point x="380" y="520"/>
      <point x="341" y="520" type="curve" smooth="yes"/>
      <point x="293" y="520"/>
      <point x="248" y="503"/>
      <point x="211" y="475" type="curve"/>
      <point x="145" y="561" type="line"/>
      <point x="122" y="540" type="line"/>
      <point x="188" y="454" type="line"/>
      <point x="148" y="414"/>
      <point x="123" y="357"/>
      <point x="123" y="292" type="curve" smooth="yes"/>
      <point x="123" y="258"/>
      <point x="130" y="230"/>
      <point x="141" y="207" type="curve"/>
      <point x="38" y="120" type="line"/>
    </contour>
    <contour>
      <point x="269" y="166" type="curve" smooth="yes"/>
      <point x="192" y="166"/>
      <point x="153" y="218"/>
      <point x="153" y="296" type="curve" smooth="yes"/>
      <point x="153" y="408"/>
      <point x="245" y="493"/>
      <point x="337" y="493" type="curve" smooth="yes"/>
      <point x="408" y="493"/>
      <point x="452" y="442"/>
      <point x="452" y="360" type="curve" smooth="yes"/>
      <point x="452" y="247"/>
      <point x="362" y="166"/>
    </contour>
  </outline>
</glyph>
<glyph name="yen" format="1">
  <advance width="600"/>
  <unicode hex="00A5"/>
  <outline>
    <contour>
      <point x="226" y="0" type="line"/>
      <point x="253" y="0" type="line"/>
      <point x="307" y="277" type="line"/>
      <point x="593" y="640" type="line"/>
      <point x="560" y="640" type="line"/>
      <point x="403" y="436" type="line" smooth="yes"/>
      <point x="368" y="391"/>
      <point x="333" y="346"/>
      <point x="299" y="298" type="curve"/>
      <point x="296" y="298" type="line"/>
      <point x="279" y="348"/>
      <point x="261" y="392"/>
      <point x="245" y="436" type="curve" smooth="yes"/>
      <point x="170" y="640" type="line"/>
      <point x="141" y="640" type="line"/>
      <point x="280" y="279" type="line"/>
    </contour>
    <contour>
      <point x="66" y="173" type="line"/>
      <point x="480" y="173" type="line"/>
      <point x="486" y="195" type="line"/>
      <point x="71" y="195" type="line"/>
    </contour>
    <contour>
      <point x="86" y="275" type="line"/>
      <point x="501" y="275" type="line"/>
      <point x="506" y="297" type="line"/>
      <point x="92" y="297" type="line"/>
    </contour>
  </outline>
</glyph>
<glyph name="brokenbar" format="1">
  <advance width="600"/>
  <unicode hex="00A6"/>
  <outline>
    <contour>
      <point x="286" y="-250" type="line"/>
      <point x="314" y="-250" type="line"/>
      <point x="314" y="222" type="line"/>
      <point x="286" y="222" type="line"/>
    </contour>
    <contour>
      <point x="286" y="273" type="line"/>
      <point x="314" y="273" type="line"/>
      <point x="314" y="750" type="line"/>
      <point x="286" y="750" type="line"/>
    </contour>
  </outline>
</glyph>
<glyph name="section" format="1">
  <advance width="600"/>
  <unicode hex="00A7"/>
  <outline>
    <contour>
      <point x="238" y="-44" type="curve" smooth="yes"/>
      <point x="318" y="-44"/>
      <point x="383" y="5"/>
      <point x="383" y="84" type="curve" smooth="yes"/>
      <point x="383" y="157"/>
      <point x="334" y="189"/>
      <point x="258" y="231" type="curve" smooth="yes"/>
      <point x="187" y="270"/>
      <point x="157" y="300"/>
      <point x="157" y="357" type="curve" smooth="yes"/>
      <point x="157" y="423"/>
      <point x="208" y="454"/>
      <point x="271" y="480" type="curve"/>
      <point x="263" y="501" type="line"/>
      <point x="192" y="475"/>
      <point x="129" y="433"/>
      <point x="129" y="351" type="curve" smooth="yes"/>
      <point x="129" y="283"/>
      <point x="177" y="243"/>
      <point x="245" y="206" type="curve" smooth="yes"/>
      <point x="305" y="173"/>
      <point x="355" y="145"/>
      <point x="355" y="81" type="curve" smooth="yes"/>
      <point x="355" y="21"/>
      <point x="300" y="-18"/>
      <point x="240" y="-18" type="curve" smooth="yes"/>
      <point x="192" y="-18"/>
      <point x="146" y="8"/>
      <point x="110" y="50" type="curve"/>
      <point x="90" y="28" type="line"/>
      <point x="132" y="-16"/>
      <point x="182" y="-44"/>
    </contour>
    <contour>
      <point x="343" y="142" type="line"/>
      <point x="423" y="170"/>
      <point x="476" y="201"/>
      <point x="476" y="289" type="curve" smooth="yes"/>
      <point x="476" y="367"/>
      <point x="413" y="408"/>
      <point x="356" y="442" type="curve" smooth="yes"/>
      <point x="299" y="476"/>
      <point x="254" y="504"/>
      <point x="254" y="564" type="curve" smooth="yes"/>
      <point x="254" y="622"/>
      <point x="299" y="654"/>
      <point x="355" y="654" type="curve" smooth="yes"/>
      <point x="403" y="654"/>
      <point x="437" y="628"/>
      <point x="467" y="590" type="curve"/>
      <point x="489" y="608" type="line"/>
      <point x="456" y="646"/>
      <point x="415" y="680"/>
      <point x="357" y="680" type="curve" smooth="yes"/>
      <point x="285" y="680"/>
      <point x="225" y="636"/>
      <point x="225" y="564" type="curve" smooth="yes"/>
      <point x="225" y="486"/>
      <point x="274" y="459"/>
      <point x="342" y="418" type="curve" smooth="yes"/>
      <point x="398" y="384"/>
      <point x="447" y="350"/>
      <point x="447" y="284" type="curve" smooth="yes"/>
      <point x="447" y="212"/>
      <point x="401" y="186"/>
      <point x="333" y="164" type="curve"/>
    </contour>
  </outline>
</glyph>
<glyph name="copyright" format="1">
  <advance width="600"/>
  <unicode hex="00A9"/>
  <outline>
    <contour>
      <point x="236" y="-12" type="curve" smooth="yes"/>
      <point x="428" y="-12"/>
      <point x="573" y="165"/>
      <point x="573" y="402" type="curve" smooth="yes"/>
      <point x="573" y="554"/>
      <point x="496" y="652"/>
      <point x="369" y="652" type="curve" smooth="yes"/>
      <point x="177" y="652"/>
      <point x="33" y="479"/>
      <point x="33" y="241" type="curve" smooth="yes"/>
      <point x="33" y="88"/>
      <point x="109" y="-12"/>
    </contour>
    <contour>
      <point x="241" y="15" type="curve" smooth="yes"/>
      <point x="128" y="15"/>
      <point x="63" y="106"/>
      <point x="63" y="244" type="curve" smooth="yes"/>
      <point x="63" y="462"/>
      <point x="196" y="625"/>
      <point x="364" y="625" type="curve" smooth="yes"/>
      <point x="477" y="625"/>
      <point x="543" y="536"/>
      <point x="543" y="398" type="curve" smooth="yes"/>
      <point x="543" y="182"/>
      <point x="409" y="15"/>
    </contour>
    <contour>
      <point x="280" y="130" type="curve" smooth="yes"/>
      <point x="328" y="130"/>
      <point x="372" y="152"/>
      <point x="405" y="183" type="curve"/>
      <point x="388" y="203" type="line"/>
      <point x="358" y="176"/>
      <point x="328" y="158"/>
      <point x="284" y="158" type="curve" smooth="yes"/>
      <point x="224" y="158"/>
      <point x="192" y="206"/>
      <point x="192" y="282" type="curve" smooth="yes"/>
      <point x="192" y="403"/>
      <point x="277" y="487"/>
      <point x="351" y="487" type="curve" smooth="yes"/>
      <point x="387" y="487"/>
      <point x="406" y="475"/>
      <point x="429" y="444" type="curve"/>
      <point x="449" y="461" type="line"/>
      <point x="428" y="491"/>
      <point x="400" y="513"/>
      <point x="356" y="513" type="curve" smooth="yes"/>
      <point x="260" y="513"/>
      <point x="161" y="425"/>
      <point x="161" y="280" type="curve" smooth="yes"/>
      <point x="161" y="185"/>
      <point x="210" y="130"/>
    </contour>
  </outline>
</glyph>
<glyph name="logicalnot" format="1">
  <advance width="600"/>
  <unicode hex="00AC"/>
  <outline>
    <contour>
      <point x="469" y="110" type="line"/>
      <point x="497" y="110" type="line"/>
      <point x="497" y="344" type="line"/>
      <point x="109" y="344" type="line"/>
      <point x="109" y="318" type="line"/>
      <point x="469" y="318" type="line"/>
    </contour>
  </outline>
</glyph>
<glyph name="registered" format="1">
  <advance width="600"/>
  <unicode hex="00AE"/>
  <outline>
    <contour>
      <point x="313" y="326" type="curve" smooth="yes"/>
      <point x="442" y="326"/>
      <point x="534" y="420"/>
      <point x="534" y="555" type="curve" smooth="yes"/>
      <point x="534" y="649"/>
      <point x="473" y="712"/>
      <point x="389" y="712" type="curve" smooth="yes"/>
      <point x="264" y="712"/>
      <point x="166" y="616"/>
      <point x="166" y="482" type="curve" smooth="yes"/>
      <point x="166" y="389"/>
      <point x="228" y="326"/>
    </contour>
    <contour>
      <point x="318" y="351" type="curve" smooth="yes"/>
      <point x="244" y="351"/>
      <point x="192" y="402"/>
      <point x="192" y="487" type="curve" smooth="yes"/>
      <point x="192" y="599"/>
      <point x="279" y="688"/>
      <point x="384" y="688" type="curve" smooth="yes"/>
      <point x="457" y="688"/>
      <point x="508" y="637"/>
      <point x="508" y="549" type="curve" smooth="yes"/>
      <point x="508" y="437"/>
      <point x="427" y="351"/>
    </contour>
    <contour>
      <point x="265" y="418" type="line"/>
      <point x="292" y="418" type="line"/>
      <point x="329" y="610" type="line"/>
      <point x="323" y="604" type="line"/>
      <point x="364" y="604" type="line" smooth="yes"/>
      <point x="396" y="604"/>
      <point x="407" y="590"/>
      <point x="407" y="569" type="curve" smooth="yes"/>
      <point x="407" y="534"/>
      <point x="383" y="518"/>
      <point x="343" y="518" type="curve" smooth="yes"/>
      <point x="302" y="518" type="line"/>
      <point x="294" y="496" type="line"/>
      <point x="346" y="496" type="line" smooth="yes"/>
      <point x="401" y="496"/>
      <point x="435" y="526"/>
      <point x="435" y="570" type="curve" smooth="yes"/>
      <point x="435" y="614"/>
      <point x="404" y="626"/>
      <point x="371" y="626" type="curve" smooth="yes"/>
      <point x="306" y="626" type="line"/>
    </contour>
    <contour>
      <point x="353" y="500" type="line"/>
      <point x="385" y="418" type="line"/>
      <point x="416" y="418" type="line"/>
      <point x="378" y="505" type="line"/>
    </contour>
  </outline>
</glyph>
<glyph name="degree" format="1">
  <advance width="600"/>
  <unicode hex="00B0"/>
  <outline>
    <contour>
      <point x="327" y="455" type="curve" smooth="yes"/>
      <point x="399" y="455"/>
      <point x="462" y="506"/>
      <point x="462" y="591" type="curve" smooth="yes"/>
      <point x="462" y="652"/>
      <point x="421" y="684"/>
      <point x="373" y="684" type="curve" smooth="yes"/>
      <point x="303" y="684"/>
      <point x="238" y="633"/>
      <point x="238" y="548" type="curve" smooth="yes"/>
      <point x="238" y="488"/>
      <point x="279" y="455"/>
    </contour>
    <contour>
      <point x="332" y="480" type="curve" smooth="yes"/>
      <point x="289" y="480"/>
      <point x="266" y="511"/>
      <point x="266" y="552" type="curve" smooth="yes"/>
      <point x="266" y="611"/>
      <point x="311" y="659"/>
      <point x="368" y="659" type="curve" smooth="yes"/>
      <point x="411" y="659"/>
      <point x="434" y="629"/>
      <point x="434" y="587" type="curve" smooth="yes"/>
      <point x="434" y="528"/>
      <point x="388" y="480"/>
    </contour>
  </outline>
</glyph>
<glyph name="plusminus" format="1">
  <advance width="600"/>
  <unicode hex="00B1"/>
  <outline>
    <contour>
      <point x="290" y="110" type="line"/>
      <point x="316" y="110" type="line"/>
      <point x="316" y="318" type="line"/>
      <point x="498" y="318" type="line"/>
      <point x="498" y="344" type="line"/>
      <point x="316" y="344" type="line"/>
      <point x="316" y="546" type="line"/>
      <point x="290" y="546" type="line"/>
      <point x="290" y="344" type="line"/>
      <point x="108" y="344" type="line"/>
      <point x="108" y="318" type="line"/>
      <point x="290" y="318" type="line"/>
    </contour>
    <contour>
      <point x="108" y="0" type="line"/>
      <point x="496" y="0" type="line"/>
      <point x="496" y="26" type="line"/>
      <point x="108" y="26" type="line"/>
    </contour>
  </outline>
</glyph>
<glyph name="mu.math" format="1">
  <advance width="600"/>
  <unicode hex="00B5"/>
  <outline>
    <contour>
      <point x="7" y="-180" type="line"/>
      <point x="34" y="-180" type="line"/>
      <point x="47" y="-93"/>
      <point x="56" y="-56"/>
      <point x="80" y="64" type="curve"/>
      <point x="102" y="1"/>
      <point x="141" y="-12"/>
      <point x="194" y="-12" type="curve" smooth="yes"/>
      <point x="292" y="-12"/>
      <point x="364" y="46"/>
      <point x="430" y="110" type="curve"/>
      <point x="434" y="110" type="line"/>
      <point x="412" y="20"/>
      <point x="416" y="-12"/>
      <point x="458" y="-12" type="curve" smooth="yes"/>
      <point x="468" y="-12"/>
      <point x="475" y="-10"/>
      <point x="483" y="-8" type="curve"/>
      <point x="482" y="16" type="line"/>
      <point x="472" y="14"/>
      <point x="468" y="14"/>
      <point x="464" y="14" type="curve" smooth="yes"/>
      <point x="454" y="14"/>
      <point x="447" y="21"/>
      <point x="447" y="36" type="curve" smooth="yes"/>
      <point x="447" y="48"/>
      <point x="502" y="310"/>
      <point x="536" y="478" type="curve"/>
      <point x="508" y="478" type="line"/>
      <point x="442" y="154" type="line"/>
      <point x="360" y="68"/>
      <point x="280" y="14"/>
      <point x="196" y="14" type="curve" smooth="yes"/>
      <point x="104" y="14"/>
      <point x="86" y="79"/>
      <point x="107" y="183" type="curve" smooth="yes"/>
      <point x="165" y="478" type="line"/>
      <point x="138" y="478" type="line"/>
    </contour>
  </outline>
</glyph>
<glyph name="paragraph" format="1">
  <advance width="600"/>
  <unicode hex="00B6"/>
  <outline>
    <contour>
      <point x="333" y="248" type="curve" smooth="yes"/>
      <point x="351" y="248" type="line"/>
      <point x="435" y="660" type="line"/>
      <point x="367" y="660" type="line" smooth="yes"/>
      <point x="237" y="660"/>
      <point x="109" y="578"/>
      <point x="109" y="418" type="curve" smooth="yes"/>
      <point x="109" y="306"/>
      <point x="211" y="248"/>
    </contour>
    <contour>
      <point x="337" y="-80" type="line"/>
      <point x="365" y="-80" type="line"/>
      <point x="513" y="660" type="line"/>
      <point x="485" y="660" type="line"/>
    </contour>
  </outline>
</glyph>
<glyph name="Eth" format="1">
  <advance width="600"/>
  <unicode hex="00D0"/>
  <outline>
    <contour>
      <point x="313" y="338" type="line"/>
      <point x="319" y="364" type="line"/>
      <point x="119" y="364" type="line"/>
      <point x="49" y="362" type="line"/>
      <point x="43" y="338" type="line"/>
    </contour>
    <component base="D" xOffset="15"/>
  </outline>
</glyph>
<glyph name="multiply" format="1">
  <advance width="600"/>
  <unicode hex="00D7"/>
  <outline>
    <contour>
      <point x="146" y="148" type="line"/>
      <point x="304" y="314" type="line"/>
      <point x="462" y="148" type="line"/>
      <point x="480" y="166" type="line"/>
      <point x="322" y="332" type="line"/>
      <point x="480" y="496" type="line"/>
      <point x="462" y="514" type="line"/>
      <point x="304" y="350" type="line"/>
      <point x="146" y="514" type="line"/>
      <point x="128" y="496" type="line"/>
      <point x="286" y="332" type="line"/>
      <point x="128" y="166" type="line"/>
    </contour>
  </outline>
</glyph>
<glyph name="ae" format="1">
  <advance width="600"/>
  <unicode hex="00E6"/>
  <outline>
    <contour>
      <point x="77" y="-12" type="curve" smooth="yes"/>
      <point x="132" y="-12"/>
      <point x="208" y="19"/>
      <point x="275" y="96" type="curve"/>
      <point x="266" y="121" type="line"/>
      <point x="210" y="52"/>
      <point x="132" y="15"/>
      <point x="80" y="15" type="curve" smooth="yes"/>
      <point x="36" y="15"/>
      <point x="5" y="41"/>
      <point x="5" y="94" type="curve" smooth="yes"/>
      <point x="5" y="201"/>
      <point x="113" y="244"/>
      <point x="292" y="275" type="curve"/>
      <point x="293" y="300" type="line"/>
      <point x="93" y="270"/>
      <point x="-25" y="213"/>
      <point x="-25" y="91" type="curve" smooth="yes"/>
      <point x="-25" y="22"/>
      <point x="17" y="-12"/>
    </contour>
    <contour>
      <point x="290" y="239" type="line"/>
      <point x="585" y="239" type="line"/>
      <point x="591" y="259"/>
      <point x="602" y="294"/>
      <point x="602" y="345" type="curve" smooth="yes"/>
      <point x="602" y="425"/>
      <point x="569" y="490"/>
      <point x="492" y="490" type="curve" smooth="yes"/>
      <point x="425" y="490"/>
      <point x="357" y="448"/>
      <point x="315" y="366" type="curve"/>
      <point x="319" y="369" type="line"/>
      <point x="319" y="442"/>
      <point x="276" y="490"/>
      <point x="203" y="490" type="curve" smooth="yes"/>
      <point x="141" y="490"/>
      <point x="87" y="458"/>
      <point x="55" y="435" type="curve"/>
      <point x="69" y="413" type="line"/>
      <point x="98" y="435"/>
      <point x="149" y="465"/>
      <point x="199" y="465" type="curve" smooth="yes"/>
      <point x="282" y="465"/>
      <point x="308" y="396"/>
      <point x="282" y="298" type="curve" smooth="yes"/>
      <point x="259" y="212"/>
      <point x="262" y="180"/>
      <point x="262" y="145" type="curve" smooth="yes"/>
      <point x="262" y="81"/>
      <point x="294" y="-12"/>
      <point x="397" y="-12" type="curve" smooth="yes"/>
      <point x="454" y="-12"/>
      <point x="506" y="11"/>
      <point x="537" y="34" type="curve"/>
      <point x="524" y="56" type="line"/>
      <point x="487" y="31"/>
      <point x="449" y="13"/>
      <point x="403" y="13" type="curve" smooth="yes"/>
      <point x="325" y="13"/>
      <point x="290" y="76"/>
      <point x="290" y="161" type="curve" smooth="yes"/>
      <point x="290" y="316"/>
      <point x="377" y="464"/>
      <point x="488" y="464" type="curve" smooth="yes"/>
      <point x="547" y="464"/>
      <point x="573" y="419"/>
      <point x="573" y="344" type="curve" smooth="yes"/>
      <point x="573" y="318"/>
      <point x="569" y="289"/>
      <point x="563" y="260" type="curve"/>
      <point x="573" y="262" type="line"/>
      <point x="298" y="262" type="line"/>
    </contour>
    <contour>
      <point x="440" y="0" type="move" name="ogonekLC"/>
    </contour>
    <contour>
      <point x="340" y="500" type="move" name="aboveLC"/>
    </contour>
    <contour>
      <point x="400" y="0" type="move" name="baseLC"/>
    </contour>
    <contour>
      <point x="260" y="-20" type="move" name="belowLC"/>
    </contour>
  </outline>
</glyph>
<glyph name="eth" format="1">
  <advance width="600"/>
  <unicode hex="00F0"/>
  <outline>
    <contour>
      <point x="238" y="-12" type="curve" smooth="yes"/>
      <point x="419" y="-12"/>
      <point x="526" y="130"/>
      <point x="526" y="339" type="curve" smooth="yes"/>
      <point x="526" y="530"/>
      <point x="427" y="652"/>
      <point x="292" y="722" type="curve"/>
      <point x="277" y="698" type="line"/>
      <point x="396" y="639"/>
      <point x="497" y="528"/>
      <point x="497" y="341" type="curve" smooth="yes"/>
      <point x="497" y="169"/>
      <point x="414" y="14"/>
      <point x="243" y="14" type="curve" smooth="yes"/>
      <point x="147" y="14"/>
      <point x="79" y="81"/>
      <point x="79" y="182" type="curve" smooth="yes"/>
      <point x="79" y="295"/>
      <point x="165" y="414"/>
      <point x="325" y="414" type="curve" smooth="yes"/>
      <point x="391" y="414"/>
      <point x="468" y="381"/>
      <point x="509" y="299" type="curve"/>
      <point x="514" y="337" type="line"/>
      <point x="483" y="392"/>
      <point x="409" y="440"/>
      <point x="328" y="440" type="curve" smooth="yes"/>
      <point x="166" y="440"/>
      <point x="49" y="329"/>
      <point x="49" y="176" type="curve" smooth="yes"/>
      <point x="49" y="59"/>
      <point x="134" y="-12"/>
    </contour>
    <contour>
      <point x="246" y="521" type="line"/>
      <point x="577" y="678" type="line"/>
      <point x="569" y="699" type="line"/>
      <point x="237" y="542" type="line"/>
    </contour>
    <contour>
      <point x="436" y="740" type="move" name="aboveUC"/>
    </contour>
    <contour>
      <point x="234" y="-20" type="move" name="belowLC"/>
    </contour>
  </outline>
</glyph>
<glyph name="divide" format="1">
  <advance width="600"/>
  <unicode hex="00F7"/>
  <outline>
    <contour>
      <point x="303" y="478" type="curve" smooth="yes"/>
      <point x="321" y="478"/>
      <point x="333" y="494"/>
      <point x="333" y="512" type="curve" smooth="yes"/>
      <point x="333" y="530"/>
      <point x="321" y="544"/>
      <point x="303" y="544" type="curve" smooth="yes"/>
      <point x="285" y="544"/>
      <point x="273" y="530"/>
      <point x="273" y="512" type="curve" smooth="yes"/>
      <point x="273" y="494"/>
      <point x="285" y="478"/>
    </contour>
    <contour>
      <point x="303" y="114" type="curve" smooth="yes"/>
      <point x="321" y="114"/>
      <point x="333" y="130"/>
      <point x="333" y="148" type="curve" smooth="yes"/>
      <point x="333" y="166"/>
      <point x="321" y="180"/>
      <point x="303" y="180" type="curve" smooth="yes"/>
      <point x="285" y="180"/>
      <point x="273" y="166"/>
      <point x="273" y="148" type="curve" smooth="yes"/>
      <point x="273" y="130"/>
      <point x="285" y="114"/>
    </contour>
    <contour>
      <point x="109" y="318" type="line"/>
      <point x="497" y="318" type="line"/>
      <point x="497" y="344" type="line"/>
      <point x="109" y="344" type="line"/>
    </contour>
  </outline>
</glyph>
<glyph name="thorn" format="1">
  <advance width="600"/>
  <unicode hex="00FE"/>
  <outline>
    <contour>
      <point x="8" y="-222" type="line"/>
      <point x="36" y="-222" type="line"/>
      <point x="70" y="-42" type="line"/>
      <point x="92" y="68" type="line"/>
      <point x="96" y="68" type="line"/>
      <point x="130" y="22"/>
      <point x="188" y="-12"/>
      <point x="256" y="-12" type="curve" smooth="yes"/>
      <point x="415" y="-12"/>
      <point x="524" y="126"/>
      <point x="524" y="298" type="curve" smooth="yes"/>
      <point x="524" y="422"/>
      <point x="456" y="490"/>
      <point x="354" y="490" type="curve" smooth="yes"/>
      <point x="282" y="490"/>
      <point x="214" y="444"/>
      <point x="162" y="398" type="curve"/>
      <point x="158" y="398" type="line"/>
      <point x="180" y="506" type="line"/>
      <point x="224" y="722" type="line"/>
      <point x="196" y="722" type="line"/>
    </contour>
    <contour>
      <point x="258" y="14" type="curve" smooth="yes"/>
      <point x="200" y="14"/>
      <point x="146" y="36"/>
      <point x="100" y="102" type="curve"/>
      <point x="152" y="360" type="line"/>
      <point x="214" y="420"/>
      <point x="292" y="464"/>
      <point x="352" y="464" type="curve" smooth="yes"/>
      <point x="440" y="464"/>
      <point x="496" y="406"/>
      <point x="496" y="292" type="curve" smooth="yes"/>
      <point x="496" y="146"/>
      <point x="398" y="14"/>
    </contour>
    <contour>
      <point x="208" y="740" type="move" name="aboveUC"/>
    </contour>
    <contour>
      <point x="20" y="-230" type="move" name="belowLC"/>
    </contour>
  </outline>
</glyph>
<glyph name="Aogonek" format="1">
  <advance width="600"/>
  <unicode hex="0104"/>
  <outline>
    <contour>
      <point x="430" y="-224" type="curve" smooth="yes"/>
      <point x="462" y="-224"/>
      <point x="486" y="-212"/>
      <point x="504" y="-196" type="curve"/>
      <point x="492" y="-178" type="line"/>
      <point x="476" y="-190"/>
      <point x="458" y="-198"/>
      <point x="436" y="-198" type="curve" smooth="yes"/>
      <point x="400" y="-198"/>
      <point x="372" y="-182"/>
      <point x="372" y="-144" type="curve" smooth="yes"/>
      <point x="372" y="-94"/>
      <point x="428" y="-40"/>
      <point x="488" y="0" type="curve"/>
      <point x="396" y="660" type="line"/>
      <point x="366" y="660" type="line"/>
      <point x="-8" y="0" type="line"/>
      <point x="24" y="0" type="line"/>
      <point x="248" y="400" type="line" smooth="yes"/>
      <point x="290" y="478"/>
      <point x="328" y="548"/>
      <point x="372" y="627" type="curve"/>
      <point x="377" y="627" type="line"/>
      <point x="387" y="553"/>
      <point x="396" y="471"/>
      <point x="406" y="396" type="curve" smooth="yes"/>
      <point x="458" y="0" type="line"/>
      <point x="460" y="0" type="line"/>
      <point x="402" y="-34"/>
      <point x="344" y="-87"/>
      <point x="344" y="-152" type="curve" smooth="yes"/>
      <point x="344" y="-204"/>
      <point x="387" y="-224"/>
    </contour>
    <contour>
      <point x="150" y="238" type="line"/>
      <point x="437" y="238" type="line"/>
      <point x="438" y="264" type="line"/>
      <point x="158" y="264" type="line"/>
    </contour>
    <contour>
      <point x="374" y="680" type="move" name="aboveUC"/>
    </contour>
  </outline>
</glyph>
<glyph name="aogonek" format="1">
  <advance width="600"/>
  <unicode hex="0105"/>
  <outline>
    <contour>
      <point x="374" y="-224" type="curve" smooth="yes"/>
      <point x="406" y="-224"/>
      <point x="430" y="-212"/>
      <point x="448" y="-196" type="curve"/>
      <point x="436" y="-178" type="line"/>
      <point x="420" y="-190"/>
      <point x="402" y="-198"/>
      <point x="380" y="-198" type="curve" smooth="yes"/>
      <point x="344" y="-198"/>
      <point x="316" y="-182"/>
      <point x="316" y="-144" type="curve" smooth="yes"/>
      <point x="316" y="-94"/>
      <point x="364" y="-50"/>
      <point x="440" y="-8" type="curve"/>
      <point x="538" y="478" type="line"/>
      <point x="514" y="478" type="line"/>
      <point x="496" y="410" type="line"/>
      <point x="492" y="410" type="line"/>
      <point x="462" y="458"/>
      <point x="406" y="490"/>
      <point x="334" y="490" type="curve" smooth="yes"/>
      <point x="180" y="490"/>
      <point x="66" y="338"/>
      <point x="66" y="170" type="curve" smooth="yes"/>
      <point x="66" y="50"/>
      <point x="134" y="-12"/>
      <point x="236" y="-12" type="curve" smooth="yes"/>
      <point x="304" y="-12"/>
      <point x="372" y="26"/>
      <point x="426" y="78" type="curve"/>
      <point x="430" y="78" type="line"/>
      <point x="418" y="0" type="line"/>
      <point x="346" y="-38"/>
      <point x="288" y="-84"/>
      <point x="288" y="-152" type="curve" smooth="yes"/>
      <point x="288" y="-204"/>
      <point x="331" y="-224"/>
    </contour>
    <contour>
      <point x="238" y="14" type="curve" smooth="yes"/>
      <point x="150" y="14"/>
      <point x="94" y="66"/>
      <point x="94" y="176" type="curve" smooth="yes"/>
      <point x="94" y="320"/>
      <point x="196" y="464"/>
      <point x="332" y="464" type="curve" smooth="yes"/>
      <point x="392" y="464"/>
      <point x="446" y="438"/>
      <point x="490" y="372" type="curve"/>
      <point x="438" y="122" type="line"/>
      <point x="374" y="54"/>
      <point x="302" y="14"/>
    </contour>
    <contour>
      <point x="358" y="500" type="move" name="aboveLC"/>
    </contour>
  </outline>
</glyph>
<glyph name="dcaron" format="1">
  <advance width="600"/>
  <unicode hex="010F"/>
  <outline>
    <contour>
      <point x="236" y="-12" type="curve" smooth="yes"/>
      <point x="304" y="-12"/>
      <point x="372" y="26"/>
      <point x="426" y="78" type="curve"/>
      <point x="430" y="78" type="line"/>
      <point x="418" y="0" type="line"/>
      <point x="442" y="0" type="line"/>
      <point x="588" y="722" type="line"/>
      <point x="560" y="722" type="line"/>
      <point x="516" y="506" type="line"/>
      <point x="496" y="410" type="line"/>
      <point x="492" y="410" type="line"/>
      <point x="462" y="458"/>
      <point x="406" y="490"/>
      <point x="334" y="490" type="curve" smooth="yes"/>
      <point x="180" y="490"/>
      <point x="66" y="338"/>
      <point x="66" y="170" type="curve" smooth="yes"/>
      <point x="66" y="50"/>
      <point x="134" y="-12"/>
    </contour>
    <contour>
      <point x="238" y="14" type="curve" smooth="yes"/>
      <point x="150" y="14"/>
      <point x="94" y="66"/>
      <point x="94" y="176" type="curve" smooth="yes"/>
      <point x="94" y="320"/>
      <point x="196" y="464"/>
      <point x="332" y="464" type="curve" smooth="yes"/>
      <point x="392" y="464"/>
      <point x="446" y="438"/>
      <point x="490" y="372" type="curve"/>
      <point x="438" y="122" type="line"/>
      <point x="374" y="54"/>
      <point x="302" y="14"/>
    </contour>
    <component base="caron.alt" xOffset="320"/>
  </outline>
</glyph>
<glyph name="dcroat" format="1">
  <advance width="600"/>
  <unicode hex="0111"/>
  <outline>
    <contour>
      <point x="236" y="-12" type="curve" smooth="yes"/>
      <point x="304" y="-12"/>
      <point x="372" y="26"/>
      <point x="426" y="78" type="curve"/>
      <point x="430" y="78" type="line"/>
      <point x="418" y="0" type="line"/>
      <point x="442" y="0" type="line"/>
      <point x="588" y="722" type="line"/>
      <point x="560" y="722" type="line"/>
      <point x="512" y="486" type="line"/>
      <point x="492" y="390" type="line"/>
      <point x="488" y="390" type="line"/>
      <point x="458" y="438"/>
      <point x="406" y="470"/>
      <point x="334" y="470" type="curve" smooth="yes"/>
      <point x="182" y="470"/>
      <point x="66" y="328"/>
      <point x="66" y="170" type="curve" smooth="yes"/>
      <point x="66" y="50"/>
      <point x="134" y="-12"/>
    </contour>
    <contour>
      <point x="238" y="14" type="curve" smooth="yes"/>
      <point x="150" y="14"/>
      <point x="94" y="66"/>
      <point x="94" y="176" type="curve" smooth="yes"/>
      <point x="94" y="310"/>
      <point x="198" y="444"/>
      <point x="332" y="444" type="curve" smooth="yes"/>
      <point x="392" y="444"/>
      <point x="442" y="418"/>
      <point x="486" y="352" type="curve"/>
      <point x="438" y="122" type="line"/>
      <point x="374" y="54"/>
      <point x="302" y="14"/>
    </contour>
    <contour>
      <point x="342" y="585" type="line"/>
      <point x="558" y="585" type="line"/>
      <point x="636" y="590" type="line"/>
      <point x="640" y="612" type="line"/>
      <point x="348" y="612" type="line"/>
    </contour>
    <contour>
      <point x="570" y="740" type="move" name="aboveUC"/>
    </contour>
    <contour>
      <point x="248" y="-20" type="move" name="belowLC"/>
    </contour>
  </outline>
</glyph>
<glyph name="Eogonek" format="1">
	<unicode hex="0118"/>
	<advance width="600"/>
	<outline>
		<contour>
			<point x="382" y="-224" type="curve" smooth="yes"/>
			<point x="414" y="-224"/>
			<point x="438" y="-212"/>
			<point x="456" y="-196" type="curve"/>
			<point x="444" y="-178" type="line"/>
			<point x="428" y="-190"/>
			<point x="410" y="-198"/>
			<point x="388" y="-198" type="curve" smooth="yes"/>
			<point x="352" y="-198"/>
			<point x="324" y="-182"/>
			<point x="324" y="-144" type="curve" smooth="yes"/>
			<point x="324" y="-80"/>
			<point x="420" y="0"/>
			<point x="470" y="0" type="curve"/>
			<point x="472" y="0" type="line"/>
			<point x="478" y="26" type="line"/>
			<point x="112" y="26" type="line"/>
			<point x="176" y="338" type="line"/>
			<point x="472" y="338" type="line"/>
			<point x="478" y="364" type="line"/>
			<point x="180" y="364" type="line"/>
			<point x="234" y="634" type="line"/>
			<point x="590" y="634" type="line"/>
			<point x="596" y="660" type="line"/>
			<point x="210" y="660" type="line"/>
			<point x="78" y="0" type="line"/>
			<point x="410" y="0" type="line"/>
			<point x="350" y="-32"/>
			<point x="296" y="-88"/>
			<point x="296" y="-152" type="curve" smooth="yes"/>
			<point x="296" y="-204"/>
			<point x="339" y="-224"/>
		</contour>
		<contour>
			<point name="aboveUC" x="418" y="680" type="move"/>
		</contour>
	</outline>
</glyph>
<glyph name="eogonek" format="1">
  <advance width="600"/>
  <unicode hex="0119"/>
  <outline>
    <contour>
      <point x="350" y="500" type="move" name="aboveLC"/>
    </contour>
    <contour>
      <point x="342" y="-224" type="curve" smooth="yes"/>
      <point x="374" y="-224"/>
      <point x="398" y="-212"/>
      <point x="416" y="-196" type="curve"/>
      <point x="404" y="-178" type="line"/>
      <point x="388" y="-190"/>
      <point x="370" y="-198"/>
      <point x="348" y="-198" type="curve" smooth="yes"/>
      <point x="312" y="-198"/>
      <point x="284" y="-182"/>
      <point x="284" y="-144" type="curve" smooth="yes"/>
      <point x="284" y="-84"/>
      <point x="362" y="-12"/>
      <point x="470" y="64" type="curve"/>
      <point x="454" y="86" type="line"/>
      <point x="409" y="45"/>
      <point x="344" y="14"/>
      <point x="274" y="14" type="curve" smooth="yes"/>
      <point x="166" y="14"/>
      <point x="104" y="87"/>
      <point x="104" y="192" type="curve" smooth="yes"/>
      <point x="104" y="345"/>
      <point x="222" y="464"/>
      <point x="340" y="464" type="curve" smooth="yes"/>
      <point x="432" y="464"/>
      <point x="488" y="404"/>
      <point x="488" y="312" type="curve" smooth="yes"/>
      <point x="488" y="296"/>
      <point x="486" y="278"/>
      <point x="482" y="262" type="curve"/>
      <point x="508" y="268" type="line"/>
      <point x="106" y="268" type="line"/>
      <point x="100" y="242" type="line"/>
      <point x="506" y="242" type="line"/>
      <point x="510" y="252"/>
      <point x="516" y="280"/>
      <point x="516" y="309" type="curve" smooth="yes"/>
      <point x="516" y="412"/>
      <point x="456" y="490"/>
      <point x="344" y="490" type="curve" smooth="yes"/>
      <point x="202" y="490"/>
      <point x="76" y="362"/>
      <point x="76" y="190" type="curve" smooth="yes"/>
      <point x="76" y="65"/>
      <point x="148" y="-12"/>
      <point x="271" y="-12" type="curve" smooth="yes"/>
      <point x="306" y="-12"/>
      <point x="336" y="-4"/>
      <point x="360" y="3" type="curve"/>
      <point x="304" y="-44"/>
      <point x="256" y="-92"/>
      <point x="256" y="-152" type="curve" smooth="yes"/>
      <point x="256" y="-204"/>
      <point x="299" y="-224"/>
    </contour>
  </outline>
</glyph>
<glyph name="hbar" format="1">
  <advance width="600"/>
  <unicode hex="0127"/>
  <outline>
    <contour>
      <point x="52" y="0" type="line"/>
      <point x="80" y="0" type="line"/>
      <point x="142" y="304" type="line"/>
      <point x="224" y="390"/>
      <point x="304" y="444"/>
      <point x="388" y="444" type="curve" smooth="yes"/>
      <point x="452" y="444"/>
      <point x="486" y="410"/>
      <point x="486" y="350" type="curve" smooth="yes"/>
      <point x="486" y="322"/>
      <point x="482" y="298"/>
      <point x="476" y="268" type="curve" smooth="yes"/>
      <point x="422" y="0" type="line"/>
      <point x="450" y="0" type="line"/>
      <point x="504" y="270" type="line" smooth="yes"/>
      <point x="510" y="298"/>
      <point x="514" y="322"/>
      <point x="514" y="354" type="curve" smooth="yes"/>
      <point x="514" y="420"/>
      <point x="480" y="470"/>
      <point x="392" y="470" type="curve" smooth="yes"/>
      <point x="292" y="470"/>
      <point x="220" y="412"/>
      <point x="152" y="348" type="curve"/>
      <point x="148" y="348" type="line"/>
      <point x="158" y="394" type="line"/>
      <point x="224" y="722" type="line"/>
      <point x="196" y="722" type="line"/>
    </contour>
    <contour>
      <point x="90" y="586" type="line"/>
      <point x="432" y="586" type="line"/>
      <point x="440" y="612" type="line"/>
      <point x="174" y="612" type="line"/>
      <point x="94" y="608" type="line"/>
    </contour>
  </outline>
</glyph>
<glyph name="dotlessi" format="1">
  <advance width="600"/>
  <unicode hex="0131"/>
  <outline>
    <contour>
      <point x="351" y="-12" type="curve" smooth="yes"/>
      <point x="398" y="-12"/>
      <point x="432" y="2"/>
      <point x="472" y="22" type="curve"/>
      <point x="462" y="44" type="line"/>
      <point x="424" y="26"/>
      <point x="392" y="14"/>
      <point x="356" y="14" type="curve" smooth="yes"/>
      <point x="306" y="14"/>
      <point x="270" y="38"/>
      <point x="270" y="98" type="curve" smooth="yes"/>
      <point x="270" y="108"/>
      <point x="271" y="120"/>
      <point x="274" y="134" type="curve" smooth="yes"/>
      <point x="346" y="478" type="line"/>
      <point x="130" y="478" type="line"/>
      <point x="124" y="452" type="line"/>
      <point x="314" y="452" type="line"/>
      <point x="248" y="142" type="line" smooth="yes"/>
      <point x="244" y="124"/>
      <point x="242" y="108"/>
      <point x="242" y="94" type="curve" smooth="yes"/>
      <point x="242" y="20"/>
      <point x="288" y="-12"/>
    </contour>
    <contour>
      <point x="380" y="0" type="move" name="ogonekLC"/>
    </contour>
    <contour>
      <point x="320" y="500" type="move" name="aboveLC"/>
    </contour>
    <contour>
      <point x="360" y="0" type="move" name="baseLC"/>
    </contour>
    <contour>
      <point x="350" y="-20" type="move" name="belowLC"/>
    </contour>
  </outline>
</glyph>
<glyph name="Lslash" format="1">
  <advance width="600"/>
  <unicode hex="0141"/>
  <outline>
    <contour>
      <point x="80" y="218" type="line"/>
      <point x="186" y="267" type="line"/>
      <point x="199" y="271" type="line"/>
      <point x="470" y="398" type="line"/>
      <point x="460" y="422" type="line"/>
      <point x="205" y="301" type="line"/>
      <point x="192" y="297" type="line"/>
      <point x="70" y="242" type="line"/>
    </contour>
    <component base="L"/>
    <contour>
      <point x="280" y="680" type="move" name="aboveUC"/>
    </contour>
    <contour>
      <point x="320" y="-20" type="move" name="belowLC"/>
    </contour>
  </outline>
</glyph>
<glyph name="lslash" format="1">
  <advance width="600"/>
  <unicode hex="0142"/>
  <outline>
    <contour>
      <point x="344" y="740" type="move" name="aboveUC"/>
    </contour>
    <contour>
      <point x="330" y="-22" type="move" name="belowLC"/>
    </contour>
    <contour>
      <point x="128" y="306" type="line"/>
      <point x="274" y="382" type="line"/>
      <point x="287" y="388" type="line"/>
      <point x="496" y="498" type="line"/>
      <point x="486" y="520" type="line"/>
      <point x="294" y="420" type="line"/>
      <point x="280" y="414" type="line"/>
      <point x="118" y="328" type="line"/>
    </contour>
    <component base="l"/>
  </outline>
</glyph>
<glyph name="napostrophe" format="1">
  <advance width="600"/>
  <unicode hex="0149"/>
  <outline>
    <contour>
      <point x="122" y="0" type="line"/>
      <point x="150" y="0" type="line"/>
      <point x="216" y="324" type="line"/>
      <point x="298" y="408"/>
      <point x="372" y="464"/>
      <point x="452" y="464" type="curve" smooth="yes"/>
      <point x="510" y="464"/>
      <point x="540" y="430"/>
      <point x="540" y="370" type="curve" smooth="yes"/>
      <point x="540" y="342"/>
      <point x="536" y="318"/>
      <point x="530" y="288" type="curve" smooth="yes"/>
      <point x="472" y="0" type="line"/>
      <point x="500" y="0" type="line"/>
      <point x="558" y="290" type="line" smooth="yes"/>
      <point x="564" y="318"/>
      <point x="568" y="342"/>
      <point x="568" y="374" type="curve" smooth="yes"/>
      <point x="568" y="440"/>
      <point x="536" y="490"/>
      <point x="456" y="490" type="curve" smooth="yes"/>
      <point x="360" y="490"/>
      <point x="294" y="432"/>
      <point x="228" y="368" type="curve"/>
      <point x="224" y="368" type="line"/>
      <point x="242" y="478" type="line"/>
      <point x="218" y="478" type="line"/>
    </contour>
    <component base="quoteright" xOffset="-226"/>
  </outline>
</glyph>
<glyph name="eng" format="1">
  <advance width="600"/>
  <unicode hex="014B"/>
  <outline>
    <contour>
      <point x="328" y="-180" type="curve" smooth="yes"/>
      <point x="391" y="-180"/>
      <point x="422" y="-136"/>
      <point x="440" y="-48" type="curve"/>
      <point x="508" y="290" type="line" smooth="yes"/>
      <point x="514" y="318"/>
      <point x="518" y="342"/>
      <point x="518" y="374" type="curve" smooth="yes"/>
      <point x="518" y="440"/>
      <point x="484" y="490"/>
      <point x="396" y="490" type="curve" smooth="yes"/>
      <point x="296" y="490"/>
      <point x="224" y="432"/>
      <point x="158" y="368" type="curve"/>
      <point x="154" y="368" type="line"/>
      <point x="172" y="478" type="line"/>
      <point x="148" y="478" type="line"/>
      <point x="52" y="0" type="line"/>
      <point x="80" y="0" type="line"/>
      <point x="146" y="324" type="line"/>
      <point x="228" y="410"/>
      <point x="308" y="464"/>
      <point x="392" y="464" type="curve" smooth="yes"/>
      <point x="456" y="464"/>
      <point x="490" y="430"/>
      <point x="490" y="370" type="curve" smooth="yes"/>
      <point x="490" y="342"/>
      <point x="486" y="318"/>
      <point x="480" y="288" type="curve" smooth="yes"/>
      <point x="412" y="-50" type="line"/>
      <point x="398" y="-118"/>
      <point x="374" y="-154"/>
      <point x="330" y="-154" type="curve" smooth="yes"/>
      <point x="304" y="-154"/>
      <point x="294" y="-148"/>
      <point x="282" y="-140" type="curve"/>
      <point x="270" y="-164" type="line"/>
      <point x="284" y="-172"/>
      <point x="300" y="-180"/>
    </contour>
    <contour>
      <point x="350" y="500" type="move" name="aboveLC"/>
    </contour>
  </outline>
</glyph>
<glyph name="oe" format="1">
  <advance width="600"/>
  <unicode hex="0153"/>
  <outline>
    <contour>
      <point x="119" y="-12" type="curve" smooth="yes"/>
      <point x="187" y="-12"/>
      <point x="249" y="33"/>
      <point x="292" y="125" type="curve"/>
      <point x="289" y="133" type="line"/>
      <point x="292" y="37"/>
      <point x="341" y="-12"/>
      <point x="414" y="-12" type="curve" smooth="yes"/>
      <point x="464" y="-12"/>
      <point x="516" y="9"/>
      <point x="545" y="30" type="curve"/>
      <point x="532" y="51" type="line"/>
      <point x="505" y="30"/>
      <point x="462" y="13"/>
      <point x="420" y="13" type="curve" smooth="yes"/>
      <point x="349" y="13"/>
      <point x="316" y="62"/>
      <point x="316" y="150" type="curve" smooth="yes"/>
      <point x="316" y="302"/>
      <point x="399" y="464"/>
      <point x="494" y="464" type="curve" smooth="yes"/>
      <point x="555" y="464"/>
      <point x="572" y="411"/>
      <point x="572" y="343" type="curve" smooth="yes"/>
      <point x="572" y="316"/>
      <point x="567" y="285"/>
      <point x="560" y="260" type="curve"/>
      <point x="570" y="268" type="line"/>
      <point x="318" y="268" type="line"/>
      <point x="318" y="242" type="line"/>
      <point x="585" y="242" type="line"/>
      <point x="591" y="262"/>
      <point x="601" y="305"/>
      <point x="601" y="346" type="curve" smooth="yes"/>
      <point x="601" y="440"/>
      <point x="566" y="490"/>
      <point x="499" y="490" type="curve" smooth="yes"/>
      <point x="426" y="490"/>
      <point x="367" y="432"/>
      <point x="326" y="338" type="curve"/>
      <point x="328" y="336" type="line"/>
      <point x="321" y="433"/>
      <point x="281" y="490"/>
      <point x="209" y="490" type="curve" smooth="yes"/>
      <point x="94" y="490"/>
      <point x="-10" y="358"/>
      <point x="-10" y="168" type="curve" smooth="yes"/>
      <point x="-10" y="55"/>
      <point x="32" y="-12"/>
    </contour>
    <contour>
      <point x="20" y="169" type="curve" smooth="yes"/>
      <point x="20" y="324"/>
      <point x="102" y="465"/>
      <point x="209" y="465" type="curve" smooth="yes"/>
      <point x="269" y="465"/>
      <point x="302" y="404"/>
      <point x="302" y="305" type="curve" smooth="yes"/>
      <point x="302" y="147"/>
      <point x="218" y="13"/>
      <point x="121" y="13" type="curve" smooth="yes"/>
      <point x="54" y="13"/>
      <point x="20" y="76"/>
    </contour>
    <contour>
      <point x="340" y="500" type="move" name="aboveLC"/>
    </contour>
    <contour>
      <point x="420" y="0" type="move" name="baseLC"/>
    </contour>
    <contour>
      <point x="270" y="-20" type="move" name="belowLC"/>
    </contour>
  </outline>
</glyph>
<glyph name="Tbar" format="1">
  <advance width="600"/>
  <unicode hex="0166"/>
  <outline>
    <contour>
      <point x="158" y="362" type="line"/>
      <point x="457" y="362" type="line"/>
      <point x="462" y="386" type="line"/>
      <point x="240" y="386" type="line"/>
      <point x="162" y="382" type="line"/>
    </contour>
    <component base="T"/>
  </outline>
</glyph>
<glyph name="tbar" format="1">
  <advance width="600"/>
  <unicode hex="0167"/>
  <outline>
    <contour>
      <point x="50" y="242" type="line"/>
      <point x="468" y="242" type="line"/>
      <point x="472" y="268" type="line"/>
      <point x="204" y="268" type="line"/>
      <point x="54" y="264" type="line"/>
    </contour>
    <component base="t"/>
    <contour>
      <point x="280" y="630" type="move" name="aboveLC"/>
    </contour>
    <contour>
      <point x="310" y="-20" type="move" name="belowLC"/>
    </contour>
  </outline>
</glyph>
<glyph name="Uogonek" format="1">
  <advance width="600"/>
  <unicode hex="0172"/>
  <outline>
    <contour>
      <point x="210" y="-224" type="curve" smooth="yes"/>
      <point x="242" y="-224"/>
      <point x="266" y="-212"/>
      <point x="284" y="-196" type="curve"/>
      <point x="272" y="-178" type="line"/>
      <point x="256" y="-190"/>
      <point x="238" y="-198"/>
      <point x="216" y="-198" type="curve" smooth="yes"/>
      <point x="180" y="-198"/>
      <point x="152" y="-182"/>
      <point x="152" y="-144" type="curve" smooth="yes"/>
      <point x="152" y="-98"/>
      <point x="202" y="-28"/>
      <point x="308" y="-6" type="curve" smooth="yes"/>
      <point x="394" y="12"/>
      <point x="462" y="80"/>
      <point x="492" y="230" type="curve" smooth="yes"/>
      <point x="578" y="660" type="line"/>
      <point x="548" y="660" type="line"/>
      <point x="464" y="238" type="line" smooth="yes"/>
      <point x="432" y="76"/>
      <point x="350" y="14"/>
      <point x="264" y="14" type="curve" smooth="yes"/>
      <point x="158" y="14"/>
      <point x="104" y="78"/>
      <point x="104" y="188" type="curve" smooth="yes"/>
      <point x="104" y="212"/>
      <point x="106" y="238"/>
      <point x="114" y="270" type="curve" smooth="yes"/>
      <point x="192" y="660" type="line"/>
      <point x="162" y="660" type="line"/>
      <point x="82" y="262" type="line" smooth="yes"/>
      <point x="76" y="230"/>
      <point x="74" y="206"/>
      <point x="74" y="180" type="curve" smooth="yes"/>
      <point x="74" y="60"/>
      <point x="139" y="4"/>
      <point x="222" y="-10" type="curve"/>
      <point x="172" y="-42"/>
      <point x="124" y="-96"/>
      <point x="124" y="-152" type="curve" smooth="yes"/>
      <point x="124" y="-204"/>
      <point x="167" y="-224"/>
    </contour>
    <contour>
      <point x="374" y="683" type="move" name="aboveUC"/>
    </contour>
  </outline>
</glyph>
<glyph name="uogonek" format="1">
  <advance width="600"/>
  <unicode hex="0173"/>
  <outline>
    <contour>
      <point x="372" y="-224" type="curve" smooth="yes"/>
      <point x="404" y="-224"/>
      <point x="428" y="-212"/>
      <point x="446" y="-196" type="curve"/>
      <point x="434" y="-178" type="line"/>
      <point x="418" y="-190"/>
      <point x="400" y="-198"/>
      <point x="378" y="-198" type="curve" smooth="yes"/>
      <point x="342" y="-198"/>
      <point x="314" y="-182"/>
      <point x="314" y="-144" type="curve" smooth="yes"/>
      <point x="314" y="-94"/>
      <point x="362" y="-50"/>
      <point x="438" y="-8" type="curve"/>
      <point x="536" y="478" type="line"/>
      <point x="508" y="478" type="line"/>
      <point x="442" y="154" type="line"/>
      <point x="360" y="68"/>
      <point x="280" y="14"/>
      <point x="196" y="14" type="curve" smooth="yes"/>
      <point x="132" y="14"/>
      <point x="98" y="48"/>
      <point x="98" y="108" type="curve" smooth="yes"/>
      <point x="98" y="136"/>
      <point x="102" y="160"/>
      <point x="108" y="190" type="curve" smooth="yes"/>
      <point x="166" y="478" type="line"/>
      <point x="138" y="478" type="line"/>
      <point x="80" y="188" type="line" smooth="yes"/>
      <point x="74" y="160"/>
      <point x="70" y="136"/>
      <point x="70" y="104" type="curve" smooth="yes"/>
      <point x="70" y="38"/>
      <point x="104" y="-12"/>
      <point x="193" y="-12" type="curve" smooth="yes"/>
      <point x="292" y="-12"/>
      <point x="364" y="46"/>
      <point x="430" y="110" type="curve"/>
      <point x="434" y="110" type="line"/>
      <point x="416" y="0" type="line"/>
      <point x="344" y="-38"/>
      <point x="286" y="-84"/>
      <point x="286" y="-152" type="curve" smooth="yes"/>
      <point x="286" y="-204"/>
      <point x="329" y="-224"/>
    </contour>
    <contour>
      <point x="338" y="500" type="move" name="aboveLC"/>
    </contour>
  </outline>
</glyph>
<glyph name="Dhook" format="1">
  <advance width="600"/>
  <unicode hex="018A"/>
  <outline>
    <contour>
      <point x="166" y="0" type="line"/>
      <point x="208" y="0" type="line" smooth="yes"/>
      <point x="450" y="0"/>
      <point x="572" y="180"/>
      <point x="572" y="404" type="curve" smooth="yes"/>
      <point x="572" y="566"/>
      <point x="491" y="672"/>
      <point x="325" y="672" type="curve" smooth="yes"/>
      <point x="162" y="672"/>
      <point x="60" y="533"/>
      <point x="60" y="404" type="curve" smooth="yes"/>
      <point x="60" y="338"/>
      <point x="90" y="292"/>
      <point x="136" y="270" type="curve"/>
      <point x="152" y="294" type="line"/>
      <point x="108" y="318"/>
      <point x="88" y="356"/>
      <point x="88" y="406" type="curve" smooth="yes"/>
      <point x="88" y="520"/>
      <point x="184" y="646"/>
      <point x="318" y="646" type="curve" smooth="yes"/>
      <point x="320" y="646" type="line" smooth="yes"/>
      <point x="470" y="646"/>
      <point x="542" y="548"/>
      <point x="542" y="402" type="curve" smooth="yes"/>
      <point x="542" y="191"/>
      <point x="426" y="26"/>
      <point x="210" y="26" type="curve" smooth="yes"/>
      <point x="200" y="26" type="line"/>
      <point x="324" y="648" type="line"/>
      <point x="296" y="648" type="line"/>
    </contour>
    <contour>
      <point x="380" y="680" type="move" name="aboveUC"/>
    </contour>
    <contour>
      <point x="280" y="-20" type="move" name="belowLC"/>
    </contour>
  </outline>
</glyph>
<glyph name="florin" format="1">
  <advance width="600"/>
  <unicode hex="0192"/>
  <outline>
    <contour>
      <point x="69" y="-98" type="curve" smooth="yes"/>
      <point x="128" y="-98"/>
      <point x="186" y="-80"/>
      <point x="225" y="45" type="curve" smooth="yes"/>
      <point x="370" y="505" type="line" smooth="yes"/>
      <point x="396" y="589"/>
      <point x="435" y="649"/>
      <point x="509" y="649" type="curve" smooth="yes"/>
      <point x="546" y="649"/>
      <point x="569" y="633"/>
      <point x="585" y="620" type="curve"/>
      <point x="601" y="638" type="line"/>
      <point x="583" y="655"/>
      <point x="552" y="672"/>
      <point x="515" y="672" type="curve" smooth="yes"/>
      <point x="427" y="672"/>
      <point x="380" y="622"/>
      <point x="345" y="511" type="curve" smooth="yes"/>
      <point x="198" y="45" type="line" smooth="yes"/>
      <point x="173" y="-34"/>
      <point x="133" y="-73"/>
      <point x="77" y="-73" type="curve" smooth="yes"/>
      <point x="41" y="-73"/>
      <point x="13" y="-61"/>
      <point x="-5" y="-48" type="curve"/>
      <point x="-20" y="-71" type="line"/>
      <point x="-3" y="-82"/>
      <point x="31" y="-98"/>
    </contour>
    <contour>
      <point x="185" y="381" type="line"/>
      <point x="498" y="381" type="line"/>
      <point x="503" y="404" type="line"/>
      <point x="256" y="404" type="line"/>
      <point x="189" y="400" type="line"/>
    </contour>
  </outline>
</glyph>
<glyph name="Ohorn" format="1">
  <advance width="600"/>
  <unicode hex="01A0"/>
  <outline>
    <contour>
      <point x="481" y="620" type="line"/>
      <point x="545" y="631"/>
      <point x="606" y="670"/>
      <point x="606" y="748" type="curve" smooth="yes"/>
      <point x="606" y="762"/>
      <point x="604" y="775"/>
      <point x="598" y="792" type="curve"/>
      <point x="568" y="779" type="line"/>
      <point x="574" y="765"/>
      <point x="574" y="753"/>
      <point x="574" y="742" type="curve" smooth="yes"/>
      <point x="574" y="683"/>
      <point x="527" y="647"/>
      <point x="454" y="644" type="curve"/>
    </contour>
    <component base="O"/>
    <contour>
      <point x="374" y="680" type="move" name="aboveUC"/>
    </contour>
    <contour>
      <point x="234" y="-20" type="move" name="belowLC"/>
    </contour>
  </outline>
</glyph>
<glyph name="Uhorn" format="1">
  <advance width="600"/>
  <unicode hex="01AF"/>
  <outline>
    <contour>
      <point x="572" y="636" type="line"/>
      <point x="636" y="647"/>
      <point x="698" y="686"/>
      <point x="698" y="764" type="curve" smooth="yes"/>
      <point x="698" y="778"/>
      <point x="696" y="791"/>
      <point x="690" y="808" type="curve"/>
      <point x="660" y="795" type="line"/>
      <point x="666" y="781"/>
      <point x="666" y="769"/>
      <point x="666" y="758" type="curve" smooth="yes"/>
      <point x="666" y="699"/>
      <point x="620" y="663"/>
      <point x="548" y="660" type="curve"/>
    </contour>
    <component base="U"/>
    <contour>
      <point x="374" y="680" type="move" name="aboveUC"/>
    </contour>
    <contour>
      <point x="234" y="-20" type="move" name="belowLC"/>
    </contour>
  </outline>
</glyph>
<glyph name="uhorn" format="1">
  <advance width="600"/>
  <unicode hex="01B0"/>
  <outline>
    <contour>
      <point x="338" y="500" type="move" name="aboveLC"/>
    </contour>
    <contour>
      <point x="250" y="-22" type="move" name="belowLC"/>
    </contour>
    <contour>
      <point x="531" y="456" type="line"/>
      <point x="566" y="464"/>
      <point x="642" y="500"/>
      <point x="642" y="584" type="curve" smooth="yes"/>
      <point x="642" y="600"/>
      <point x="640" y="618"/>
      <point x="634" y="636" type="curve"/>
      <point x="606" y="622" type="line"/>
      <point x="611" y="607"/>
      <point x="613" y="592"/>
      <point x="612" y="580" type="curve" smooth="yes"/>
      <point x="608" y="515"/>
      <point x="559" y="482"/>
      <point x="508" y="478" type="curve"/>
    </contour>
    <component base="u"/>
  </outline>
</glyph>
<glyph name="aturned" format="1">
  <advance width="600"/>
  <unicode hex="0250"/>
  <outline>
    <component base="a.a" xScale="-1.0" yScale="-1.0" xOffset="580" yOffset="478"/>
    <contour>
      <point x="340" y="500" type="move" name="aboveLC"/>
    </contour>
    <contour>
      <point x="240" y="-20" type="move" name="belowLC"/>
    </contour>
  </outline>
</glyph>
<glyph name="gammalatin" format="1">
  <advance width="600"/>
  <unicode hex="0263"/>
  <outline>
    <contour>
      <point x="228" y="20" type="line"/>
      <point x="262" y="20" type="line"/>
      <point x="566" y="478" type="line"/>
      <point x="534" y="478" type="line"/>
      <point x="338" y="182" type="line" smooth="yes"/>
      <point x="308" y="136"/>
      <point x="280" y="92"/>
      <point x="251" y="46" type="curve"/>
      <point x="247" y="46" type="line"/>
      <point x="234" y="90"/>
      <point x="222" y="136"/>
      <point x="210" y="182" type="curve" smooth="yes"/>
      <point x="130" y="478" type="line"/>
      <point x="100" y="478" type="line"/>
    </contour>
    <contour>
      <point x="198" y="-234" type="curve" smooth="yes"/>
      <point x="258" y="-234"/>
      <point x="290" y="-190"/>
      <point x="290" y="-116" type="curve" smooth="yes"/>
      <point x="290" y="-74"/>
      <point x="278" y="-22"/>
      <point x="262" y="32" type="curve"/>
      <point x="230" y="32" type="line"/>
      <point x="174" y="-48"/>
      <point x="134" y="-114"/>
      <point x="134" y="-168" type="curve" smooth="yes"/>
      <point x="134" y="-208"/>
      <point x="156" y="-234"/>
    </contour>
    <contour>
      <point x="200" y="-208" type="curve" smooth="yes"/>
      <point x="176" y="-208"/>
      <point x="162" y="-194"/>
      <point x="162" y="-162" type="curve" smooth="yes"/>
      <point x="162" y="-126"/>
      <point x="198" y="-54"/>
      <point x="239" y="4" type="curve"/>
      <point x="243" y="4" type="line"/>
      <point x="254" y="-32"/>
      <point x="262" y="-72"/>
      <point x="262" y="-122" type="curve" smooth="yes"/>
      <point x="262" y="-172"/>
      <point x="239" y="-208"/>
    </contour>
    <contour>
      <point x="330" y="500" type="move" name="aboveLC"/>
    </contour>
    <contour>
      <point x="190" y="-230" type="move" name="belowLC"/>
    </contour>
  </outline>
</glyph>
<glyph name="hturned" format="1">
	<unicode hex="0265"/>
	<advance width="600"/>
	<outline>
		<contour>
			<point x="368" y="-222" type="line"/>
			<point x="396" y="-222" type="line"/>
			<point x="536" y="478" type="line"/>
			<point x="508" y="478" type="line"/>
			<point x="442" y="154" type="line"/>
			<point x="360" y="68"/>
			<point x="280" y="14"/>
			<point x="196" y="14" type="curve" smooth="yes"/>
			<point x="132" y="14"/>
			<point x="98" y="48"/>
			<point x="98" y="108" type="curve" smooth="yes"/>
			<point x="98" y="136"/>
			<point x="102" y="160"/>
			<point x="108" y="190" type="curve" smooth="yes"/>
			<point x="166" y="478" type="line"/>
			<point x="138" y="478" type="line"/>
			<point x="80" y="188" type="line" smooth="yes"/>
			<point x="74" y="160"/>
			<point x="70" y="136"/>
			<point x="70" y="104" type="curve" smooth="yes"/>
			<point x="70" y="38"/>
			<point x="104" y="-12"/>
			<point x="192" y="-12" type="curve" smooth="yes"/>
			<point x="292" y="-12"/>
			<point x="364" y="46"/>
			<point x="432" y="110" type="curve"/>
			<point x="436" y="110" type="line"/>
			<point x="426" y="64" type="line"/>
		</contour>
		<contour>
			<point name="aboveLC" x="338" y="500" type="move"/>
		</contour>
		<contour>
			<point name="belowLC" x="239" y="-20" type="move"/>
		</contour>
	</outline>
</glyph>
<glyph name="vturned" format="1">
  <advance width="600"/>
  <unicode hex="028C"/>
  <outline>
    <component base="v" xScale="-1.0" yScale="-1.0" xOffset="580" yOffset="478"/>
    <contour>
      <point x="340" y="520" type="move" name="aboveLC"/>
    </contour>
    <contour>
      <point x="240" y="-20" type="move" name="belowLC"/>
    </contour>
  </outline>
</glyph>
<glyph name="tesh" format="1">
	<unicode hex="02A7"/>
	<advance width="600"/>
	<outline>
		<contour>
			<point x="224" y="-12" type="curve" smooth="yes"/>
			<point x="252" y="-12"/>
			<point x="278" y="0"/>
			<point x="296" y="10" type="curve"/>
			<point x="286" y="32" type="line"/>
			<point x="270" y="24"/>
			<point x="250" y="14"/>
			<point x="226" y="14" type="curve" smooth="yes"/>
			<point x="172" y="14"/>
			<point x="156" y="38"/>
			<point x="156" y="84" type="curve" smooth="yes"/>
			<point x="156" y="98"/>
			<point x="158" y="110"/>
			<point x="160" y="122" type="curve" smooth="yes"/>
			<point x="228" y="452" type="line"/>
			<point x="460" y="452" type="line"/>
			<point x="466" y="478" type="line"/>
			<point x="234" y="478" type="line"/>
			<point x="266" y="638" type="line"/>
			<point x="242" y="638" type="line"/>
			<point x="206" y="478" type="line"/>
			<point x="128" y="474" type="line"/>
			<point x="124" y="452" type="line"/>
			<point x="200" y="452" type="line"/>
			<point x="132" y="124" type="line" smooth="yes"/>
			<point x="130" y="108"/>
			<point x="128" y="96"/>
			<point x="128" y="78" type="curve" smooth="yes"/>
			<point x="128" y="30"/>
			<point x="152" y="-12"/>
		</contour>
		<contour>
			<point x="239" y="-234" type="curve" smooth="yes"/>
			<point x="305" y="-234"/>
			<point x="344" y="-194"/>
			<point x="362" y="-102" type="curve" smooth="yes"/>
			<point x="499" y="600" type="line" smooth="yes"/>
			<point x="511" y="662"/>
			<point x="532" y="708"/>
			<point x="596" y="708" type="curve" smooth="yes"/>
			<point x="612" y="708"/>
			<point x="626" y="702"/>
			<point x="636" y="698" type="curve"/>
			<point x="649" y="724" type="line"/>
			<point x="638" y="730"/>
			<point x="620" y="736"/>
			<point x="603" y="736" type="curve" smooth="yes"/>
			<point x="530" y="736"/>
			<point x="487" y="696"/>
			<point x="469" y="604" type="curve" smooth="yes"/>
			<point x="333" y="-98" type="line"/>
			<point x="321" y="-160"/>
			<point x="302" y="-206"/>
			<point x="246" y="-206" type="curve" smooth="yes"/>
			<point x="226" y="-206"/>
			<point x="207" y="-200"/>
			<point x="196" y="-196" type="curve"/>
			<point x="183" y="-222" type="line"/>
			<point x="196" y="-228"/>
			<point x="219" y="-234"/>
		</contour>
	</outline>
</glyph>
<glyph name="ringhalfleftbelowcmb" format="1">
	<unicode hex="031C"/>
	<advance width="600"/>
	<outline>
		<contour>
			<point x="226" y="-264" type="curve"/>
			<point x="230" y="-242" type="line"/>
			<point x="192" y="-242"/>
			<point x="164" y="-226"/>
			<point x="164" y="-184" type="curve" smooth="yes"/>
			<point x="164" y="-136"/>
			<point x="204" y="-106"/>
			<point x="258" y="-104" type="curve"/>
			<point x="262" y="-82" type="line"/>
			<point x="196" y="-82"/>
			<point x="140" y="-120"/>
			<point x="140" y="-186" type="curve" smooth="yes"/>
			<point x="140" y="-241"/>
			<point x="184" y="-266"/>
		</contour>
		<contour>
			<point name="_belowLC" x="234" y="-20" type="move"/>
		</contour>
	</outline>
</glyph>
<glyph name="ringbelowcmb" format="1">
	<unicode hex="0325"/>
	<advance width="600"/>
	<outline>
		<component base="ringcmb" xOffset="-162" yOffset="-812"/>
		<contour>
			<point name="_belowLC" x="234" y="-20" type="move"/>
		</contour>
	</outline>
</glyph>
<glyph name="squarebelowcmb" format="1">
	<unicode hex="033B"/>
	<advance width="600"/>
	<outline>
		<contour>
			<point x="77" y="-234" type="line"/>
			<point x="309" y="-234" type="line"/>
			<point x="337" y="-86" type="line"/>
			<point x="105" y="-86" type="line"/>
		</contour>
		<contour>
			<point x="108" y="-206" type="line"/>
			<point x="126" y="-114" type="line"/>
			<point x="306" y="-114" type="line"/>
			<point x="288" y="-206" type="line"/>
		</contour>
		<contour>
			<point name="_belowLC" x="234" y="-20" type="move"/>
		</contour>
	</outline>
</glyph>
<glyph name="macrondoublebelowcmb" format="1">
	<unicode hex="035F"/>
	<advance width="600"/>
	<outline>
		<contour>
			<point x="-272" y="-182" type="line"/>
			<point x="680" y="-182" type="line"/>
			<point x="684" y="-156" type="line"/>
			<point x="-268" y="-156" type="line"/>
		</contour>
	</outline>
</glyph>
<glyph name="pi" format="1">
  <advance width="600"/>
  <unicode hex="03C0"/>
  <outline>
    <contour>
      <point x="108" y="-2" type="line"/>
      <point x="148" y="149"/>
      <point x="183" y="305"/>
      <point x="213" y="456" type="curve"/>
      <point x="187" y="457" type="line"/>
      <point x="157" y="308"/>
      <point x="124" y="150"/>
      <point x="80" y="0" type="curve"/>
    </contour>
    <contour>
      <point x="92" y="452" type="line"/>
      <point x="569" y="452" type="line"/>
      <point x="575" y="478" type="line"/>
      <point x="163" y="478" type="line"/>
      <point x="96" y="474" type="line"/>
    </contour>
    <contour>
      <point x="420" y="-12" type="curve" smooth="yes"/>
      <point x="440" y="-12"/>
      <point x="456" y="-7"/>
      <point x="468" y="-2" type="curve"/>
      <point x="460" y="21" type="line"/>
      <point x="449" y="16"/>
      <point x="438" y="12"/>
      <point x="423" y="12" type="curve" smooth="yes"/>
      <point x="403" y="12"/>
      <point x="392" y="24"/>
      <point x="392" y="45" type="curve" smooth="yes"/>
      <point x="392" y="78"/>
      <point x="440" y="298"/>
      <point x="479" y="457" type="curve"/>
      <point x="453" y="457" type="line"/>
      <point x="418" y="305"/>
      <point x="366" y="84"/>
      <point x="366" y="45" type="curve" smooth="yes"/>
      <point x="366" y="5"/>
      <point x="389" y="-12"/>
    </contour>
  </outline>
</glyph>
<glyph name="endash" format="1">
  <advance width="600"/>
  <unicode hex="2013"/>
  <outline>
    <contour>
      <point x="65" y="231" type="line"/>
      <point x="505" y="231" type="line"/>
      <point x="513" y="269" type="line"/>
      <point x="73" y="269" type="line"/>
    </contour>
  </outline>
</glyph>
<glyph name="emdash" format="1">
  <advance width="600"/>
  <unicode hex="2014"/>
  <outline>
    <contour>
      <point x="-16" y="232" type="line"/>
      <point x="584" y="232" type="line"/>
      <point x="592" y="270" type="line"/>
      <point x="-8" y="270" type="line"/>
    </contour>
  </outline>
</glyph>
<glyph name="quoteright" format="1">
  <advance width="600"/>
  <unicode hex="2019"/>
  <outline>
    <contour>
      <point x="247" y="418" type="line"/>
      <point x="365" y="456"/>
      <point x="431" y="540"/>
      <point x="431" y="633" type="curve" smooth="yes"/>
      <point x="431" y="682"/>
      <point x="405" y="700"/>
      <point x="377" y="700" type="curve" smooth="yes"/>
      <point x="343" y="700"/>
      <point x="312" y="670"/>
      <point x="312" y="633" type="curve" smooth="yes"/>
      <point x="312" y="607"/>
      <point x="327" y="587"/>
      <point x="353" y="587" type="curve" smooth="yes"/>
      <point x="377" y="587"/>
      <point x="392" y="597"/>
      <point x="412" y="618" type="curve"/>
      <point x="370" y="677" type="line"/>
      <point x="386" y="614" type="line"/>
      <point x="379" y="530"/>
      <point x="324" y="473"/>
      <point x="239" y="443" type="curve"/>
    </contour>
  </outline>
</glyph>
<glyph name="bullet" format="1">
  <advance width="600"/>
  <unicode hex="2022"/>
  <outline>
    <contour>
      <point x="264" y="127" type="curve" smooth="yes"/>
      <point x="349" y="127"/>
      <point x="429" y="189"/>
      <point x="429" y="285" type="curve" smooth="yes"/>
      <point x="429" y="355"/>
      <point x="378" y="397"/>
      <point x="318" y="397" type="curve" smooth="yes"/>
      <point x="233" y="397"/>
      <point x="153" y="335"/>
      <point x="153" y="239" type="curve" smooth="yes"/>
      <point x="153" y="169"/>
      <point x="205" y="127"/>
    </contour>
  </outline>
</glyph>
<glyph name="perthousand" format="1">
  <advance width="600"/>
  <unicode hex="2030"/>
  <outline>
    <contour>
      <point x="182" y="390" type="curve" smooth="yes"/>
      <point x="263" y="390"/>
      <point x="320" y="457"/>
      <point x="320" y="555" type="curve" smooth="yes"/>
      <point x="320" y="614"/>
      <point x="289" y="652"/>
      <point x="235" y="652" type="curve" smooth="yes"/>
      <point x="153" y="652"/>
      <point x="96" y="584"/>
      <point x="96" y="487" type="curve" smooth="yes"/>
      <point x="96" y="430"/>
      <point x="128" y="390"/>
    </contour>
    <contour>
      <point x="187" y="416" type="curve" smooth="yes"/>
      <point x="148" y="416"/>
      <point x="125" y="443"/>
      <point x="125" y="492" type="curve" smooth="yes"/>
      <point x="125" y="573"/>
      <point x="173" y="627"/>
      <point x="231" y="627" type="curve" smooth="yes"/>
      <point x="270" y="627"/>
      <point x="291" y="598"/>
      <point x="291" y="549" type="curve" smooth="yes"/>
      <point x="291" y="467"/>
      <point x="244" y="416"/>
    </contour>
    <contour>
      <point x="108" y="283" type="line"/>
      <point x="594" y="459" type="line"/>
      <point x="583" y="487" type="line"/>
      <point x="101" y="302" type="line"/>
    </contour>
    <contour>
      <point x="101" y="-12" type="curve" smooth="yes"/>
      <point x="182" y="-12"/>
      <point x="239" y="55"/>
      <point x="239" y="153" type="curve" smooth="yes"/>
      <point x="239" y="212"/>
      <point x="208" y="250"/>
      <point x="154" y="250" type="curve" smooth="yes"/>
      <point x="72" y="250"/>
      <point x="15" y="182"/>
      <point x="15" y="85" type="curve" smooth="yes"/>
      <point x="15" y="28"/>
      <point x="47" y="-12"/>
    </contour>
    <contour>
      <point x="106" y="14" type="curve" smooth="yes"/>
      <point x="67" y="14"/>
      <point x="44" y="41"/>
      <point x="44" y="90" type="curve" smooth="yes"/>
      <point x="44" y="171"/>
      <point x="92" y="225"/>
      <point x="150" y="225" type="curve" smooth="yes"/>
      <point x="189" y="225"/>
      <point x="210" y="196"/>
      <point x="210" y="147" type="curve" smooth="yes"/>
      <point x="210" y="65"/>
      <point x="163" y="14"/>
    </contour>
    <contour>
      <point x="361" y="-12" type="curve" smooth="yes"/>
      <point x="442" y="-12"/>
      <point x="499" y="55"/>
      <point x="499" y="153" type="curve" smooth="yes"/>
      <point x="499" y="212"/>
      <point x="468" y="250"/>
      <point x="414" y="250" type="curve" smooth="yes"/>
      <point x="332" y="250"/>
      <point x="275" y="182"/>
      <point x="275" y="85" type="curve" smooth="yes"/>
      <point x="275" y="28"/>
      <point x="307" y="-12"/>
    </contour>
    <contour>
      <point x="366" y="14" type="curve" smooth="yes"/>
      <point x="327" y="14"/>
      <point x="304" y="41"/>
      <point x="304" y="90" type="curve" smooth="yes"/>
      <point x="304" y="171"/>
      <point x="352" y="225"/>
      <point x="410" y="225" type="curve" smooth="yes"/>
      <point x="449" y="225"/>
      <point x="470" y="196"/>
      <point x="470" y="147" type="curve" smooth="yes"/>
      <point x="470" y="65"/>
      <point x="423" y="14"/>
    </contour>
  </outline>
</glyph>
<glyph name="guilsinglleft" format="1">
	<unicode hex="2039"/>
	<advance width="600"/>
	<outline>
		<contour>
			<point x="301" y="71" type="line"/>
			<point x="322" y="84" type="line"/>
			<point x="230" y="249" type="line"/>
			<point x="385" y="412" type="line"/>
			<point x="369" y="429" type="line"/>
			<point x="199" y="265" type="line"/>
			<point x="194" y="239" type="line"/>
		</contour>
	</outline>
</glyph>
<glyph name="guilsinglright" format="1">
  <advance width="600"/>
  <unicode hex="203A"/>
  <outline>
    <contour>
      <point x="181" y="72" type="line"/>
      <point x="351" y="236" type="line"/>
      <point x="356" y="262" type="line"/>
      <point x="249" y="430" type="line"/>
      <point x="228" y="417" type="line"/>
      <point x="320" y="252" type="line"/>
      <point x="165" y="89" type="line"/>
    </contour>
  </outline>
</glyph>
<glyph name="fraction" format="1">
  <advance width="600"/>
  <unicode hex="2044"/>
  <outline>
    <contour>
      <point x="10" y="35" type="line"/>
      <point x="224" y="242" type="line"/>
      <point x="210" y="258" type="line"/>
      <point x="-10" y="57" type="line"/>
    </contour>
    <contour>
      <point x="402" y="403" type="line"/>
      <point x="621" y="602" type="line"/>
      <point x="601" y="624" type="line"/>
      <point x="388" y="418" type="line"/>
    </contour>
  </outline>
</glyph>
<glyph name="questionexclam" format="1">
  <advance width="600"/>
  <unicode hex="2048"/>
  <outline>
    <contour>
      <point x="96" y="214" type="curve"/>
      <point x="122" y="214" type="line"/>
      <point x="122" y="370"/>
      <point x="324" y="398"/>
      <point x="324" y="570" type="curve" smooth="yes"/>
      <point x="324" y="634"/>
      <point x="273" y="682"/>
      <point x="206" y="682" type="curve" smooth="yes"/>
      <point x="150" y="682"/>
      <point x="106" y="654"/>
      <point x="72" y="612" type="curve"/>
      <point x="92" y="596" type="line"/>
      <point x="122" y="634"/>
      <point x="156" y="656"/>
      <point x="204" y="656" type="curve" smooth="yes"/>
      <point x="260" y="656"/>
      <point x="296" y="614"/>
      <point x="296" y="564" type="curve" smooth="yes"/>
      <point x="296" y="414"/>
      <point x="96" y="382"/>
    </contour>
    <contour>
      <point x="76" y="-12" type="curve" smooth="yes"/>
      <point x="108" y="-12"/>
      <point x="138" y="22"/>
      <point x="138" y="56" type="curve" smooth="yes"/>
      <point x="138" y="84"/>
      <point x="122" y="102"/>
      <point x="96" y="102" type="curve" smooth="yes"/>
      <point x="64" y="102"/>
      <point x="34" y="68"/>
      <point x="34" y="34" type="curve" smooth="yes"/>
      <point x="34" y="6"/>
      <point x="50" y="-12"/>
    </contour>
    <component base="exclam" xOffset="140"/>
  </outline>
</glyph>
<glyph name="colonmonetary" format="1">
  <advance width="600"/>
  <unicode hex="20A1"/>
  <outline>
    <contour>
      <point x="282" y="-12" type="curve"/>
      <point x="368" y="-12"/>
      <point x="433" y="32"/>
      <point x="487" y="90" type="curve"/>
      <point x="467" y="109" type="line"/>
      <point x="413" y="49"/>
      <point x="354" y="15"/>
      <point x="289" y="15" type="curve" smooth="yes"/>
      <point x="185" y="15"/>
      <point x="128" y="103"/>
      <point x="128" y="234" type="curve" smooth="yes"/>
      <point x="128" y="460"/>
      <point x="261" y="626"/>
      <point x="417" y="626" type="curve" smooth="yes"/>
      <point x="483" y="626"/>
      <point x="513" y="596"/>
      <point x="549" y="540" type="curve"/>
      <point x="571" y="554" type="line"/>
      <point x="540" y="607"/>
      <point x="498" y="652"/>
      <point x="419" y="652" type="curve" smooth="yes"/>
      <point x="244" y="652"/>
      <point x="98" y="479"/>
      <point x="98" y="234" type="curve" smooth="yes"/>
      <point x="98" y="86"/>
      <point x="166" y="-12"/>
    </contour>
    <contour>
      <point x="130" y="-110" type="line"/>
      <point x="158" y="-110" type="line"/>
      <point x="432" y="750" type="line"/>
      <point x="404" y="750" type="line"/>
    </contour>
    <contour>
      <point x="231" y="-110" type="line"/>
      <point x="258" y="-110" type="line"/>
      <point x="532" y="750" type="line"/>
      <point x="504" y="750" type="line"/>
    </contour>
  </outline>
</glyph>
<glyph name="franc" format="1">
  <advance width="600"/>
  <unicode hex="20A3"/>
  <outline>
    <contour>
      <point x="98" y="0" type="line"/>
      <point x="128" y="0" type="line"/>
      <point x="194" y="326" type="line"/>
      <point x="472" y="326" type="line"/>
      <point x="478" y="352" type="line"/>
      <point x="198" y="352" type="line"/>
      <point x="250" y="614" type="line"/>
      <point x="584" y="614" type="line"/>
      <point x="590" y="640" type="line"/>
      <point x="226" y="640" type="line"/>
    </contour>
    <contour>
      <point x="46" y="150" type="line"/>
      <point x="331" y="150" type="line"/>
      <point x="337" y="174" type="line"/>
      <point x="136" y="174" type="line"/>
      <point x="50" y="170" type="line"/>
    </contour>
  </outline>
</glyph>
<glyph name="lira" format="1">
  <advance width="600"/>
  <unicode hex="20A4"/>
  <outline>
    <contour>
      <point x="38" y="0" type="line"/>
      <point x="465" y="0" type="line"/>
      <point x="472" y="25" type="line"/>
      <point x="110" y="25" type="line"/>
      <point x="110" y="30" type="line"/>
      <point x="197" y="79"/>
      <point x="243" y="151"/>
      <point x="242" y="254" type="curve" smooth="yes"/>
      <point x="241" y="319"/>
      <point x="227" y="397"/>
      <point x="227" y="456" type="curve" smooth="yes"/>
      <point x="227" y="569"/>
      <point x="298" y="628"/>
      <point x="394" y="628" type="curve" smooth="yes"/>
      <point x="458" y="628"/>
      <point x="501" y="595"/>
      <point x="529" y="548" type="curve"/>
      <point x="551" y="563" type="line"/>
      <point x="521" y="611"/>
      <point x="473" y="652"/>
      <point x="395" y="652" type="curve" smooth="yes"/>
      <point x="284" y="652"/>
      <point x="200" y="585"/>
      <point x="200" y="452" type="curve" smooth="yes"/>
      <point x="200" y="392"/>
      <point x="215" y="310"/>
      <point x="215" y="247" type="curve" smooth="yes"/>
      <point x="215" y="157"/>
      <point x="171" y="74"/>
      <point x="41" y="16" type="curve"/>
    </contour>
    <contour>
      <point x="104" y="349" type="line"/>
      <point x="449" y="349" type="line"/>
      <point x="454" y="373" type="line"/>
      <point x="204" y="373" type="line"/>
      <point x="109" y="371" type="line"/>
    </contour>
    <contour>
      <point x="85" y="254" type="line"/>
      <point x="430" y="254" type="line"/>
      <point x="435" y="278" type="line"/>
      <point x="185" y="278" type="line"/>
      <point x="90" y="274" type="line"/>
    </contour>
  </outline>
</glyph>
<glyph name="peseta" format="1">
  <advance width="600"/>
  <unicode hex="20A7"/>
  <outline>
    <contour>
      <point x="94" y="0" type="line"/>
      <point x="121" y="0" type="line"/>
      <point x="177" y="273" type="line"/>
      <point x="268" y="273" type="line" smooth="yes"/>
      <point x="415" y="273"/>
      <point x="521" y="349"/>
      <point x="521" y="501" type="curve" smooth="yes"/>
      <point x="521" y="601"/>
      <point x="449" y="640"/>
      <point x="340" y="640" type="curve" smooth="yes"/>
      <point x="222" y="640" type="line"/>
    </contour>
    <contour>
      <point x="181" y="298" type="line"/>
      <point x="244" y="616" type="line"/>
      <point x="323" y="616" type="line" smooth="yes"/>
      <point x="431" y="616"/>
      <point x="493" y="588"/>
      <point x="493" y="498" type="curve" smooth="yes"/>
      <point x="493" y="367"/>
      <point x="409" y="298"/>
      <point x="260" y="298" type="curve" smooth="yes"/>
    </contour>
    <contour>
      <point x="101" y="450" type="line"/>
      <point x="579" y="450" type="line"/>
      <point x="584" y="474" type="line"/>
      <point x="190" y="474" type="line"/>
      <point x="105" y="470" type="line"/>
    </contour>
  </outline>
</glyph>
<glyph name="Euro" format="1">
  <advance width="600"/>
  <unicode hex="20AC"/>
  <outline>
    <contour>
      <point x="303" y="-12" type="curve" smooth="yes"/>
      <point x="390" y="-12"/>
      <point x="454" y="31"/>
      <point x="509" y="90" type="curve"/>
      <point x="489" y="108" type="line"/>
      <point x="432" y="48"/>
      <point x="376" y="15"/>
      <point x="310" y="15" type="curve" smooth="yes"/>
      <point x="206" y="15"/>
      <point x="151" y="102"/>
      <point x="151" y="233" type="curve" smooth="yes"/>
      <point x="151" y="470"/>
      <point x="292" y="627"/>
      <point x="438" y="627" type="curve" smooth="yes"/>
      <point x="500" y="627"/>
      <point x="537" y="596"/>
      <point x="572" y="540" type="curve"/>
      <point x="594" y="555" type="line"/>
      <point x="559" y="611"/>
      <point x="515" y="652"/>
      <point x="441" y="652" type="curve" smooth="yes"/>
      <point x="269" y="652"/>
      <point x="121" y="482"/>
      <point x="121" y="233" type="curve" smooth="yes"/>
      <point x="121" y="85"/>
      <point x="187" y="-12"/>
    </contour>
    <contour>
      <point x="66" y="359" type="line"/>
      <point x="481" y="359" type="line"/>
      <point x="487" y="383" type="line"/>
      <point x="138" y="383" type="line"/>
      <point x="71" y="379" type="line"/>
    </contour>
    <contour>
      <point x="44" y="254" type="line"/>
      <point x="418" y="254" type="line"/>
      <point x="425" y="278" type="line"/>
      <point x="114" y="278" type="line"/>
      <point x="50" y="274" type="line"/>
    </contour>
  </outline>
</glyph>
<glyph name="careof" format="1">
  <advance width="600"/>
  <unicode hex="2105"/>
  <outline>
    <contour>
      <point x="118" y="328" type="curve" smooth="yes"/>
      <point x="154" y="328"/>
      <point x="188" y="342"/>
      <point x="214" y="364" type="curve"/>
      <point x="200" y="384" type="line"/>
      <point x="176" y="364"/>
      <point x="148" y="354"/>
      <point x="120" y="354" type="curve" smooth="yes"/>
      <point x="80" y="354"/>
      <point x="30" y="380"/>
      <point x="30" y="462" type="curve" smooth="yes"/>
      <point x="30" y="546"/>
      <point x="94" y="624"/>
      <point x="164" y="624" type="curve" smooth="yes"/>
      <point x="194" y="624"/>
      <point x="220" y="610"/>
      <point x="240" y="582" type="curve"/>
      <point x="262" y="598" type="line"/>
      <point x="240" y="628"/>
      <point x="212" y="650"/>
      <point x="166" y="650" type="curve" smooth="yes"/>
      <point x="76" y="650"/>
      <point x="2" y="559"/>
      <point x="2" y="456" type="curve" smooth="yes"/>
      <point x="2" y="366"/>
      <point x="58" y="328"/>
    </contour>
    <component base="fraction" xOffset="1"/>
    <component base="zero.dnom" xOffset="140"/>
  </outline>
</glyph>
<glyph name="soundcopyright" format="1">
  <advance width="600"/>
  <unicode hex="2117"/>
  <outline>
    <contour>
      <point x="236" y="-12" type="curve" smooth="yes"/>
      <point x="428" y="-12"/>
      <point x="573" y="165"/>
      <point x="573" y="402" type="curve" smooth="yes"/>
      <point x="573" y="554"/>
      <point x="496" y="652"/>
      <point x="369" y="652" type="curve" smooth="yes"/>
      <point x="177" y="652"/>
      <point x="33" y="479"/>
      <point x="33" y="241" type="curve" smooth="yes"/>
      <point x="33" y="88"/>
      <point x="109" y="-12"/>
    </contour>
    <contour>
      <point x="241" y="15" type="curve" smooth="yes"/>
      <point x="128" y="15"/>
      <point x="63" y="106"/>
      <point x="63" y="244" type="curve" smooth="yes"/>
      <point x="63" y="462"/>
      <point x="196" y="625"/>
      <point x="364" y="625" type="curve" smooth="yes"/>
      <point x="477" y="625"/>
      <point x="543" y="536"/>
      <point x="543" y="398" type="curve" smooth="yes"/>
      <point x="543" y="182"/>
      <point x="409" y="15"/>
    </contour>
    <contour>
      <point x="184" y="143" type="line"/>
      <point x="214" y="143" type="line"/>
      <point x="281" y="485" type="line"/>
      <point x="267" y="476" type="line"/>
      <point x="342" y="476" type="line" smooth="yes"/>
      <point x="395" y="476"/>
      <point x="424" y="461"/>
      <point x="424" y="411" type="curve" smooth="yes"/>
      <point x="424" y="335"/>
      <point x="374" y="304"/>
      <point x="297" y="304" type="curve" smooth="yes"/>
      <point x="240" y="304" type="line"/>
      <point x="228" y="278" type="line"/>
      <point x="300" y="278" type="line" smooth="yes"/>
      <point x="387" y="278"/>
      <point x="455" y="322"/>
      <point x="455" y="411" type="curve" smooth="yes"/>
      <point x="455" y="478"/>
      <point x="413" y="503"/>
      <point x="357" y="503" type="curve" smooth="yes"/>
      <point x="255" y="503" type="line"/>
    </contour>
  </outline>
</glyph>
<glyph name="trademark" format="1">
  <advance width="600"/>
  <unicode hex="2122"/>
  <outline>
    <contour>
      <point x="132" y="370" type="line"/>
      <point x="160" y="370" type="line"/>
      <point x="218" y="660" type="line"/>
      <point x="190" y="660" type="line"/>
    </contour>
    <contour>
      <point x="326" y="370" type="line"/>
      <point x="355" y="370" type="line"/>
      <point x="389" y="542" type="line"/>
      <point x="404" y="638" type="line"/>
      <point x="408" y="638" type="line"/>
      <point x="451" y="418" type="line"/>
      <point x="480" y="418" type="line"/>
      <point x="611" y="638" type="line"/>
      <point x="615" y="638" type="line"/>
      <point x="592" y="542" type="line"/>
      <point x="558" y="370" type="line"/>
      <point x="586" y="370" type="line"/>
      <point x="647" y="676" type="line"/>
      <point x="604" y="676" type="line"/>
      <point x="525" y="545" type="line"/>
      <point x="475" y="457" type="line"/>
      <point x="471" y="457" type="line"/>
      <point x="457" y="545" type="line"/>
      <point x="428" y="676" type="line"/>
      <point x="387" y="676" type="line"/>
    </contour>
    <contour>
      <point x="76" y="651" type="line"/>
      <point x="326" y="651" type="line"/>
      <point x="332" y="676" type="line"/>
      <point x="82" y="676" type="line"/>
    </contour>
  </outline>
</glyph>
<glyph name="arrowdown" format="1">
  <advance width="600"/>
  <unicode hex="2193"/>
  <outline>
    <contour>
      <point x="298" y="-24" type="line"/>
      <point x="302" y="-24" type="line"/>
      <point x="566" y="244" type="line"/>
      <point x="547" y="263" type="line"/>
      <point x="313" y="20" type="line"/>
      <point x="313" y="526" type="line"/>
      <point x="287" y="526" type="line"/>
      <point x="287" y="20" type="line"/>
      <point x="53" y="263" type="line"/>
      <point x="34" y="244" type="line"/>
    </contour>
  </outline>
</glyph>
<glyph name="arrowupleft" format="1">
  <advance width="600"/>
  <unicode hex="2196"/>
  <outline>
    <contour>
      <point x="481" y="48" type="line"/>
      <point x="498" y="67" type="line"/>
      <point x="140" y="425" type="line"/>
      <point x="478" y="418" type="line"/>
      <point x="478" y="445" type="line"/>
      <point x="102" y="448" type="line"/>
      <point x="99" y="445" type="line"/>
      <point x="102" y="69" type="line"/>
      <point x="129" y="69" type="line"/>
      <point x="122" y="406" type="line"/>
    </contour>
  </outline>
</glyph>
<glyph name="arrowupright" format="1">
	<unicode hex="2197"/>
	<advance width="600"/>
	<outline>
		<contour>
			<point x="114" y="47" type="line"/>
			<point x="473" y="405" type="line"/>
			<point x="467" y="68" type="line"/>
			<point x="493" y="68" type="line"/>
			<point x="496" y="444" type="line"/>
			<point x="493" y="447" type="line"/>
			<point x="117" y="444" type="line"/>
			<point x="117" y="417" type="line"/>
			<point x="455" y="424" type="line"/>
			<point x="97" y="66" type="line"/>
		</contour>
	</outline>
</glyph>
<glyph name="arrowdblleft" format="1">
  <advance width="600"/>
  <unicode hex="21D0"/>
  <outline>
    <contour>
      <point x="288" y="-14" type="line"/>
      <point x="307" y="5" type="line"/>
      <point x="50" y="252" type="line"/>
      <point x="307" y="499" type="line"/>
      <point x="288" y="518" type="line"/>
      <point x="20" y="254" type="line"/>
      <point x="20" y="250" type="line"/>
    </contour>
    <contour>
      <point x="135" y="340" type="line"/>
      <point x="570" y="340" type="line"/>
      <point x="570" y="364" type="line"/>
      <point x="135" y="364" type="line"/>
    </contour>
    <contour>
      <point x="135" y="140" type="line"/>
      <point x="570" y="140" type="line"/>
      <point x="570" y="164" type="line"/>
      <point x="135" y="164" type="line"/>
    </contour>
  </outline>
</glyph>
<glyph name="arrowdblright" format="1">
  <advance width="600"/>
  <unicode hex="21D2"/>
  <outline>
    <contour>
      <point x="312" y="-14" type="line"/>
      <point x="580" y="250" type="line"/>
      <point x="580" y="254" type="line"/>
      <point x="312" y="518" type="line"/>
      <point x="293" y="499" type="line"/>
      <point x="550" y="252" type="line"/>
      <point x="293" y="5" type="line"/>
    </contour>
    <contour>
      <point x="30" y="340" type="line"/>
      <point x="465" y="340" type="line"/>
      <point x="465" y="364" type="line"/>
      <point x="30" y="364" type="line"/>
    </contour>
    <contour>
      <point x="30" y="140" type="line"/>
      <point x="465" y="140" type="line"/>
      <point x="465" y="164" type="line"/>
      <point x="30" y="164" type="line"/>
    </contour>
  </outline>
</glyph>
<glyph name="arrowdbldown" format="1">
  <advance width="600"/>
  <unicode hex="21D3"/>
  <outline>
    <contour>
      <point x="298" y="-24" type="line"/>
      <point x="302" y="-24" type="line"/>
      <point x="566" y="244" type="line"/>
      <point x="547" y="263" type="line"/>
      <point x="300" y="6" type="line"/>
      <point x="53" y="263" type="line"/>
      <point x="34" y="244" type="line"/>
    </contour>
    <contour>
      <point x="188" y="91" type="line"/>
      <point x="212" y="91" type="line"/>
      <point x="212" y="526" type="line"/>
      <point x="188" y="526" type="line"/>
    </contour>
    <contour>
      <point x="388" y="91" type="line"/>
      <point x="412" y="91" type="line"/>
      <point x="412" y="526" type="line"/>
      <point x="388" y="526" type="line"/>
    </contour>
  </outline>
</glyph>
<glyph name="partialdiff" format="1">
  <advance width="600"/>
  <unicode hex="2202"/>
  <outline>
    <contour>
      <point x="205" y="-12" type="curve" smooth="yes"/>
      <point x="386" y="-12"/>
      <point x="532" y="203"/>
      <point x="532" y="465" type="curve" smooth="yes"/>
      <point x="532" y="613"/>
      <point x="467" y="672"/>
      <point x="383" y="672" type="curve" smooth="yes"/>
      <point x="328" y="672"/>
      <point x="274" y="651"/>
      <point x="233" y="613" type="curve"/>
      <point x="248" y="594" type="line"/>
      <point x="287" y="628"/>
      <point x="330" y="646"/>
      <point x="384" y="646" type="curve" smooth="yes"/>
      <point x="448" y="646"/>
      <point x="503" y="596"/>
      <point x="503" y="464" type="curve" smooth="yes"/>
      <point x="503" y="242"/>
      <point x="379" y="15"/>
      <point x="207" y="15" type="curve" smooth="yes"/>
      <point x="129" y="15"/>
      <point x="90" y="72"/>
      <point x="90" y="148" type="curve" smooth="yes"/>
      <point x="90" y="261"/>
      <point x="171" y="369"/>
      <point x="318" y="369" type="curve" smooth="yes"/>
      <point x="392" y="369"/>
      <point x="439" y="330"/>
      <point x="483" y="264" type="curve"/>
      <point x="491" y="295" type="line"/>
      <point x="457" y="348"/>
      <point x="400" y="395"/>
      <point x="319" y="395" type="curve" smooth="yes"/>
      <point x="166" y="395"/>
      <point x="60" y="286"/>
      <point x="60" y="142" type="curve" smooth="yes"/>
      <point x="60" y="45"/>
      <point x="120" y="-12"/>
    </contour>
  </outline>
</glyph>
<glyph name="existential" format="1">
  <advance width="600"/>
  <unicode hex="2203"/>
  <outline>
    <contour>
      <point x="-6" y="0" type="line"/>
      <point x="390" y="0" type="line"/>
      <point x="522" y="660" type="line"/>
      <point x="138" y="660" type="line"/>
      <point x="132" y="634" type="line"/>
      <point x="488" y="634" type="line"/>
      <point x="432" y="364" type="line"/>
      <point x="136" y="364" type="line"/>
      <point x="130" y="338" type="line"/>
      <point x="428" y="338" type="line"/>
      <point x="366" y="26" type="line"/>
      <point x="0" y="26" type="line"/>
    </contour>
  </outline>
</glyph>
<glyph name="product" format="1">
  <advance width="600"/>
  <unicode hex="220F"/>
  <outline>
    <contour>
      <point x="67" y="-120" type="line"/>
      <point x="96" y="-120" type="line"/>
      <point x="96" y="615" type="line"/>
      <point x="485" y="615" type="line"/>
      <point x="485" y="-120" type="line"/>
      <point x="517" y="-120" type="line"/>
      <point x="517" y="640" type="line"/>
      <point x="67" y="640" type="line"/>
    </contour>
  </outline>
</glyph>
<glyph name="summation" format="1">
  <advance width="600"/>
  <unicode hex="2211"/>
  <outline>
    <contour>
      <point x="70" y="-120" type="line"/>
      <point x="533" y="-120" type="line"/>
      <point x="533" y="-94" type="line"/>
      <point x="109" y="-94" type="line"/>
      <point x="109" y="-90" type="line"/>
      <point x="371" y="262" type="line"/>
      <point x="121" y="610" type="line"/>
      <point x="120" y="614" type="line"/>
      <point x="501" y="614" type="line"/>
      <point x="501" y="640" type="line"/>
      <point x="82" y="640" type="line"/>
      <point x="82" y="616" type="line"/>
      <point x="335" y="260" type="line"/>
      <point x="70" y="-95" type="line"/>
    </contour>
  </outline>
</glyph>
<glyph name="minus" format="1">
  <advance width="600"/>
  <unicode hex="2212"/>
  <outline>
    <contour>
      <point x="99" y="317" type="line"/>
      <point x="501" y="317" type="line"/>
      <point x="501" y="343" type="line"/>
      <point x="99" y="343" type="line"/>
    </contour>
  </outline>
</glyph>
<glyph name="radical" format="1">
  <advance width="600"/>
  <unicode hex="221A"/>
  <outline>
    <contour>
      <point x="238" y="-109" type="line"/>
      <point x="268" y="-109" type="line"/>
      <point x="671" y="820" type="line"/>
      <point x="643" y="820" type="line"/>
      <point x="281" y="-16" type="line" smooth="yes"/>
      <point x="274" y="-32"/>
      <point x="269" y="-47"/>
      <point x="262" y="-63" type="curve"/>
      <point x="258" y="-63" type="line"/>
      <point x="257" y="-47"/>
      <point x="256" y="-32"/>
      <point x="253" y="-16" type="curve"/>
      <point x="201" y="374" type="line"/>
      <point x="93" y="327" type="line"/>
      <point x="102" y="302" type="line"/>
      <point x="176" y="334" type="line"/>
    </contour>
  </outline>
</glyph>
<glyph name="intersection" format="1">
  <advance width="600"/>
  <unicode hex="2229"/>
  <outline>
    <contour>
      <point x="115" y="112" type="line"/>
      <point x="145" y="112" type="line"/>
      <point x="145" y="350" type="line" smooth="yes"/>
      <point x="145" y="465"/>
      <point x="206" y="529"/>
      <point x="300" y="529" type="curve" smooth="yes"/>
      <point x="394" y="529"/>
      <point x="455" y="465"/>
      <point x="455" y="350" type="curve" smooth="yes"/>
      <point x="455" y="112" type="line"/>
      <point x="485" y="112" type="line"/>
      <point x="485" y="362" type="line" smooth="yes"/>
      <point x="485" y="482"/>
      <point x="408" y="562"/>
      <point x="300" y="562" type="curve" smooth="yes"/>
      <point x="192" y="562"/>
      <point x="115" y="482"/>
      <point x="115" y="362" type="curve" smooth="yes"/>
    </contour>
  </outline>
</glyph>
<glyph name="notequal" format="1">
  <advance width="600"/>
  <unicode hex="2260"/>
  <outline>
    <contour>
      <point x="143" y="94" type="line"/>
      <point x="165" y="82" type="line"/>
      <point x="252" y="218" type="line"/>
      <point x="498" y="218" type="line"/>
      <point x="498" y="244" type="line"/>
      <point x="264" y="244" type="line"/>
      <point x="372" y="418" type="line"/>
      <point x="498" y="418" type="line"/>
      <point x="498" y="444" type="line"/>
      <point x="384" y="444" type="line"/>
      <point x="463" y="566" type="line"/>
      <point x="441" y="578" type="line"/>
      <point x="354" y="444" type="line"/>
      <point x="108" y="444" type="line"/>
      <point x="108" y="418" type="line"/>
      <point x="342" y="418" type="line"/>
      <point x="234" y="244" type="line"/>
      <point x="108" y="244" type="line"/>
      <point x="108" y="218" type="line"/>
      <point x="222" y="218" type="line"/>
    </contour>
  </outline>
</glyph>
<glyph name="greaterequal" format="1">
  <advance width="600"/>
  <unicode hex="2265"/>
  <outline>
    <contour>
      <point x="39" y="0" type="line"/>
      <point x="442" y="0" type="line"/>
      <point x="442" y="26" type="line"/>
      <point x="39" y="26" type="line"/>
    </contour>
    <contour>
      <point x="39" y="152" type="line"/>
      <point x="442" y="314" type="line"/>
      <point x="442" y="348" type="line"/>
      <point x="39" y="511" type="line"/>
      <point x="39" y="481" type="line"/>
      <point x="281" y="386" type="line"/>
      <point x="412" y="333" type="line"/>
      <point x="412" y="329" type="line"/>
      <point x="281" y="277" type="line"/>
      <point x="39" y="182" type="line"/>
    </contour>
  </outline>
</glyph>
<glyph name="ceilingleft" format="1">
  <advance width="600"/>
  <unicode hex="231C"/>
  <outline>
    <contour>
      <point x="172" y="0" type="line"/>
      <point x="198" y="0" type="line"/>
      <point x="334" y="686" type="line"/>
      <point x="566" y="686" type="line"/>
      <point x="570" y="708" type="line"/>
      <point x="314" y="708" type="line"/>
    </contour>
  </outline>
</glyph>
<glyph name="darkshade" format="1">
	<unicode hex="2593"/>
	<advance width="600"/>
	<outline>
		<contour>
			<point x="419" y="900" type="curve" smooth="yes"/>
			<point x="419" y="855"/>
			<point x="455" y="819"/>
			<point x="500" y="819" type="curve" smooth="yes"/>
			<point x="545" y="819"/>
			<point x="581" y="855"/>
			<point x="581" y="900" type="curve" smooth="yes"/>
			<point x="581" y="945"/>
			<point x="545" y="981"/>
			<point x="500" y="981" type="curve" smooth="yes"/>
			<point x="455" y="981"/>
			<point x="419" y="945"/>
		</contour>
		<contour>
			<point x="219" y="900" type="curve" smooth="yes"/>
			<point x="219" y="855"/>
			<point x="255" y="819"/>
			<point x="300" y="819" type="curve" smooth="yes"/>
			<point x="345" y="819"/>
			<point x="381" y="855"/>
			<point x="381" y="900" type="curve" smooth="yes"/>
			<point x="381" y="945"/>
			<point x="345" y="981"/>
			<point x="300" y="981" type="curve" smooth="yes"/>
			<point x="255" y="981"/>
			<point x="219" y="945"/>
		</contour>
		<contour>
			<point x="19" y="900" type="curve" smooth="yes"/>
			<point x="19" y="855"/>
			<point x="55" y="819"/>
			<point x="100" y="819" type="curve" smooth="yes"/>
			<point x="145" y="819"/>
			<point x="181" y="855"/>
			<point x="181" y="900" type="curve" smooth="yes"/>
			<point x="181" y="945"/>
			<point x="145" y="981"/>
			<point x="100" y="981" type="curve" smooth="yes"/>
			<point x="55" y="981"/>
			<point x="19" y="945"/>
		</contour>
		<contour>
			<point x="346" y="800" type="curve" smooth="yes"/>
			<point x="346" y="770"/>
			<point x="370" y="746"/>
			<point x="400" y="746" type="curve" smooth="yes"/>
			<point x="430" y="746"/>
			<point x="454" y="770"/>
			<point x="454" y="800" type="curve" smooth="yes"/>
			<point x="454" y="830"/>
			<point x="430" y="854"/>
			<point x="400" y="854" type="curve" smooth="yes"/>
			<point x="370" y="854"/>
			<point x="346" y="830"/>
		</contour>
		<contour>
			<point x="146" y="800" type="curve" smooth="yes"/>
			<point x="146" y="770"/>
			<point x="170" y="746"/>
			<point x="200" y="746" type="curve" smooth="yes"/>
			<point x="230" y="746"/>
			<point x="254" y="770"/>
			<point x="254" y="800" type="curve" smooth="yes"/>
			<point x="254" y="830"/>
			<point x="230" y="854"/>
			<point x="200" y="854" type="curve" smooth="yes"/>
			<point x="170" y="854"/>
			<point x="146" y="830"/>
		</contour>
		<contour>
			<point x="-54" y="800" type="curve" smooth="yes"/>
			<point x="-54" y="770"/>
			<point x="-30" y="746"/>
			<point x="0" y="746" type="curve" smooth="yes"/>
			<point x="30" y="746"/>
			<point x="54" y="770"/>
			<point x="54" y="800" type="curve" smooth="yes"/>
			<point x="54" y="830"/>
			<point x="30" y="854"/>
			<point x="0" y="854" type="curve" smooth="yes"/>
			<point x="-30" y="854"/>
			<point x="-54" y="830"/>
		</contour>
		<contour>
			<point x="419" y="700" type="curve" smooth="yes"/>
			<point x="419" y="655"/>
			<point x="455" y="619"/>
			<point x="500" y="619" type="curve" smooth="yes"/>
			<point x="545" y="619"/>
			<point x="581" y="655"/>
			<point x="581" y="700" type="curve" smooth="yes"/>
			<point x="581" y="745"/>
			<point x="545" y="781"/>
			<point x="500" y="781" type="curve" smooth="yes"/>
			<point x="455" y="781"/>
			<point x="419" y="745"/>
		</contour>
		<contour>
			<point x="219" y="700" type="curve" smooth="yes"/>
			<point x="219" y="655"/>
			<point x="255" y="619"/>
			<point x="300" y="619" type="curve" smooth="yes"/>
			<point x="345" y="619"/>
			<point x="381" y="655"/>
			<point x="381" y="700" type="curve" smooth="yes"/>
			<point x="381" y="745"/>
			<point x="345" y="781"/>
			<point x="300" y="781" type="curve" smooth="yes"/>
			<point x="255" y="781"/>
			<point x="219" y="745"/>
		</contour>
		<contour>
			<point x="19" y="700" type="curve" smooth="yes"/>
			<point x="19" y="655"/>
			<point x="55" y="619"/>
			<point x="100" y="619" type="curve" smooth="yes"/>
			<point x="145" y="619"/>
			<point x="181" y="655"/>
			<point x="181" y="700" type="curve" smooth="yes"/>
			<point x="181" y="745"/>
			<point x="145" y="781"/>
			<point x="100" y="781" type="curve" smooth="yes"/>
			<point x="55" y="781"/>
			<point x="19" y="745"/>
		</contour>
		<contour>
			<point x="346" y="600" type="curve" smooth="yes"/>
			<point x="346" y="570"/>
			<point x="370" y="546"/>
			<point x="400" y="546" type="curve" smooth="yes"/>
			<point x="430" y="546"/>
			<point x="454" y="570"/>
			<point x="454" y="600" type="curve" smooth="yes"/>
			<point x="454" y="630"/>
			<point x="430" y="654"/>
			<point x="400" y="654" type="curve" smooth="yes"/>
			<point x="370" y="654"/>
			<point x="346" y="630"/>
		</contour>
		<contour>
			<point x="146" y="600" type="curve" smooth="yes"/>
			<point x="146" y="570"/>
			<point x="170" y="546"/>
			<point x="200" y="546" type="curve" smooth="yes"/>
			<point x="230" y="546"/>
			<point x="254" y="570"/>
			<point x="254" y="600" type="curve" smooth="yes"/>
			<point x="254" y="630"/>
			<point x="230" y="654"/>
			<point x="200" y="654" type="curve" smooth="yes"/>
			<point x="170" y="654"/>
			<point x="146" y="630"/>
		</contour>
		<contour>
			<point x="-54" y="600" type="curve" smooth="yes"/>
			<point x="-54" y="570"/>
			<point x="-30" y="546"/>
			<point x="0" y="546" type="curve" smooth="yes"/>
			<point x="30" y="546"/>
			<point x="54" y="570"/>
			<point x="54" y="600" type="curve" smooth="yes"/>
			<point x="54" y="630"/>
			<point x="30" y="654"/>
			<point x="0" y="654" type="curve" smooth="yes"/>
			<point x="-30" y="654"/>
			<point x="-54" y="630"/>
		</contour>
		<contour>
			<point x="419" y="500" type="curve" smooth="yes"/>
			<point x="419" y="455"/>
			<point x="455" y="419"/>
			<point x="500" y="419" type="curve" smooth="yes"/>
			<point x="545" y="419"/>
			<point x="581" y="455"/>
			<point x="581" y="500" type="curve" smooth="yes"/>
			<point x="581" y="545"/>
			<point x="545" y="581"/>
			<point x="500" y="581" type="curve" smooth="yes"/>
			<point x="455" y="581"/>
			<point x="419" y="545"/>
		</contour>
		<contour>
			<point x="219" y="500" type="curve" smooth="yes"/>
			<point x="219" y="455"/>
			<point x="255" y="419"/>
			<point x="300" y="419" type="curve" smooth="yes"/>
			<point x="345" y="419"/>
			<point x="381" y="455"/>
			<point x="381" y="500" type="curve" smooth="yes"/>
			<point x="381" y="545"/>
			<point x="345" y="581"/>
			<point x="300" y="581" type="curve" smooth="yes"/>
			<point x="255" y="581"/>
			<point x="219" y="545"/>
		</contour>
		<contour>
			<point x="19" y="500" type="curve" smooth="yes"/>
			<point x="19" y="455"/>
			<point x="55" y="419"/>
			<point x="100" y="419" type="curve" smooth="yes"/>
			<point x="145" y="419"/>
			<point x="181" y="455"/>
			<point x="181" y="500" type="curve" smooth="yes"/>
			<point x="181" y="545"/>
			<point x="145" y="581"/>
			<point x="100" y="581" type="curve" smooth="yes"/>
			<point x="55" y="581"/>
			<point x="19" y="545"/>
		</contour>
		<contour>
			<point x="346" y="400" type="curve" smooth="yes"/>
			<point x="346" y="370"/>
			<point x="370" y="346"/>
			<point x="400" y="346" type="curve" smooth="yes"/>
			<point x="430" y="346"/>
			<point x="454" y="370"/>
			<point x="454" y="400" type="curve" smooth="yes"/>
			<point x="454" y="430"/>
			<point x="430" y="454"/>
			<point x="400" y="454" type="curve" smooth="yes"/>
			<point x="370" y="454"/>
			<point x="346" y="430"/>
		</contour>
		<contour>
			<point x="146" y="400" type="curve" smooth="yes"/>
			<point x="146" y="370"/>
			<point x="170" y="346"/>
			<point x="200" y="346" type="curve" smooth="yes"/>
			<point x="230" y="346"/>
			<point x="254" y="370"/>
			<point x="254" y="400" type="curve" smooth="yes"/>
			<point x="254" y="430"/>
			<point x="230" y="454"/>
			<point x="200" y="454" type="curve" smooth="yes"/>
			<point x="170" y="454"/>
			<point x="146" y="430"/>
		</contour>
		<contour>
			<point x="-54" y="400" type="curve" smooth="yes"/>
			<point x="-54" y="370"/>
			<point x="-30" y="346"/>
			<point x="0" y="346" type="curve" smooth="yes"/>
			<point x="30" y="346"/>
			<point x="54" y="370"/>
			<point x="54" y="400" type="curve" smooth="yes"/>
			<point x="54" y="430"/>
			<point x="30" y="454"/>
			<point x="0" y="454" type="curve" smooth="yes"/>
			<point x="-30" y="454"/>
			<point x="-54" y="430"/>
		</contour>
		<contour>
			<point x="419" y="300" type="curve" smooth="yes"/>
			<point x="419" y="255"/>
			<point x="455" y="219"/>
			<point x="500" y="219" type="curve" smooth="yes"/>
			<point x="545" y="219"/>
			<point x="581" y="255"/>
			<point x="581" y="300" type="curve" smooth="yes"/>
			<point x="581" y="345"/>
			<point x="545" y="381"/>
			<point x="500" y="381" type="curve" smooth="yes"/>
			<point x="455" y="381"/>
			<point x="419" y="345"/>
		</contour>
		<contour>
			<point x="219" y="300" type="curve" smooth="yes"/>
			<point x="219" y="255"/>
			<point x="255" y="219"/>
			<point x="300" y="219" type="curve" smooth="yes"/>
			<point x="345" y="219"/>
			<point x="381" y="255"/>
			<point x="381" y="300" type="curve" smooth="yes"/>
			<point x="381" y="345"/>
			<point x="345" y="381"/>
			<point x="300" y="381" type="curve" smooth="yes"/>
			<point x="255" y="381"/>
			<point x="219" y="345"/>
		</contour>
		<contour>
			<point x="19" y="300" type="curve" smooth="yes"/>
			<point x="19" y="255"/>
			<point x="55" y="219"/>
			<point x="100" y="219" type="curve" smooth="yes"/>
			<point x="145" y="219"/>
			<point x="181" y="255"/>
			<point x="181" y="300" type="curve" smooth="yes"/>
			<point x="181" y="345"/>
			<point x="145" y="381"/>
			<point x="100" y="381" type="curve" smooth="yes"/>
			<point x="55" y="381"/>
			<point x="19" y="345"/>
		</contour>
		<contour>
			<point x="346" y="200" type="curve" smooth="yes"/>
			<point x="346" y="170"/>
			<point x="370" y="146"/>
			<point x="400" y="146" type="curve" smooth="yes"/>
			<point x="430" y="146"/>
			<point x="454" y="170"/>
			<point x="454" y="200" type="curve" smooth="yes"/>
			<point x="454" y="230"/>
			<point x="430" y="254"/>
			<point x="400" y="254" type="curve" smooth="yes"/>
			<point x="370" y="254"/>
			<point x="346" y="230"/>
		</contour>
		<contour>
			<point x="146" y="200" type="curve" smooth="yes"/>
			<point x="146" y="170"/>
			<point x="170" y="146"/>
			<point x="200" y="146" type="curve" smooth="yes"/>
			<point x="230" y="146"/>
			<point x="254" y="170"/>
			<point x="254" y="200" type="curve" smooth="yes"/>
			<point x="254" y="230"/>
			<point x="230" y="254"/>
			<point x="200" y="254" type="curve" smooth="yes"/>
			<point x="170" y="254"/>
			<point x="146" y="230"/>
		</contour>
		<contour>
			<point x="-54" y="200" type="curve" smooth="yes"/>
			<point x="-54" y="170"/>
			<point x="-30" y="146"/>
			<point x="0" y="146" type="curve" smooth="yes"/>
			<point x="30" y="146"/>
			<point x="54" y="170"/>
			<point x="54" y="200" type="curve" smooth="yes"/>
			<point x="54" y="230"/>
			<point x="30" y="254"/>
			<point x="0" y="254" type="curve" smooth="yes"/>
			<point x="-30" y="254"/>
			<point x="-54" y="230"/>
		</contour>
		<contour>
			<point x="419" y="100" type="curve" smooth="yes"/>
			<point x="419" y="55"/>
			<point x="455" y="19"/>
			<point x="500" y="19" type="curve" smooth="yes"/>
			<point x="545" y="19"/>
			<point x="581" y="55"/>
			<point x="581" y="100" type="curve" smooth="yes"/>
			<point x="581" y="145"/>
			<point x="545" y="181"/>
			<point x="500" y="181" type="curve" smooth="yes"/>
			<point x="455" y="181"/>
			<point x="419" y="145"/>
		</contour>
		<contour>
			<point x="219" y="100" type="curve" smooth="yes"/>
			<point x="219" y="55"/>
			<point x="255" y="19"/>
			<point x="300" y="19" type="curve" smooth="yes"/>
			<point x="345" y="19"/>
			<point x="381" y="55"/>
			<point x="381" y="100" type="curve" smooth="yes"/>
			<point x="381" y="145"/>
			<point x="345" y="181"/>
			<point x="300" y="181" type="curve" smooth="yes"/>
			<point x="255" y="181"/>
			<point x="219" y="145"/>
		</contour>
		<contour>
			<point x="19" y="100" type="curve" smooth="yes"/>
			<point x="19" y="55"/>
			<point x="55" y="19"/>
			<point x="100" y="19" type="curve" smooth="yes"/>
			<point x="145" y="19"/>
			<point x="181" y="55"/>
			<point x="181" y="100" type="curve" smooth="yes"/>
			<point x="181" y="145"/>
			<point x="145" y="181"/>
			<point x="100" y="181" type="curve" smooth="yes"/>
			<point x="55" y="181"/>
			<point x="19" y="145"/>
		</contour>
		<contour>
			<point x="346" y="0" type="curve" smooth="yes"/>
			<point x="346" y="-30"/>
			<point x="370" y="-54"/>
			<point x="400" y="-54" type="curve" smooth="yes"/>
			<point x="430" y="-54"/>
			<point x="454" y="-30"/>
			<point x="454" y="0" type="curve" smooth="yes"/>
			<point x="454" y="30"/>
			<point x="430" y="54"/>
			<point x="400" y="54" type="curve" smooth="yes"/>
			<point x="370" y="54"/>
			<point x="346" y="30"/>
		</contour>
		<contour>
			<point x="146" y="0" type="curve" smooth="yes"/>
			<point x="146" y="-30"/>
			<point x="170" y="-54"/>
			<point x="200" y="-54" type="curve" smooth="yes"/>
			<point x="230" y="-54"/>
			<point x="254" y="-30"/>
			<point x="254" y="0" type="curve" smooth="yes"/>
			<point x="254" y="30"/>
			<point x="230" y="54"/>
			<point x="200" y="54" type="curve" smooth="yes"/>
			<point x="170" y="54"/>
			<point x="146" y="30"/>
		</contour>
		<contour>
			<point x="-54" y="0" type="curve" smooth="yes"/>
			<point x="-54" y="-30"/>
			<point x="-30" y="-54"/>
			<point x="0" y="-54" type="curve" smooth="yes"/>
			<point x="30" y="-54"/>
			<point x="54" y="-30"/>
			<point x="54" y="0" type="curve" smooth="yes"/>
			<point x="54" y="30"/>
			<point x="30" y="54"/>
			<point x="0" y="54" type="curve" smooth="yes"/>
			<point x="-30" y="54"/>
			<point x="-54" y="30"/>
		</contour>
		<contour>
			<point x="419" y="-100" type="curve" smooth="yes"/>
			<point x="419" y="-145"/>
			<point x="455" y="-181"/>
			<point x="500" y="-181" type="curve" smooth="yes"/>
			<point x="545" y="-181"/>
			<point x="581" y="-145"/>
			<point x="581" y="-100" type="curve" smooth="yes"/>
			<point x="581" y="-55"/>
			<point x="545" y="-19"/>
			<point x="500" y="-19" type="curve" smooth="yes"/>
			<point x="455" y="-19"/>
			<point x="419" y="-55"/>
		</contour>
		<contour>
			<point x="219" y="-100" type="curve" smooth="yes"/>
			<point x="219" y="-145"/>
			<point x="255" y="-181"/>
			<point x="300" y="-181" type="curve" smooth="yes"/>
			<point x="345" y="-181"/>
			<point x="381" y="-145"/>
			<point x="381" y="-100" type="curve" smooth="yes"/>
			<point x="381" y="-55"/>
			<point x="345" y="-19"/>
			<point x="300" y="-19" type="curve" smooth="yes"/>
			<point x="255" y="-19"/>
			<point x="219" y="-55"/>
		</contour>
		<contour>
			<point x="19" y="-100" type="curve" smooth="yes"/>
			<point x="19" y="-145"/>
			<point x="55" y="-181"/>
			<point x="100" y="-181" type="curve" smooth="yes"/>
			<point x="145" y="-181"/>
			<point x="181" y="-145"/>
			<point x="181" y="-100" type="curve" smooth="yes"/>
			<point x="181" y="-55"/>
			<point x="145" y="-19"/>
			<point x="100" y="-19" type="curve" smooth="yes"/>
			<point x="55" y="-19"/>
			<point x="19" y="-55"/>
		</contour>
		<contour>
			<point x="346" y="-200" type="curve" smooth="yes"/>
			<point x="346" y="-230"/>
			<point x="370" y="-254"/>
			<point x="400" y="-254" type="curve" smooth="yes"/>
			<point x="430" y="-254"/>
			<point x="454" y="-230"/>
			<point x="454" y="-200" type="curve" smooth="yes"/>
			<point x="454" y="-170"/>
			<point x="430" y="-146"/>
			<point x="400" y="-146" type="curve" smooth="yes"/>
			<point x="370" y="-146"/>
			<point x="346" y="-170"/>
		</contour>
		<contour>
			<point x="146" y="-200" type="curve" smooth="yes"/>
			<point x="146" y="-230"/>
			<point x="170" y="-254"/>
			<point x="200" y="-254" type="curve" smooth="yes"/>
			<point x="230" y="-254"/>
			<point x="254" y="-230"/>
			<point x="254" y="-200" type="curve" smooth="yes"/>
			<point x="254" y="-170"/>
			<point x="230" y="-146"/>
			<point x="200" y="-146" type="curve" smooth="yes"/>
			<point x="170" y="-146"/>
			<point x="146" y="-170"/>
		</contour>
		<contour>
			<point x="-54" y="-200" type="curve" smooth="yes"/>
			<point x="-54" y="-230"/>
			<point x="-30" y="-254"/>
			<point x="0" y="-254" type="curve" smooth="yes"/>
			<point x="30" y="-254"/>
			<point x="54" y="-230"/>
			<point x="54" y="-200" type="curve" smooth="yes"/>
			<point x="54" y="-170"/>
			<point x="30" y="-146"/>
			<point x="0" y="-146" type="curve" smooth="yes"/>
			<point x="-30" y="-146"/>
			<point x="-54" y="-170"/>
		</contour>
		<contour>
			<point x="419" y="-300" type="curve" smooth="yes"/>
			<point x="419" y="-345"/>
			<point x="455" y="-381"/>
			<point x="500" y="-381" type="curve" smooth="yes"/>
			<point x="545" y="-381"/>
			<point x="581" y="-345"/>
			<point x="581" y="-300" type="curve" smooth="yes"/>
			<point x="581" y="-255"/>
			<point x="545" y="-219"/>
			<point x="500" y="-219" type="curve" smooth="yes"/>
			<point x="455" y="-219"/>
			<point x="419" y="-255"/>
		</contour>
		<contour>
			<point x="219" y="-300" type="curve" smooth="yes"/>
			<point x="219" y="-345"/>
			<point x="255" y="-381"/>
			<point x="300" y="-381" type="curve" smooth="yes"/>
			<point x="345" y="-381"/>
			<point x="381" y="-345"/>
			<point x="381" y="-300" type="curve" smooth="yes"/>
			<point x="381" y="-255"/>
			<point x="345" y="-219"/>
			<point x="300" y="-219" type="curve" smooth="yes"/>
			<point x="255" y="-219"/>
			<point x="219" y="-255"/>
		</contour>
		<contour>
			<point x="19" y="-300" type="curve" smooth="yes"/>
			<point x="19" y="-345"/>
			<point x="55" y="-381"/>
			<point x="100" y="-381" type="curve" smooth="yes"/>
			<point x="145" y="-381"/>
			<point x="181" y="-345"/>
			<point x="181" y="-300" type="curve" smooth="yes"/>
			<point x="181" y="-255"/>
			<point x="145" y="-219"/>
			<point x="100" y="-219" type="curve" smooth="yes"/>
			<point x="55" y="-219"/>
			<point x="19" y="-255"/>
		</contour>
		<contour>
			<point x="346" y="-400" type="curve" smooth="yes"/>
			<point x="346" y="-430"/>
			<point x="370" y="-454"/>
			<point x="400" y="-454" type="curve" smooth="yes"/>
			<point x="430" y="-454"/>
			<point x="454" y="-430"/>
			<point x="454" y="-400" type="curve" smooth="yes"/>
			<point x="454" y="-370"/>
			<point x="430" y="-346"/>
			<point x="400" y="-346" type="curve" smooth="yes"/>
			<point x="370" y="-346"/>
			<point x="346" y="-370"/>
		</contour>
		<contour>
			<point x="146" y="-400" type="curve" smooth="yes"/>
			<point x="146" y="-430"/>
			<point x="170" y="-454"/>
			<point x="200" y="-454" type="curve" smooth="yes"/>
			<point x="230" y="-454"/>
			<point x="254" y="-430"/>
			<point x="254" y="-400" type="curve" smooth="yes"/>
			<point x="254" y="-370"/>
			<point x="230" y="-346"/>
			<point x="200" y="-346" type="curve" smooth="yes"/>
			<point x="170" y="-346"/>
			<point x="146" y="-370"/>
		</contour>
		<contour>
			<point x="-54" y="-400" type="curve" smooth="yes"/>
			<point x="-54" y="-430"/>
			<point x="-30" y="-454"/>
			<point x="0" y="-454" type="curve" smooth="yes"/>
			<point x="30" y="-454"/>
			<point x="54" y="-430"/>
			<point x="54" y="-400" type="curve" smooth="yes"/>
			<point x="54" y="-370"/>
			<point x="30" y="-346"/>
			<point x="0" y="-346" type="curve" smooth="yes"/>
			<point x="-30" y="-346"/>
			<point x="-54" y="-370"/>
		</contour>
	</outline>
</glyph>
<glyph name="bulletsquare" format="1">
  <advance width="600"/>
  <unicode hex="25AA"/>
  <outline>
    <contour>
      <point x="177" y="138" type="line"/>
      <point x="423" y="138" type="line"/>
      <point x="423" y="386" type="line"/>
      <point x="177" y="386" type="line"/>
    </contour>
  </outline>
</glyph>
<glyph name="trianglesmallleftblack" format="1">
	<unicode hex="25C2"/>
	<advance width="600"/>
	<outline>
		<contour>
			<point x="417" y="114" type="line"/>
			<point x="419" y="114" type="line"/>
			<point x="419" y="412" type="line"/>
			<point x="417" y="412" type="line"/>
			<point x="151" y="264" type="line"/>
			<point x="151" y="262" type="line"/>
		</contour>
	</outline>
</glyph>
<glyph name="lozenge" format="1">
  <advance width="600"/>
  <unicode hex="25CA"/>
  <outline>
    <contour>
      <point x="281" y="-10" type="line"/>
      <point x="319" y="-10" type="line"/>
      <point x="485" y="330" type="line"/>
      <point x="319" y="670" type="line"/>
      <point x="281" y="670" type="line"/>
      <point x="115" y="330" type="line"/>
    </contour>
    <contour>
      <point x="298" y="15" type="line"/>
      <point x="228" y="157" type="line"/>
      <point x="147" y="330" type="line"/>
      <point x="228" y="501" type="line"/>
      <point x="298" y="645" type="line"/>
      <point x="302" y="645" type="line"/>
      <point x="372" y="501" type="line"/>
      <point x="453" y="330" type="line"/>
      <point x="372" y="157" type="line"/>
      <point x="302" y="15" type="line"/>
    </contour>
  </outline>
</glyph>
